<?xml version="1.0" encoding="UTF-8" standalone="no"?>
<svg
   width="24px"
   height="24px"
   stroke-width="1.57"
   viewBox="0 0 24 24"
   fill="none"
   color="#000000"
   version="1.1"
   id="svg6371"
   sodipodi:docname="bookmark-empty.svg"
   inkscape:version="1.2.1 (9c6d41e410, 2022-07-14, custom)"
   xmlns:inkscape="http://www.inkscape.org/namespaces/inkscape"
   xmlns:sodipodi="http://sodipodi.sourceforge.net/DTD/sodipodi-0.dtd"
   xmlns="http://www.w3.org/2000/svg"
   xmlns:svg="http://www.w3.org/2000/svg">
  <defs
     id="defs6375" />
  <sodipodi:namedview
     id="namedview6373"
     pagecolor="#505050"
     bordercolor="#eeeeee"
     borderopacity="1"
     inkscape:showpageshadow="0"
     inkscape:pageopacity="0"
     inkscape:pagecheckerboard="0"
     inkscape:deskcolor="#505050"
     showgrid="false"
     inkscape:zoom="9.8333333"
     inkscape:cx="12"
     inkscape:cy="12.050847"
     inkscape:window-width="2560"
     inkscape:window-height="1377"
     inkscape:window-x="2560"
     inkscape:window-y="0"
     inkscape:window-maximized="1"
     inkscape:current-layer="svg6371" />
  <path
     style="color:#000000;fill:#000000;stroke-linecap:round;stroke-linejoin:round;-inkscape-stroke:none"
     d="M 7,2.2148438 C 5.4711865,2.2148438 4.2148437,3.4711865 4.2148437,5 v 16 a 0.78507853,0.78507853 0 0 0 1.2089844,0.660156 l 5.9179689,-3.804687 c 0.402003,-0.258595 0.914403,-0.258595 1.316406,0 l 5.917969,3.804687 A 0.78507853,0.78507853 0 0 0 19.785156,21 V 5 C 19.785156,3.4711865 18.528813,2.2148438 17,2.2148438 Z m 0,1.5703125 h 10 c 0.680323,0 1.214844,0.5345204 1.214844,1.2148437 v 14.5625 l -4.708985,-3.027344 c -0.916083,-0.589284 -2.095635,-0.589284 -3.011718,0 L 5.7851562,19.5625 V 5 C 5.7851562,4.3196767 6.3196767,3.7851563 7,3.7851563 Z"
     id="path6369" />
</svg>
