<?xml version="1.0" encoding="UTF-8" standalone="no"?>
<svg
   width="24px"
   height="24px"
   stroke-width="1.57"
   viewBox="0 0 24 24"
   fill="none"
   color="#000000"
   version="1.1"
   id="svg5015"
   sodipodi:docname="cpu.svg"
   inkscape:version="1.2.1 (9c6d41e410, 2022-07-14, custom)"
   xmlns:inkscape="http://www.inkscape.org/namespaces/inkscape"
   xmlns:sodipodi="http://sodipodi.sourceforge.net/DTD/sodipodi-0.dtd"
   xmlns="http://www.w3.org/2000/svg"
   xmlns:svg="http://www.w3.org/2000/svg">
  <defs
     id="defs5019" />
  <sodipodi:namedview
     id="namedview5017"
     pagecolor="#505050"
     bordercolor="#eeeeee"
     borderopacity="1"
     inkscape:showpageshadow="0"
     inkscape:pageopacity="0"
     inkscape:pagecheckerboard="0"
     inkscape:deskcolor="#505050"
     showgrid="false"
     inkscape:zoom="9.8333333"
     inkscape:cx="12"
     inkscape:cy="12.050847"
     inkscape:window-width="2560"
     inkscape:window-height="1377"
     inkscape:window-x="2560"
     inkscape:window-y="0"
     inkscape:window-maximized="1"
     inkscape:current-layer="svg5015" />
  <path
     style="color:#000000;fill:#000000;stroke-linecap:round;stroke-linejoin:round;-inkscape-stroke:none"
     d="m 8.5996094,7.2148437 c -0.7556156,0 -1.3847657,0.6291501 -1.3847657,1.3847657 v 6.8007816 c 10e-8,0.755615 0.6291501,1.384765 1.3847657,1.384765 h 6.8007816 c 0.755615,0 1.384765,-0.62915 1.384765,-1.384765 V 8.5996094 c 0,-0.7556156 -0.62915,-1.3847657 -1.384765,-1.3847657 z M 8.7851563,8.7851563 H 15.214844 V 15.214844 H 8.7851563 Z"
     id="path5011" />
  <path
     style="color:#000000;fill:#000000;stroke-linecap:round;stroke-linejoin:round;-inkscape-stroke:none"
     d="M 7,1.2148437 A 0.78500003,0.78500003 0 0 0 6.2148437,2 V 3.2148438 H 4.5996094 c -0.7556156,-1e-7 -1.3847656,0.62915 -1.3847656,1.3847656 V 6.2148437 H 2 A 0.78500003,0.78500003 0 0 0 1.2148437,7 0.78500003,0.78500003 0 0 0 2,7.7851562 H 3.2148438 V 11.214844 H 2 A 0.78500003,0.78500003 0 0 0 1.2148437,12 0.78500003,0.78500003 0 0 0 2,12.785156 h 1.2148438 v 3.429688 H 2 A 0.78500003,0.78500003 0 0 0 1.2148437,17 0.78500003,0.78500003 0 0 0 2,17.785156 h 1.2148438 v 1.615235 c -1e-7,0.755615 0.62915,1.384765 1.3847656,1.384765 H 6.2148437 V 22 A 0.78500003,0.78500003 0 0 0 7,22.785156 0.78500003,0.78500003 0 0 0 7.7851562,22 V 20.785156 H 11.214844 V 22 A 0.78500003,0.78500003 0 0 0 12,22.785156 0.78500003,0.78500003 0 0 0 12.785156,22 v -1.214844 h 3.429688 V 22 A 0.78500003,0.78500003 0 0 0 17,22.785156 0.78500003,0.78500003 0 0 0 17.785156,22 v -1.214844 h 1.615235 c 0.755615,0 1.384765,-0.62915 1.384765,-1.384765 V 17.785156 H 22 A 0.78500003,0.78500003 0 0 0 22.785156,17 0.78500003,0.78500003 0 0 0 22,16.214844 H 20.785156 V 12.785156 H 22 A 0.78500003,0.78500003 0 0 0 22.785156,12 0.78500003,0.78500003 0 0 0 22,11.214844 H 20.785156 V 7.7851562 H 22 A 0.78500003,0.78500003 0 0 0 22.785156,7 0.78500003,0.78500003 0 0 0 22,6.2148437 H 20.785156 V 4.5996094 c 0,-0.7556156 -0.62915,-1.3847657 -1.384765,-1.3847656 H 17.785156 V 2 A 0.78500003,0.78500003 0 0 0 17,1.2148437 0.78500003,0.78500003 0 0 0 16.214844,2 V 3.2148438 H 12.785156 V 2 A 0.78500003,0.78500003 0 0 0 12,1.2148437 0.78500003,0.78500003 0 0 0 11.214844,2 V 3.2148438 H 7.7851562 V 2 A 0.78500003,0.78500003 0 0 0 7,1.2148437 Z M 4.7851562,4.7851562 H 7 h 5 5 2.214844 V 7 v 5 5 2.214844 H 17 12 7 4.7851562 V 17 12 7 Z"
     id="path5013" />
</svg>
