<?xml version="1.0" encoding="UTF-8" standalone="no"?>
<svg
   width="24px"
   height="24px"
   stroke-width="1.57"
   viewBox="0 0 24 24"
   fill="none"
   color="#000000"
   version="1.1"
   id="svg7586"
   sodipodi:docname="ease-in-out.svg"
   inkscape:version="1.2.1 (9c6d41e410, 2022-07-14, custom)"
   xmlns:inkscape="http://www.inkscape.org/namespaces/inkscape"
   xmlns:sodipodi="http://sodipodi.sourceforge.net/DTD/sodipodi-0.dtd"
   xmlns="http://www.w3.org/2000/svg"
   xmlns:svg="http://www.w3.org/2000/svg">
  <defs
     id="defs7590" />
  <sodipodi:namedview
     id="namedview7588"
     pagecolor="#505050"
     bordercolor="#eeeeee"
     borderopacity="1"
     inkscape:showpageshadow="0"
     inkscape:pageopacity="0"
     inkscape:pagecheckerboard="0"
     inkscape:deskcolor="#505050"
     showgrid="false"
     inkscape:zoom="9.8333333"
     inkscape:cx="12"
     inkscape:cy="12.050847"
     inkscape:window-width="2560"
     inkscape:window-height="1377"
     inkscape:window-x="2560"
     inkscape:window-y="0"
     inkscape:window-maximized="1"
     inkscape:current-layer="svg7586" />
  <path
     style="color:#000000;fill:#000000;stroke-linecap:round;stroke-linejoin:round;-inkscape-stroke:none"
     d="m 21,3.2148438 c -2.261664,0 -4.107519,1.1546531 -5.628906,2.7421874 -1.521387,1.5875344 -2.787111,3.6269552 -4.03711,5.6269528 -1.249998,1.999998 -2.4842802,3.960585 -3.8378903,5.373047 C 6.1424837,18.369494 4.7383316,19.214844 3,19.214844 A 0.78500003,0.78500003 0 0 0 2.2148438,20 0.78500003,0.78500003 0 0 0 3,20.785156 c 2.2616644,0 4.1075192,-1.154653 5.6289063,-2.742187 1.5213867,-1.587535 2.7871107,-3.626955 4.0371097,-5.626953 1.249998,-1.999998 2.48428,-3.9605846 3.83789,-5.3730473 C 17.857516,5.6305061 19.261668,4.7851562 21,4.7851562 A 0.78500003,0.78500003 0 0 0 21.785156,4 0.78500003,0.78500003 0 0 0 21,3.2148438 Z"
     id="path7584" />
</svg>
