<?xml version="1.0" encoding="UTF-8" standalone="no"?>
<svg
   width="24px"
   height="24px"
   stroke-width="1.57"
   viewBox="0 0 24 24"
   fill="none"
   color="#000000"
   version="1.1"
   id="svg7719"
   sodipodi:docname="ease-in.svg"
   inkscape:version="1.2.1 (9c6d41e410, 2022-07-14, custom)"
   xmlns:inkscape="http://www.inkscape.org/namespaces/inkscape"
   xmlns:sodipodi="http://sodipodi.sourceforge.net/DTD/sodipodi-0.dtd"
   xmlns="http://www.w3.org/2000/svg"
   xmlns:svg="http://www.w3.org/2000/svg">
  <defs
     id="defs7723" />
  <sodipodi:namedview
     id="namedview7721"
     pagecolor="#505050"
     bordercolor="#eeeeee"
     borderopacity="1"
     inkscape:showpageshadow="0"
     inkscape:pageopacity="0"
     inkscape:pagecheckerboard="0"
     inkscape:deskcolor="#505050"
     showgrid="false"
     inkscape:zoom="9.8333333"
     inkscape:cx="12"
     inkscape:cy="12.050847"
     inkscape:window-width="2560"
     inkscape:window-height="1377"
     inkscape:window-x="2560"
     inkscape:window-y="0"
     inkscape:window-maximized="1"
     inkscape:current-layer="svg7719" />
  <path
     style="color:#000000;fill:#000000;stroke-linecap:round;stroke-linejoin:round;-inkscape-stroke:none"
     d="m 20.824219,3.234375 a 0.78500003,0.78500003 0 0 0 -0.490235,0.3496094 c 0,0 -2.472627,3.9542076 -5.923828,7.8984376 C 10.958955,15.426652 6.4766632,19.214844 3,19.214844 A 0.78500003,0.78500003 0 0 0 2.2148438,20 0.78500003,0.78500003 0 0 0 3,20.785156 c 4.5233288,0 9.041052,-4.211816 12.589844,-8.267578 3.548792,-4.055762 6.076172,-8.1015624 6.076172,-8.1015624 a 0.78500003,0.78500003 0 0 0 -0.25,-1.0820312 0.78500003,0.78500003 0 0 0 -0.591797,-0.099609 z"
     id="path7717" />
</svg>
