<?xml version="1.0" encoding="UTF-8" standalone="no"?>
<svg
   width="24px"
   height="24px"
   stroke-width="1.57"
   viewBox="0 0 24 24"
   fill="none"
   color="#000000"
   version="1.1"
   id="svg10547"
   sodipodi:docname="star-outline.svg"
   inkscape:version="1.2.1 (9c6d41e410, 2022-07-14, custom)"
   xmlns:inkscape="http://www.inkscape.org/namespaces/inkscape"
   xmlns:sodipodi="http://sodipodi.sourceforge.net/DTD/sodipodi-0.dtd"
   xmlns="http://www.w3.org/2000/svg"
   xmlns:svg="http://www.w3.org/2000/svg">
  <defs
     id="defs10551" />
  <sodipodi:namedview
     id="namedview10549"
     pagecolor="#505050"
     bordercolor="#eeeeee"
     borderopacity="1"
     inkscape:showpageshadow="0"
     inkscape:pageopacity="0"
     inkscape:pagecheckerboard="0"
     inkscape:deskcolor="#505050"
     showgrid="false"
     inkscape:zoom="9.8333333"
     inkscape:cx="12"
     inkscape:cy="12.050847"
     inkscape:window-width="2560"
     inkscape:window-height="1377"
     inkscape:window-x="2560"
     inkscape:window-y="0"
     inkscape:window-maximized="1"
     inkscape:current-layer="svg10547" />
  <path
     style="color:#000000;fill:#000000;stroke-linecap:round;stroke-linejoin:round;-inkscape-stroke:none"
     d="m 12,1.7480469 c -0.607975,0 -1.216251,0.3009876 -1.517578,0.9042969 a 0.78507853,0.78507853 0 0 0 0,0.00195 L 8.0683594,7.5175781 2.6660156,8.3046875 c -1.3351273,0.1917633 -1.90561097,1.9378995 -0.9375,2.8789065 a 0.78507853,0.78507853 0 0 0 0.00195,0.002 l 3.9042969,3.78125 -0.921875,5.339844 a 0.78507853,0.78507853 0 0 0 0,0.002 c -0.2290259,1.332678 1.2587619,2.406252 2.4550781,1.78125 L 12,19.564453 l 4.830078,2.525391 c 1.196806,0.62442 2.686435,-0.448182 2.457031,-1.78125 l -0.921875,-5.341797 3.904297,-3.78125 C 23.243707,10.243906 22.670167,8.4888253 21.328125,8.3027344 L 15.933594,7.5175781 13.517578,2.6542969 a 0.78507853,0.78507853 0 0 0 0,-0.00195 C 13.216251,2.0490345 12.607975,1.7480469 12,1.7480469 Z m -0.113281,1.6074219 h 0.002 c 0.06769,-0.1325352 0.154966,-0.1325352 0.222656,0 l 2.597656,5.2304687 a 0.78507853,0.78507853 0 0 0 0.591797,0.4277344 l 5.806641,0.84375 a 0.78507853,0.78507853 0 0 0 0.0059,0 c 0.147866,0.020504 0.171788,0.095469 0.06445,0.1992191 a 0.78507853,0.78507853 0 0 0 0,0.002 l -4.201172,4.070312 a 0.78507853,0.78507853 0 0 0 -0.228515,0.697266 l 0.992187,5.748047 c 0.0246,0.14293 -0.0464,0.194625 -0.183593,0.123047 l -5.19336,-2.714844 a 0.78507853,0.78507853 0 0 0 -0.726562,0 l -5.1953128,2.716797 c -0.1353693,0.07094 -0.2064972,0.01964 -0.1816406,-0.125 l 0.9921875,-5.75 A 0.78507853,0.78507853 0 0 0 7.0234375,14.126953 L 2.8222656,10.056641 C 2.7189973,9.9545382 2.7429206,9.8779321 2.8886719,9.8574219 a 0.78507853,0.78507853 0 0 0 0.00391,0 l 5.8066407,-0.84375 A 0.78507853,0.78507853 0 0 0 9.2910156,8.5859375 Z"
     id="path10545" />
</svg>
