<?xml version="1.0" encoding="UTF-8" standalone="no"?>
<svg
   width="24px"
   height="24px"
   stroke-width="1.57"
   viewBox="0 0 24 24"
   fill="none"
   color="#000000"
   version="1.1"
   id="svg5155"
   sodipodi:docname="fx-rounded.svg"
   inkscape:version="1.2.1 (9c6d41e410, 2022-07-14, custom)"
   xmlns:inkscape="http://www.inkscape.org/namespaces/inkscape"
   xmlns:sodipodi="http://sodipodi.sourceforge.net/DTD/sodipodi-0.dtd"
   xmlns="http://www.w3.org/2000/svg"
   xmlns:svg="http://www.w3.org/2000/svg">
  <defs
     id="defs5159" />
  <sodipodi:namedview
     id="namedview5157"
     pagecolor="#505050"
     bordercolor="#eeeeee"
     borderopacity="1"
     inkscape:showpageshadow="0"
     inkscape:pageopacity="0"
     inkscape:pagecheckerboard="0"
     inkscape:deskcolor="#505050"
     showgrid="false"
     inkscape:zoom="9.8333333"
     inkscape:cx="12"
     inkscape:cy="12.050847"
     inkscape:window-width="2560"
     inkscape:window-height="1377"
     inkscape:window-x="2560"
     inkscape:window-y="0"
     inkscape:window-maximized="1"
     inkscape:current-layer="svg5155" />
  <path
     style="color:#000000;fill:#000000;-inkscape-stroke:none"
     d="M 8,2.2148438 C 4.2620497,2.2148438 1.2148438,5.2620497 1.2148437,9 v 6 c 10e-8,3.73795 3.047206,6.785156 6.7851563,6.785156 h 8 c 3.73795,0 6.785156,-3.047206 6.785156,-6.785156 V 9 C 22.785156,5.2620497 19.73795,2.2148438 16,2.2148438 Z m 0,1.5703125 h 8 c 2.88946,0 5.214844,2.3253836 5.214844,5.2148437 v 6 c 0,2.88946 -2.325384,5.214844 -5.214844,5.214844 H 8 C 5.1105399,20.214844 2.7851563,17.88946 2.7851563,15 V 9 C 2.7851563,6.1105399 5.1105399,3.7851563 8,3.7851563 Z"
     id="path5151" />
  <path
     style="color:#000000;fill:#000000;stroke-linecap:round;stroke-linejoin:round;-inkscape-stroke:none"
     d="M 6,8.2148438 A 0.78507853,0.78507853 0 0 0 5.2148437,9 v 3 3 A 0.78500003,0.78500003 0 0 0 6,15.785156 0.78500003,0.78500003 0 0 0 6.7851562,15 V 12.785156 H 9.5703125 A 0.78500003,0.78500003 0 0 0 10.355469,12 0.78500003,0.78500003 0 0 0 9.5703125,11.214844 H 6.7851562 V 9.7851563 H 11 A 0.78500003,0.78500003 0 0 0 11.785156,9 0.78500003,0.78500003 0 0 0 11,8.2148438 Z m 7.070313,0.00391 A 0.78500003,0.78500003 0 0 0 12.498047,8.3964844 0.78500003,0.78500003 0 0 0 12.396484,9.5019531 L 14.478516,12 12.396484,14.498047 a 0.78500003,0.78500003 0 0 0 0.101563,1.105469 0.78500003,0.78500003 0 0 0 1.105469,-0.101563 L 15.5,13.226563 l 1.896484,2.27539 a 0.78500003,0.78500003 0 0 0 1.105469,0.101563 0.78500003,0.78500003 0 0 0 0.101563,-1.105469 L 16.521484,12 18.603516,9.5019531 A 0.78500003,0.78500003 0 0 0 18.501953,8.3964844 0.78500003,0.78500003 0 0 0 17.396484,8.4980469 L 15.5,10.773438 13.603516,8.4980469 A 0.78500003,0.78500003 0 0 0 13.070313,8.21875 Z"
     id="path5153" />
</svg>
