<?xml version="1.0" encoding="UTF-8" standalone="no"?>
<svg
   width="24px"
   height="24px"
   stroke-width="1.57"
   viewBox="0 0 24 24"
   fill="none"
   color="#000000"
   version="1.1"
   id="svg14070"
   sodipodi:docname="open-select-hand-gesture.svg"
   inkscape:version="1.2.1 (9c6d41e410, 2022-07-14, custom)"
   xmlns:inkscape="http://www.inkscape.org/namespaces/inkscape"
   xmlns:sodipodi="http://sodipodi.sourceforge.net/DTD/sodipodi-0.dtd"
   xmlns="http://www.w3.org/2000/svg"
   xmlns:svg="http://www.w3.org/2000/svg">
  <defs
     id="defs14074" />
  <sodipodi:namedview
     id="namedview14072"
     pagecolor="#505050"
     bordercolor="#eeeeee"
     borderopacity="1"
     inkscape:showpageshadow="0"
     inkscape:pageopacity="0"
     inkscape:pagecheckerboard="0"
     inkscape:deskcolor="#505050"
     showgrid="false"
     inkscape:zoom="9.8333333"
     inkscape:cx="12"
     inkscape:cy="12.050847"
     inkscape:window-width="2560"
     inkscape:window-height="1377"
     inkscape:window-x="2560"
     inkscape:window-y="0"
     inkscape:window-maximized="1"
     inkscape:current-layer="svg14070" />
  <path
     style="color:#000000;fill:#000000;stroke-linecap:round;stroke-linejoin:round;-inkscape-stroke:none"
     d="M 20,8.6445313 A 0.78500003,0.78500003 0 0 0 19.214844,9.4296875 V 18 c 0,1.581332 -1.250957,3.214844 -3.214844,3.214844 h -4.634766 c -0.335391,0 -0.653045,-0.137484 -0.884765,-0.382813 l -0.002,-0.002 -5.9414066,-6.335937 v -0.002 c -0.2748962,-0.294977 -0.28348,-0.733607 -0.017578,-1.03711 a 0.78507853,0.78507853 0 0 0 0.00195,0 c 0.2958921,-0.338399 0.7870929,-0.35953 1.1132812,-0.05078 l 1.8242188,1.734375 a 0.78500003,0.78500003 0 0 0 1.109375,-0.02539 0.78500003,0.78500003 0 0 0 -0.027344,-1.111328 L 6.71875,12.265625 c -0.9577497,-0.911571 -2.5085685,-0.839119 -3.3789062,0.15625 -0.7881877,0.901163 -0.7660234,2.270778 0.052734,3.144531 l 5.9414063,6.337891 a 0.78507853,0.78507853 0 0 0 0.00195,0.002 c 0.5261237,0.55944 1.2595825,0.878906 2.0292965,0.878906 H 16 c 2.836108,0 4.785156,-2.366492 4.785156,-4.785156 V 9.4296875 A 0.78500003,0.78500003 0 0 0 20,8.6445313 Z"
     id="path14066" />
  <path
     style="color:#000000;fill:#000000;stroke-linecap:round;stroke-linejoin:round;-inkscape-stroke:none"
     d="M 9.5,1.2148437 C 8.2473286,1.2148437 7.2148437,2.2473286 7.2148437,3.5 V 14.570313 A 0.78500003,0.78500003 0 0 0 8,15.355469 0.78500003,0.78500003 0 0 0 8.7851563,14.570313 V 3.5 c 0,-0.4041812 0.3106625,-0.7148437 0.7148437,-0.7148437 0.4045294,0 0.714844,0.3081129 0.714844,0.7128906 V 7.5 10 A 0.78500003,0.78500003 0 0 0 10.445313,10.554688 0.78500003,0.78500003 0 0 0 11,10.785156 0.78500003,0.78500003 0 0 0 11.554688,10.554688 0.78500003,0.78500003 0 0 0 11.785156,10 V 7.5 c 0,-0.7996046 0.363624,-0.9296875 0.714844,-0.9296875 0.35122,0 0.714844,0.1300829 0.714844,0.9296875 V 8.2851563 10 A 0.78500003,0.78500003 0 0 0 13.445313,10.554688 0.78500003,0.78500003 0 0 0 14,10.785156 0.78500003,0.78500003 0 0 0 14.785156,10 V 8.2851563 c 0,-0.7996047 0.363624,-0.9277344 0.714844,-0.9277344 0.35122,0 0.714844,0.1281297 0.714844,0.9277344 V 9.4296875 10 A 0.78500003,0.78500003 0 0 0 17,10.785156 0.78500003,0.78500003 0 0 0 17.554687,10.554688 0.78500003,0.78500003 0 0 0 17.785156,10 V 9.4296875 C 17.785156,8.6300829 18.14878,8.5 18.5,8.5 c 0.35122,0 0.714844,0.1300829 0.714844,0.9296875 A 0.78500003,0.78500003 0 0 0 20,10.214844 0.78500003,0.78500003 0 0 0 20.785156,9.4296875 c 0,-1.4863931 -1.136377,-2.5 -2.285156,-2.5 -0.388294,0 -0.722421,0.2561529 -1.064453,0.4667969 C 17.065368,6.4758157 16.366252,5.7871094 15.5,5.7871094 c -0.431819,0 -0.815004,0.261906 -1.183594,0.5195312 C 13.89588,5.5598094 13.269464,5 12.5,5 12.239227,5 12.031492,5.2163584 11.785156,5.3144531 V 3.4980469 C 11.785156,2.2448262 10.751469,1.2148437 9.5,1.2148437 Z"
     id="path14068" />
</svg>
