<?xml version="1.0" encoding="UTF-8" standalone="no"?>
<svg
   width="24px"
   height="24px"
   stroke-width="1.57"
   viewBox="0 0 24 24"
   fill="none"
   color="#000000"
   version="1.1"
   id="svg11233"
   sodipodi:docname="question-mark.svg"
   inkscape:version="1.2.1 (9c6d41e410, 2022-07-14, custom)"
   xmlns:inkscape="http://www.inkscape.org/namespaces/inkscape"
   xmlns:sodipodi="http://sodipodi.sourceforge.net/DTD/sodipodi-0.dtd"
   xmlns="http://www.w3.org/2000/svg"
   xmlns:svg="http://www.w3.org/2000/svg">
  <defs
     id="defs11237" />
  <sodipodi:namedview
     id="namedview11235"
     pagecolor="#505050"
     bordercolor="#eeeeee"
     borderopacity="1"
     inkscape:showpageshadow="0"
     inkscape:pageopacity="0"
     inkscape:pagecheckerboard="0"
     inkscape:deskcolor="#505050"
     showgrid="false"
     inkscape:zoom="9.8333333"
     inkscape:cx="12"
     inkscape:cy="12.050847"
     inkscape:window-width="2560"
     inkscape:window-height="1377"
     inkscape:window-x="2560"
     inkscape:window-y="0"
     inkscape:window-maximized="1"
     inkscape:current-layer="svg11233" />
  <path
     style="color:#000000;fill:#000000;stroke-linecap:round;stroke-linejoin:round;-inkscape-stroke:none"
     d="m 11.650391,3.7148438 c -1.104024,0 -2.2187661,0.346207 -3.0859379,1.0820312 C 7.6972813,5.5326992 7.1152344,6.681246 7.1152344,8.0800781 A 0.78500003,0.78500003 0 0 0 7.9003906,8.8652344 0.78500003,0.78500003 0 0 0 8.6855469,8.0800781 c 0,-0.9876655 0.3554544,-1.6285128 0.8945312,-2.0859375 0.5390769,-0.4574246 1.2993379,-0.7089844 2.0703129,-0.7089844 0.770974,0 1.531235,0.2515598 2.070312,0.7089844 0.539077,0.4574247 0.894531,1.098272 0.894531,2.0859375 0,1.4428319 -0.571565,1.7839653 -1.445312,2.5703129 -0.873748,0.786347 -1.964844,1.984504 -1.964844,4.248047 a 0.78500003,0.78500003 0 0 0 0.785156,0.785156 0.78500003,0.78500003 0 0 0 0.785157,-0.785156 c 0,-1.827454 0.614561,-2.33438 1.445312,-3.082032 0.830751,-0.747651 1.964844,-1.770163 1.964844,-3.7363279 0,-1.3988321 -0.582047,-2.5473789 -1.449219,-3.2832031 C 13.869156,4.0610508 12.754414,3.7148438 11.650391,3.7148438 Z m 0.322265,14.5000002 a 0.78500003,0.78500003 0 0 0 -0.542968,0.255859 l -0.0098,0.01172 a 0.78500003,0.78500003 0 0 0 0.05273,1.109375 0.78500003,0.78500003 0 0 0 1.107422,-0.05469 l 0.01172,-0.0098 a 0.78500003,0.78500003 0 0 0 -0.05469,-1.109375 0.78500003,0.78500003 0 0 0 -0.564453,-0.203125 z"
     id="path11231" />
</svg>
