<?xml version="1.0" encoding="UTF-8" standalone="no"?>
<svg
   width="24px"
   height="24px"
   stroke-width="1.57"
   viewBox="0 0 24 24"
   fill="none"
   color="#000000"
   version="1.1"
   id="svg13655"
   sodipodi:docname="lock.svg"
   inkscape:version="1.2.1 (9c6d41e410, 2022-07-14, custom)"
   xmlns:inkscape="http://www.inkscape.org/namespaces/inkscape"
   xmlns:sodipodi="http://sodipodi.sourceforge.net/DTD/sodipodi-0.dtd"
   xmlns="http://www.w3.org/2000/svg"
   xmlns:svg="http://www.w3.org/2000/svg">
  <defs
     id="defs13659" />
  <sodipodi:namedview
     id="namedview13657"
     pagecolor="#505050"
     bordercolor="#eeeeee"
     borderopacity="1"
     inkscape:showpageshadow="0"
     inkscape:pageopacity="0"
     inkscape:pagecheckerboard="0"
     inkscape:deskcolor="#505050"
     showgrid="false"
     inkscape:zoom="9.8333333"
     inkscape:cx="12"
     inkscape:cy="12.050847"
     inkscape:window-width="2560"
     inkscape:window-height="1377"
     inkscape:window-x="2560"
     inkscape:window-y="0"
     inkscape:window-maximized="1"
     inkscape:current-layer="svg13655" />
  <path
     style="color:#000000;fill:#000000;stroke-linecap:round;stroke-linejoin:round;-inkscape-stroke:none"
     d="M 12,3.2148438 C 10.181919,3.2148437 8.8877594,4.033118 8.1621094,5.0410156 7.4364594,6.0489132 7.2148437,7.1764616 7.2148437,8 v 3.214844 H 6.5996094 c -0.7556156,0 -1.3847657,0.62915 -1.3847657,1.384765 v 6.800782 c 0,0.755615 0.6291501,1.384765 1.3847657,1.384765 H 17.400391 c 0.755615,0 1.384765,-0.62915 1.384765,-1.384765 v -6.800782 c 0,-0.755615 -0.62915,-1.384765 -1.384765,-1.384765 H 16.785156 V 8 c 0,-0.8235384 -0.221615,-1.9510868 -0.947265,-2.9589844 C 15.112241,4.033118 13.818081,3.2148437 12,3.2148438 Z m 0,1.5703124 c 1.381916,0 2.088151,0.5149774 2.5625,1.1738282 C 15.036849,6.6178351 15.214844,7.4905398 15.214844,8 v 3.214844 H 8.7851563 V 8 C 8.7851563,7.4905398 8.9631512,6.6178351 9.4375,5.9589844 9.9118488,5.3001336 10.618084,4.7851562 12,4.7851562 Z M 6.7851562,12.785156 H 8 h 8 1.214844 v 6.429688 H 6.7851562 Z"
     id="path13653" />
</svg>
