<?xml version="1.0" encoding="UTF-8" standalone="no"?>
<svg
   width="24px"
   height="24px"
   stroke-width="1.57"
   viewBox="0 0 24 24"
   fill="none"
   color="#000000"
   version="1.1"
   id="svg3334"
   sodipodi:docname="menu.svg"
   inkscape:version="1.2.1 (9c6d41e410, 2022-07-14, custom)"
   xmlns:inkscape="http://www.inkscape.org/namespaces/inkscape"
   xmlns:sodipodi="http://sodipodi.sourceforge.net/DTD/sodipodi-0.dtd"
   xmlns="http://www.w3.org/2000/svg"
   xmlns:svg="http://www.w3.org/2000/svg">
  <defs
     id="defs3338" />
  <sodipodi:namedview
     id="namedview3336"
     pagecolor="#505050"
     bordercolor="#eeeeee"
     borderopacity="1"
     inkscape:showpageshadow="0"
     inkscape:pageopacity="0"
     inkscape:pagecheckerboard="0"
     inkscape:deskcolor="#505050"
     showgrid="false"
     inkscape:zoom="9.8333333"
     inkscape:cx="12"
     inkscape:cy="12.050847"
     inkscape:window-width="2560"
     inkscape:window-height="1377"
     inkscape:window-x="2560"
     inkscape:window-y="0"
     inkscape:window-maximized="1"
     inkscape:current-layer="svg3334" />
  <path
     style="color:#000000;fill:#000000;stroke-linecap:round;stroke-linejoin:round;-inkscape-stroke:none"
     d="M 3,4.2148437 A 0.78500003,0.78500003 0 0 0 2.2148438,5 0.78500003,0.78500003 0 0 0 3,5.7851562 H 21 A 0.78500003,0.78500003 0 0 0 21.785156,5 0.78500003,0.78500003 0 0 0 21,4.2148437 Z M 3,11.214844 A 0.78500003,0.78500003 0 0 0 2.2148438,12 0.78500003,0.78500003 0 0 0 3,12.785156 H 21 A 0.78500003,0.78500003 0 0 0 21.785156,12 0.78500003,0.78500003 0 0 0 21,11.214844 Z m 0,7 A 0.78500003,0.78500003 0 0 0 2.2148438,19 0.78500003,0.78500003 0 0 0 3,19.785156 H 21 A 0.78500003,0.78500003 0 0 0 21.785156,19 0.78500003,0.78500003 0 0 0 21,18.214844 Z"
     id="path3332" />
</svg>
