<?xml version="1.0" encoding="UTF-8" standalone="no"?>
<svg
   width="24px"
   height="24px"
   stroke-width="1.57"
   viewBox="0 0 24 24"
   fill="none"
   color="#000000"
   version="1.1"
   id="svg6644"
   sodipodi:docname="music-2.svg"
   inkscape:version="1.2.1 (9c6d41e410, 2022-07-14, custom)"
   xmlns:inkscape="http://www.inkscape.org/namespaces/inkscape"
   xmlns:sodipodi="http://sodipodi.sourceforge.net/DTD/sodipodi-0.dtd"
   xmlns="http://www.w3.org/2000/svg"
   xmlns:svg="http://www.w3.org/2000/svg">
  <defs
     id="defs6648" />
  <sodipodi:namedview
     id="namedview6646"
     pagecolor="#505050"
     bordercolor="#eeeeee"
     borderopacity="1"
     inkscape:showpageshadow="0"
     inkscape:pageopacity="0"
     inkscape:pagecheckerboard="0"
     inkscape:deskcolor="#505050"
     showgrid="false"
     inkscape:zoom="9.8333333"
     inkscape:cx="12"
     inkscape:cy="12.050847"
     inkscape:window-width="2560"
     inkscape:window-height="1377"
     inkscape:window-x="2560"
     inkscape:window-y="0"
     inkscape:window-maximized="1"
     inkscape:current-layer="svg6644" />
  <path
     style="color:#000000;fill:#000000;stroke-linecap:round;stroke-linejoin:round;-inkscape-stroke:none"
     d="m 16.845703,2.2304688 -5,1 A 0.78507853,0.78507853 0 0 0 11.214844,4 v 4 7.214844 H 9 c -1.5288135,0 -2.7851562,1.256343 -2.7851563,2.785156 v 1 c 0,1.528813 1.2563428,2.785156 2.7851563,2.785156 h 1 c 1.528813,0 2.785156,-1.256343 2.785156,-2.785156 V 16 8.6425781 L 17.154297,7.7695312 A 0.78507853,0.78507853 0 0 0 17.785156,7 V 3 A 0.78507853,0.78507853 0 0 0 16.845703,2.2304688 Z M 16.214844,3.9570313 V 6.3574219 L 12.785156,7.0429687 V 4.6425781 Z M 9,16.785156 h 2.214844 V 19 c 0,0.680323 -0.534521,1.214844 -1.214844,1.214844 H 9 C 8.3196767,20.214844 7.7851563,19.680323 7.7851562,19 v -1 c 0,-0.680323 0.5345205,-1.214844 1.2148438,-1.214844 z"
     id="path6642" />
</svg>
