<?xml version="1.0" encoding="UTF-8" standalone="no"?>
<svg
   width="24px"
   height="24px"
   stroke-width="1.57"
   viewBox="0 0 24 24"
   fill="none"
   color="#000000"
   version="1.1"
   id="svg6506"
   sodipodi:docname="music-1.svg"
   inkscape:version="1.2.1 (9c6d41e410, 2022-07-14, custom)"
   xmlns:inkscape="http://www.inkscape.org/namespaces/inkscape"
   xmlns:sodipodi="http://sodipodi.sourceforge.net/DTD/sodipodi-0.dtd"
   xmlns="http://www.w3.org/2000/svg"
   xmlns:svg="http://www.w3.org/2000/svg">
  <defs
     id="defs6510" />
  <sodipodi:namedview
     id="namedview6508"
     pagecolor="#505050"
     bordercolor="#eeeeee"
     borderopacity="1"
     inkscape:showpageshadow="0"
     inkscape:pageopacity="0"
     inkscape:pagecheckerboard="0"
     inkscape:deskcolor="#505050"
     showgrid="false"
     inkscape:zoom="9.8333333"
     inkscape:cx="12"
     inkscape:cy="12.050847"
     inkscape:window-width="2560"
     inkscape:window-height="1377"
     inkscape:window-x="2560"
     inkscape:window-y="0"
     inkscape:window-maximized="1"
     inkscape:current-layer="svg6506" />
  <path
     style="color:#000000;fill:#000000;stroke-linecap:round;stroke-linejoin:round;-inkscape-stroke:none"
     d="m 19.859375,2.2285156 -11,2 A 0.78507853,0.78507853 0 0 0 8.2148438,5 V 16 A 0.78500003,0.78500003 0 0 0 9,16.785156 0.78500003,0.78500003 0 0 0 9.7851563,16 V 5.6542969 L 19.214844,3.9394531 V 14 A 0.78500003,0.78500003 0 0 0 20,14.785156 0.78500003,0.78500003 0 0 0 20.785156,14 V 3 A 0.78507853,0.78507853 0 0 0 19.859375,2.2285156 Z"
     id="path6502" />
  <path
     style="color:#000000;fill:#000000;stroke-linecap:round;stroke-linejoin:round;-inkscape-stroke:none"
     d="m 17,13.214844 c -1.528813,0 -2.785156,1.256343 -2.785156,2.785156 v 1 c 0,1.528813 1.256343,2.785156 2.785156,2.785156 h 1 c 1.528813,0 2.785156,-1.256343 2.785156,-2.785156 V 14 A 0.78507853,0.78507853 0 0 0 20,13.214844 Z m 0,1.570312 h 2.214844 V 17 c 0,0.680323 -0.534521,1.214844 -1.214844,1.214844 h -1 c -0.680323,0 -1.214844,-0.534521 -1.214844,-1.214844 v -1 c 0,-0.680323 0.534521,-1.214844 1.214844,-1.214844 z M 6,15.214844 c -1.5288135,0 -2.7851562,1.256343 -2.7851562,2.785156 v 1 c 0,1.528813 1.2563427,2.785156 2.7851562,2.785156 h 1 c 1.5288135,0 2.7851563,-1.256343 2.7851563,-2.785156 V 16 A 0.78507853,0.78507853 0 0 0 9,15.214844 Z m 0,1.570312 H 8.2148438 V 19 c 0,0.680323 -0.5345205,1.214844 -1.2148438,1.214844 H 6 C 5.3196767,20.214844 4.7851563,19.680323 4.7851562,19 v -1 c 0,-0.680323 0.5345205,-1.214844 1.2148438,-1.214844 z"
     id="path6504" />
</svg>
