<?xml version="1.0" encoding="UTF-8" standalone="no"?>
<svg
   width="24px"
   height="24px"
   viewBox="0 0 24 24"
   stroke-width="1.57"
   fill="none"
   color="#000000"
   version="1.1"
   id="svg12194"
   sodipodi:docname="design-nib.svg"
   inkscape:version="1.2.1 (9c6d41e410, 2022-07-14, custom)"
   xmlns:inkscape="http://www.inkscape.org/namespaces/inkscape"
   xmlns:sodipodi="http://sodipodi.sourceforge.net/DTD/sodipodi-0.dtd"
   xmlns="http://www.w3.org/2000/svg"
   xmlns:svg="http://www.w3.org/2000/svg">
  <sodipodi:namedview
     id="namedview12196"
     pagecolor="#505050"
     bordercolor="#eeeeee"
     borderopacity="1"
     inkscape:showpageshadow="0"
     inkscape:pageopacity="0"
     inkscape:pagecheckerboard="0"
     inkscape:deskcolor="#505050"
     showgrid="false"
     inkscape:zoom="9.8333333"
     inkscape:cx="12"
     inkscape:cy="12.050847"
     inkscape:window-width="2560"
     inkscape:window-height="1377"
     inkscape:window-x="2560"
     inkscape:window-y="0"
     inkscape:window-maximized="1"
     inkscape:current-layer="svg12194" />
  <g
     clip-path="url(#design-nib_svg__clip0_2585_14438)"
     stroke="#000000"
     stroke-width="1.57"
     stroke-linecap="round"
     stroke-linejoin="round"
     id="g12187"
     style="stroke:none">
    <path
       style="color:#000000;fill:#000000;-inkscape-stroke:none;stroke:none"
       d="M 12.171875,5.5332031 6.7851562,7.75 C 6.4140975,7.9034576 6.126789,8.2127534 6,8.59375 L 2.2089844,19.966797 c -0.3399379,1.019254 0.6770489,2.071522 1.7070312,1.765625 L 15.59375,18.261719 a 0.78507853,0.78507853 0 0 0 0.002,0 c 0.432544,-0.128987 0.775804,-0.462231 0.917969,-0.890625 l 1.904297,-5.714844 c 0.166287,-0.496799 0.03672,-1.047777 -0.333985,-1.417969 L 13.679688,5.8320312 C 13.285505,5.4384076 12.686754,5.3205565 12.171875,5.5332031 Z m 0.486328,1.4980469 4.236328,4.236328 -1.839843,5.515625 -9.7187505,2.888672 4.8789065,-4.878906 a 0.78500003,0.78500003 0 0 0 0,-1.109375 0.78500003,0.78500003 0 0 0 -1.1093752,0 L 4.3847656,18.404297 7.4648437,9.1679688 Z"
       id="path12183" />
    <path
       style="color:#000000;fill:#000000;-inkscape-stroke:none;stroke:none"
       d="m 17.085937,1.9101562 c -0.714565,10e-8 -1.430143,0.2717217 -1.970703,0.8125001 l -2.828125,2.8281249 a 0.78500003,0.78500003 0 0 0 0,1.1113282 0.78500003,0.78500003 0 0 0 1.111329,-0.00195 l 2.828124,-2.8281249 c 0.481108,-0.481303 1.237643,-0.481303 1.71875,0 l 2.119141,2.1210937 c 0.480881,0.4810263 0.480881,1.2377237 0,1.71875 l -2.828125,2.830078 a 0.78500003,0.78500003 0 0 0 0,1.109375 0.78500003,0.78500003 0 0 0 1.111328,0 L 21.175781,8.78125 c 1.080645,-1.0809715 1.080645,-2.8565285 0,-3.9375 L 19.054687,2.7226563 C 18.514128,2.1818779 17.800503,1.9101562 17.085937,1.9101562 Z m -6.478515,8.9589848 c -0.591852,0.03495 -1.11546,0.30473 -1.5039064,0.693359 -0.3884463,0.388629 -0.6567303,0.910085 -0.6914062,1.501953 -0.034676,0.591868 0.2008909,1.236279 0.6933594,1.728516 0.4924684,0.492236 1.1366642,0.728314 1.7285152,0.693359 0.591852,-0.03496 1.113507,-0.30473 1.501954,-0.693359 0.388446,-0.38863 0.658683,-0.912039 0.693359,-1.503906 0.03468,-0.591868 -0.200891,-1.23628 -0.693359,-1.728516 -0.492469,-0.492237 -1.136665,-0.726361 -1.728516,-0.691406 z m 0.0918,1.566406 c 0.159502,-0.0094 0.31248,0.02157 0.527344,0.236328 0.214863,0.214763 0.24372,0.365884 0.234375,0.525391 -0.0093,0.159506 -0.09257,0.342505 -0.234375,0.484375 -0.141804,0.14187 -0.326827,0.226908 -0.486329,0.236328 -0.159501,0.0094 -0.310526,-0.01961 -0.52539,-0.234375 -0.2148641,-0.214763 -0.2456734,-0.367838 -0.2363284,-0.527344 0.00935,-0.159506 0.094525,-0.342505 0.2363284,-0.484375 0.141803,-0.14187 0.324873,-0.226908 0.484375,-0.236328 z"
       id="path12185" />
  </g>
  <defs
     id="defs12192">
    <clipPath
       id="design-nib_svg__clip0_2585_14438">
      <path
         fill="#fff"
         d="M0 0h24v24H0z"
         id="path12189" />
    </clipPath>
  </defs>
</svg>
