<?xml version="1.0" encoding="UTF-8" standalone="no"?>
<svg
   width="24px"
   height="24px"
   stroke-width="1.57"
   viewBox="0 0 24 24"
   fill="none"
   color="#000000"
   version="1.1"
   id="svg7054"
   sodipodi:docname="edit-pencil(1).svg"
   inkscape:version="1.2.1 (9c6d41e410, 2022-07-14, custom)"
   xmlns:inkscape="http://www.inkscape.org/namespaces/inkscape"
   xmlns:sodipodi="http://sodipodi.sourceforge.net/DTD/sodipodi-0.dtd"
   xmlns="http://www.w3.org/2000/svg"
   xmlns:svg="http://www.w3.org/2000/svg">
  <defs
     id="defs7058" />
  <sodipodi:namedview
     id="namedview7056"
     pagecolor="#505050"
     bordercolor="#eeeeee"
     borderopacity="1"
     inkscape:showpageshadow="0"
     inkscape:pageopacity="0"
     inkscape:pagecheckerboard="0"
     inkscape:deskcolor="#505050"
     showgrid="false"
     inkscape:zoom="9.8333333"
     inkscape:cx="12"
     inkscape:cy="12.050847"
     inkscape:window-width="2560"
     inkscape:window-height="1377"
     inkscape:window-x="2560"
     inkscape:window-y="0"
     inkscape:window-maximized="1"
     inkscape:current-layer="svg7054" />
  <path
     style="color:#000000;fill:#000000;stroke-linecap:round;stroke-linejoin:round;-inkscape-stroke:none"
     d="m 15.294922,2.4453125 -2.830078,2.828125 -9.605469,9.6074215 c -0.3337354,0.334336 -0.5233366,0.789272 -0.5234375,1.261719 v 4.535156 a 0.78507853,0.78507853 0 0 0 0.7851563,0.785157 H 7.65625 c 0.4730708,-1.01e-4 0.9292108,-0.188876 1.2636719,-0.523438 l 9.6054691,-9.605469 2.828125,-2.8281246 a 0.78507853,0.78507853 0 0 0 0,-1.1113282 L 16.404297,2.4453125 a 0.78507853,0.78507853 0 0 0 -1.109375,0 z M 15.849609,4.109375 19.6875,7.9492187 17.970703,9.6679688 14.128906,5.828125 Z m -2.830078,2.828125 3.839844,3.839844 -9.0507813,9.052734 c -0.040524,0.04054 -0.095025,0.06249 -0.1523437,0.0625 h -3.75 v -3.75 c 1.22e-5,-0.05732 0.021964,-0.11182 0.0625,-0.152344 z"
     id="path7052" />
</svg>
