<?xml version="1.0" encoding="UTF-8" standalone="no"?>
<svg
   width="24px"
   height="24px"
   viewBox="0 0 24 24"
   stroke-width="1.57"
   fill="none"
   color="#000000"
   version="1.1"
   id="svg6912"
   sodipodi:docname="mdk-piano-roll-symbolic.svg"
   inkscape:version="1.2.1 (9c6d41e410, 2022-07-14, custom)"
   xmlns:inkscape="http://www.inkscape.org/namespaces/inkscape"
   xmlns:sodipodi="http://sodipodi.sourceforge.net/DTD/sodipodi-0.dtd"
   xmlns="http://www.w3.org/2000/svg"
   xmlns:svg="http://www.w3.org/2000/svg">
  <defs
     id="defs6916" />
  <sodipodi:namedview
     id="namedview6914"
     pagecolor="#505050"
     bordercolor="#eeeeee"
     borderopacity="1"
     inkscape:showpageshadow="0"
     inkscape:pageopacity="0"
     inkscape:pagecheckerboard="0"
     inkscape:deskcolor="#505050"
     showgrid="false"
     inkscape:zoom="19.666667"
     inkscape:cx="21.254237"
     inkscape:cy="9.8898306"
     inkscape:window-width="2560"
     inkscape:window-height="1377"
     inkscape:window-x="2560"
     inkscape:window-y="0"
     inkscape:window-maximized="1"
     inkscape:current-layer="svg6912" />
  <path
     style="color:#000000;fill:#000000"
     d="m 3.5996094,2.2148438 c -0.7556156,0 -1.3847656,0.62915 -1.3847656,1.384766 V 20.400391 c -1e-7,0.755615 0.62915,1.384765 1.3847656,1.384765 H 20.400391 c 0.755615,0 1.384765,-0.62915 1.384765,-1.384765 V 3.5996098 c 0,-0.755616 -0.62915,-1.384766 -1.384765,-1.384766 z m 0.1855469,1.570313 H 20.214844 V 20.214844 H 3.7851563 Z"
     id="path6908" />
  <g
     id="path391">
    <path
       style="color:#000000;fill:#000000;stroke-width:1.6;stroke-linecap:round"
       d="M 3.7851563,9.005 H 20.214844"
       id="path1101" />
    <path
       style="color:#000000;fill:#000000;stroke-linecap:round"
       d="M 3.7851563,8.2050781 A 0.80000001,0.80000001 0 0 0 2.984375,9.0058594 0.80000001,0.80000001 0 0 0 3.7851563,9.8046875 H 20.214844 A 0.80000001,0.80000001 0 0 0 21.015625,9.0058594 0.80000001,0.80000001 0 0 0 20.214844,8.2050781 Z"
       id="path1103" />
  </g>
  <g
     id="path442">
    <path
       style="color:#000000;fill:#000000;stroke-width:1.6;stroke-linecap:round"
       d="M 3.7851563,14.995 H 20.214844"
       id="path1107" />
    <path
       style="color:#000000;fill:#000000;stroke-linecap:round"
       d="M 3.7851563,14.195313 A 0.80000001,0.80000001 0 0 0 2.984375,14.994141 0.80000001,0.80000001 0 0 0 3.7851563,15.794922 H 20.214844 a 0.80000001,0.80000001 0 0 0 0.800781,-0.800781 0.80000001,0.80000001 0 0 0 -0.800781,-0.798828 z"
       id="path1109" />
  </g>
  <path
     style="color:#000000;fill:#000000;stroke-width:1.53021;stroke-linecap:round;stroke-linejoin:round;-inkscape-stroke:none"
     d="M 3.78125,13.073873 C 3.3186381,13.0742 2.9437029,13.43037 2.9433594,13.869831 v 2.250572 c 3.435e-4,0.43946 0.3752787,0.795632 0.8378906,0.795958 h 8.179688 c 0.463374,6.98e-4 0.839499,-0.355773 0.839843,-0.795958 v -2.250572 c -3.44e-4,-0.440185 -0.376469,-0.796656 -0.839843,-0.795958 z"
     id="rect1090"
     sodipodi:nodetypes="ccccccccc" />
  <path
     style="color:#000000;fill:#000000;stroke-width:1.53021;stroke-linecap:round;stroke-linejoin:round;-inkscape-stroke:none"
     d="m 3.78125,7.0836388 c -0.4626119,3.27e-4 -0.8375471,0.356497 -0.8378906,0.795958 V 10.13017 c 3.435e-4,0.439459 0.3752787,0.795631 0.8378906,0.795957 h 8.179688 c 0.463374,6.98e-4 0.839499,-0.355773 0.839843,-0.795957 V 7.8795968 c -3.44e-4,-0.440185 -0.376469,-0.796656 -0.839843,-0.795958 z"
     id="path405"
     sodipodi:nodetypes="ccccccccc" />
</svg>
