<?xml version="1.0" encoding="UTF-8" standalone="no"?>
<svg
   width="24px"
   height="24px"
   viewBox="0 0 24 24"
   stroke-width="1.57"
   fill="none"
   color="#000000"
   version="1.1"
   id="svg4516"
   sodipodi:docname="wrench.svg"
   inkscape:version="1.2.1 (9c6d41e410, 2022-07-14, custom)"
   xmlns:inkscape="http://www.inkscape.org/namespaces/inkscape"
   xmlns:sodipodi="http://sodipodi.sourceforge.net/DTD/sodipodi-0.dtd"
   xmlns="http://www.w3.org/2000/svg"
   xmlns:svg="http://www.w3.org/2000/svg">
  <sodipodi:namedview
     id="namedview4518"
     pagecolor="#505050"
     bordercolor="#eeeeee"
     borderopacity="1"
     inkscape:showpageshadow="0"
     inkscape:pageopacity="0"
     inkscape:pagecheckerboard="0"
     inkscape:deskcolor="#505050"
     showgrid="false"
     inkscape:zoom="9.8333333"
     inkscape:cx="5.5932203"
     inkscape:cy="12.050847"
     inkscape:window-width="2560"
     inkscape:window-height="1377"
     inkscape:window-x="2560"
     inkscape:window-y="0"
     inkscape:window-maximized="1"
     inkscape:current-layer="svg4516" />
  <g
     clip-path="url(#wrench_svg__clip0_2576_14436)"
     stroke="#000000"
     stroke-width="1.57"
     stroke-linecap="round"
     stroke-linejoin="round"
     id="g4509"
     style="stroke:none">
    <path
       style="color:#000000;fill:#000000;-inkscape-stroke:none;stroke:none"
       d="M 16.396484,1.5214844 C 15.735386,1.4227964 15.037858,1.4307872 14.345703,1.53125 12.961394,1.7321756 11.5751,2.3135718 10.554688,3.3339844 8.6729464,5.2168076 8.4519053,8.0410261 9.1835938,10.363281 l -6.7578125,6.757813 c -1.0824689,1.081265 -1.0824689,2.860141 0,3.941406 1.0809715,1.080645 2.8565284,1.080645 3.9374999,0 l 6.7597658,-6.761719 c 2.321793,0.73094 5.145171,0.511079 7.027344,-1.371093 1.0205,-1.019915 1.601657,-2.406766 1.802734,-3.7910161 0.201077,-1.3842502 0.03538,-2.787336 -0.625,-3.8867188 A 0.78507853,0.78507853 0 0 0 20.101562,5.1015625 l -2.839843,2.8398437 -1.888672,0.1718751 0.171875,-1.8906251 2.83789,-2.8378906 A 0.78507853,0.78507853 0 0 0 18.232422,2.15625 C 17.682781,1.8264034 17.057583,1.6201723 16.396484,1.5214844 Z m -1.826171,1.5644531 c 0.63485,-0.092145 1.10171,0.1297233 1.65039,0.2402344 l -1.988281,1.9882812 a 0.78507853,0.78507853 0 0 0 -0.226563,0.484375 l -0.283203,3.109375 a 0.78507853,0.78507853 0 0 0 0.853516,0.8535157 L 17.6875,9.4804688 A 0.78507853,0.78507853 0 0 0 18.171875,9.2539063 L 20.158203,7.265625 c 0.110245,0.5481666 0.33429,1.0143877 0.242188,1.6484375 -0.159423,1.0974975 -0.639878,2.1852125 -1.359375,2.9042965 -1.457249,1.457249 -3.971526,1.632902 -5.875,0.886719 a 0.78500003,0.78500003 0 0 0 -0.07617,0.0332 0.78500003,0.78500003 0 0 0 -0.767578,0.142578 l -7.0703129,7.070313 c -0.4810917,0.479489 -1.236235,0.480417 -1.7167968,0 -0.4817252,-0.48119 -0.4817252,-1.237561 0,-1.71875 l 7.0585937,-7.060547 0.01172,-0.0098 a 0.78500003,0.78500003 0 0 0 0.0957,-0.142578 0.78500003,0.78500003 0 0 0 0.07031,-0.105468 0.78500003,0.78500003 0 0 0 0.04883,-0.230469 0.78500003,0.78500003 0 0 0 0.01367,-0.0625 0.78500003,0.78500003 0 0 0 0,-0.002 0.78500003,0.78500003 0 0 0 -0.03125,-0.179688 0.78500003,0.78500003 0 0 0 -0.02148,-0.11914 C 10.035097,8.4169146 10.209782,5.9004305 11.666016,4.4433594 12.385601,3.7237737 13.472624,3.2452615 14.570313,3.0859375 Z"
       id="path4507" />
  </g>
  <defs
     id="defs4514">
    <clipPath
       id="wrench_svg__clip0_2576_14436">
      <path
         fill="#fff"
         d="M0 0h24v24H0z"
         id="path4511" />
    </clipPath>
  </defs>
</svg>
