<?xml version="1.0" encoding="UTF-8" standalone="no"?>
<svg
   width="24px"
   height="24px"
   stroke-width="1.57"
   viewBox="0 0 24 24"
   fill="none"
   color="#000000"
   version="1.1"
   id="svg8"
   sodipodi:docname="meadowlark-redo-symbolic.svg"
   inkscape:version="1.2.1 (9c6d41e410, 2022-07-14, custom)"
   xmlns:inkscape="http://www.inkscape.org/namespaces/inkscape"
   xmlns:sodipodi="http://sodipodi.sourceforge.net/DTD/sodipodi-0.dtd"
   xmlns="http://www.w3.org/2000/svg"
   xmlns:svg="http://www.w3.org/2000/svg">
  <defs
     id="defs12" />
  <sodipodi:namedview
     id="namedview10"
     pagecolor="#505050"
     bordercolor="#eeeeee"
     borderopacity="1"
     inkscape:showpageshadow="0"
     inkscape:pageopacity="0"
     inkscape:pagecheckerboard="0"
     inkscape:deskcolor="#505050"
     showgrid="false"
     inkscape:zoom="9.8333333"
     inkscape:cx="12"
     inkscape:cy="12"
     inkscape:window-width="2560"
     inkscape:window-height="1374"
     inkscape:window-x="2560"
     inkscape:window-y="0"
     inkscape:window-maximized="1"
     inkscape:current-layer="svg8" />
  <path
     style="color:#000000;fill:#000000;stroke-linecap:round;stroke-linejoin:round;-inkscape-stroke:none"
     d="m 9.8007813,9.8398438 c 0,0 -0.8794642,-0.00912 -1.7714844,0.4687502 -0.8920202,0.477868 -1.8144532,1.572186 -1.8144532,3.316406 0,1.904585 0.8811385,3.083699 1.7792969,3.625 0.8981585,0.541301 1.8066407,0.535156 1.8066407,0.535156 H 10.599609 A 0.78500003,0.78500003 0 0 0 11.384766,17 0.78500003,0.78500003 0 0 0 10.599609,16.214844 H 9.8007813 c 0,0 -0.4942536,-0.0061 -0.9960938,-0.308594 C 8.3028473,15.603802 7.7851562,15.095412 7.7851562,13.625 c 0,-1.255777 0.4783498,-1.661462 0.9863282,-1.933594 0.5079784,-0.272131 1.0292969,-0.28125 1.0292969,-0.28125 H 17 A 0.78500003,0.78500003 0 0 0 17.785156,10.625 0.78500003,0.78500003 0 0 0 17,9.8398438 Z"
     id="path2" />
  <path
     style="color:#000000;fill:#000000;stroke-linecap:round;stroke-linejoin:round;-inkscape-stroke:none"
     d="m 13.513672,6.2148437 a 0.78500003,0.78500003 0 0 0 -0.558594,0.2207032 0.78500003,0.78500003 0 0 0 -0.01953,1.109375 l 2.955078,3.0605471 -2.935547,2.830078 a 0.78500003,0.78500003 0 0 0 -0.01953,1.109375 0.78500003,0.78500003 0 0 0 1.109375,0.01953 l 3.5,-3.375 a 0.78507853,0.78507853 0 0 0 0.01953,-1.109375 l -3.5,-3.6249999 A 0.78500003,0.78500003 0 0 0 13.513672,6.2148437 Z"
     id="path4" />
  <path
     style="color:#000000;fill:#000000;stroke-linecap:round;stroke-linejoin:round;-inkscape-stroke:none"
     d="M 12,1.2148437 C 6.0527866,1.2148437 1.2148437,6.0527866 1.2148437,12 1.2148437,17.947213 6.0527866,22.785156 12,22.785156 17.947213,22.785156 22.785156,17.947213 22.785156,12 22.785156,6.0527866 17.947213,1.2148437 12,1.2148437 Z m 0,1.5703126 c 5.098776,0 9.214844,4.1160681 9.214844,9.2148437 0,5.098776 -4.116068,9.214844 -9.214844,9.214844 C 6.9012244,21.214844 2.7851563,17.098776 2.7851563,12 2.7851563,6.9012244 6.9012244,2.7851563 12,2.7851563 Z"
     id="path6" />
</svg>
