<?xml version="1.0" encoding="UTF-8" standalone="no"?>
<svg
   width="24px"
   height="24px"
   stroke-width="1.57"
   viewBox="0 0 24 24"
   fill="none"
   color="#000000"
   version="1.1"
   id="svg13925"
   sodipodi:docname="shuffle.svg"
   inkscape:version="1.2.1 (9c6d41e410, 2022-07-14, custom)"
   xmlns:inkscape="http://www.inkscape.org/namespaces/inkscape"
   xmlns:sodipodi="http://sodipodi.sourceforge.net/DTD/sodipodi-0.dtd"
   xmlns="http://www.w3.org/2000/svg"
   xmlns:svg="http://www.w3.org/2000/svg">
  <defs
     id="defs13929" />
  <sodipodi:namedview
     id="namedview13927"
     pagecolor="#505050"
     bordercolor="#eeeeee"
     borderopacity="1"
     inkscape:showpageshadow="0"
     inkscape:pageopacity="0"
     inkscape:pagecheckerboard="0"
     inkscape:deskcolor="#505050"
     showgrid="false"
     inkscape:zoom="9.8333333"
     inkscape:cx="12"
     inkscape:cy="12.050847"
     inkscape:window-width="2560"
     inkscape:window-height="1377"
     inkscape:window-x="2560"
     inkscape:window-y="0"
     inkscape:window-maximized="1"
     inkscape:current-layer="svg13925" />
  <path
     style="color:#000000;fill:#000000;stroke-linecap:round;stroke-linejoin:round;-inkscape-stroke:none"
     d="m 22,6.2148437 c -1.499999,0 -3.719206,-0.0126 -5.880859,0.7304688 C 13.957487,7.688381 11.840697,9.2652319 10.761719,12.232422 9.8263391,14.804716 8.4102749,15.964309 6.8378906,16.582031 5.2655063,17.199754 3.4999985,17.214844 2,17.214844 A 0.78500003,0.78500003 0 0 0 1.2148437,18 0.78500003,0.78500003 0 0 0 2,18.785156 c 1.4999985,0 3.4844972,0.01509 5.4121094,-0.742187 1.9276122,-0.757276 3.7615536,-2.347691 4.8261716,-5.275391 0.92102,-2.532804 2.554236,-3.7059604 4.392578,-4.3378905 C 18.469202,7.7977574 20.500001,7.7851563 22,7.7851562 A 0.78500003,0.78500003 0 0 0 22.785156,7 0.78500003,0.78500003 0 0 0 22,6.2148437 Z"
     id="path13919" />
  <path
     style="color:#000000;fill:#000000;stroke-linecap:round;stroke-linejoin:round;-inkscape-stroke:none"
     d="m 19.445312,4.4453125 a 0.78500003,0.78500003 0 0 0 0,1.109375 L 20.890625,7 19.445312,8.4453125 a 0.78500003,0.78500003 0 0 0 0,1.109375 0.78500003,0.78500003 0 0 0 1.109375,0 l 2,-2 a 0.78507853,0.78507853 0 0 0 0,-1.109375 l -2,-2 a 0.78500003,0.78500003 0 0 0 -1.109375,0 z M 2,6.2148437 A 0.78500003,0.78500003 0 0 0 1.2148437,7 0.78500003,0.78500003 0 0 0 2,7.7851562 c 1.4999985,0 3.2655063,0.01509 4.8378906,0.6328126 1.5723843,0.6177224 2.9884485,1.7773152 3.9238284,4.3496092 1.078978,2.96719 3.195768,4.544041 5.357422,5.287109 2.161653,0.743069 4.38086,0.730469 5.880859,0.730469 A 0.78500003,0.78500003 0 0 0 22.785156,18 0.78500003,0.78500003 0 0 0 22,17.214844 c -1.499999,0 -3.530798,-0.0126 -5.369141,-0.644532 -1.838342,-0.63193 -3.471558,-1.805086 -4.392578,-4.33789 C 11.173663,9.3047215 9.3397216,7.7143075 7.4121094,6.9570312 5.4844972,6.199755 3.4999985,6.2148437 2,6.2148437 Z"
     id="path13921" />
  <path
     style="color:#000000;fill:#000000;stroke-linecap:round;stroke-linejoin:round;-inkscape-stroke:none"
     d="m 19.445312,15.445313 a 0.78500003,0.78500003 0 0 0 0,1.109374 L 20.890625,18 19.445312,19.445312 a 0.78500003,0.78500003 0 0 0 0,1.109375 0.78500003,0.78500003 0 0 0 1.109375,0 l 2,-2 a 0.78507853,0.78507853 0 0 0 0,-1.109375 l -2,-1.999999 a 0.78500003,0.78500003 0 0 0 -1.109375,0 z"
     id="path13923" />
</svg>
