<?xml version="1.0" encoding="UTF-8" standalone="no"?>
<svg
   width="24px"
   height="24px"
   stroke-width="1.57"
   viewBox="0 0 24 24"
   fill="none"
   color="#000000"
   version="1.1"
   id="svg10414"
   sodipodi:docname="skip-prev-outline.svg"
   inkscape:version="1.2.1 (9c6d41e410, 2022-07-14, custom)"
   xmlns:inkscape="http://www.inkscape.org/namespaces/inkscape"
   xmlns:sodipodi="http://sodipodi.sourceforge.net/DTD/sodipodi-0.dtd"
   xmlns="http://www.w3.org/2000/svg"
   xmlns:svg="http://www.w3.org/2000/svg">
  <defs
     id="defs10418" />
  <sodipodi:namedview
     id="namedview10416"
     pagecolor="#505050"
     bordercolor="#eeeeee"
     borderopacity="1"
     inkscape:showpageshadow="0"
     inkscape:pageopacity="0"
     inkscape:pagecheckerboard="0"
     inkscape:deskcolor="#505050"
     showgrid="false"
     inkscape:zoom="9.8333333"
     inkscape:cx="12"
     inkscape:cy="12.050847"
     inkscape:window-width="2560"
     inkscape:window-height="1377"
     inkscape:window-x="2560"
     inkscape:window-y="0"
     inkscape:window-maximized="1"
     inkscape:current-layer="svg10414" />
  <path
     style="color:#000000;fill:#000000;stroke-linecap:round;stroke-linejoin:round;-inkscape-stroke:none"
     d="M 17.988281,4.5234375 C 17.535723,4.3041422 16.9747,4.3076888 16.541016,4.6503906 L 8.6113281,10.912109 c -0.6882484,0.543143 -0.6882484,1.632639 0,2.175782 l 7.9296879,6.259765 c 0.866675,0.684857 2.24274,0.02062 2.24414,-1.083984 a 0.78507853,0.78507853 0 0 0 0,-0.002 V 5.7382812 C 18.785376,5.1855365 18.44084,4.7427328 17.988281,4.5234375 Z M 17.214844,6.1191406 V 17.878906 L 9.7675781,12 Z M 6,6.2148437 A 0.78500003,0.78500003 0 0 0 5.2148437,7 V 17 A 0.78500003,0.78500003 0 0 0 6,17.785156 0.78500003,0.78500003 0 0 0 6.7851562,17 V 7 A 0.78500003,0.78500003 0 0 0 6,6.2148437 Z"
     id="path10412" />
</svg>
