<?xml version="1.0" encoding="UTF-8" standalone="no"?>
<svg
   width="24px"
   height="24px"
   stroke-width="1.57"
   viewBox="0 0 24 24"
   fill="none"
   color="#000000"
   version="1.1"
   id="svg4105"
   sodipodi:docname="undo.svg"
   inkscape:version="1.2.1 (9c6d41e410, 2022-07-14, custom)"
   xmlns:inkscape="http://www.inkscape.org/namespaces/inkscape"
   xmlns:sodipodi="http://sodipodi.sourceforge.net/DTD/sodipodi-0.dtd"
   xmlns="http://www.w3.org/2000/svg"
   xmlns:svg="http://www.w3.org/2000/svg">
  <defs
     id="defs4109" />
  <sodipodi:namedview
     id="namedview4107"
     pagecolor="#505050"
     bordercolor="#eeeeee"
     borderopacity="1"
     inkscape:showpageshadow="0"
     inkscape:pageopacity="0"
     inkscape:pagecheckerboard="0"
     inkscape:deskcolor="#505050"
     showgrid="false"
     inkscape:zoom="9.8333333"
     inkscape:cx="12"
     inkscape:cy="12.050847"
     inkscape:window-width="2560"
     inkscape:window-height="1377"
     inkscape:window-x="2560"
     inkscape:window-y="0"
     inkscape:window-maximized="1"
     inkscape:current-layer="svg4105" />
  <path
     style="color:#000000;fill:#000000;stroke-linecap:round;stroke-linejoin:round;-inkscape-stroke:none"
     d="M 5,8.7148438 A 0.78500003,0.78500003 0 0 0 4.2148437,9.5 0.78500003,0.78500003 0 0 0 5,10.285156 h 10 c 0.081,0 0.91601,0.01237 1.703125,0.414063 0.787115,0.401691 1.511719,1.051852 1.511719,2.800781 0,2.034734 -0.741685,2.81671 -1.5,3.259766 C 15.956529,17.202822 15.149,17.214844 15,17.214844 H 7 A 0.78500003,0.78500003 0 0 0 6.2148437,18 0.78500003,0.78500003 0 0 0 7,18.785156 h 8 c 0.149,0 1.340629,0.01202 2.507812,-0.669922 1.167184,-0.681943 2.277344,-2.149972 2.277344,-4.615234 0,-2.251067 -1.194804,-3.6009114 -2.367187,-4.1992187 C 16.245585,8.7024739 15.081,8.7148438 15,8.7148438 Z"
     id="path4101" />
  <path
     style="color:#000000;fill:#000000;stroke-linecap:round;stroke-linejoin:round;-inkscape-stroke:none"
     d="M 8.5,5.2148437 A 0.78500003,0.78500003 0 0 0 7.9453125,5.4453125 l -3.5,3.5 a 0.78507853,0.78507853 0 0 0 0,1.1093755 l 3.5,3.5 a 0.78500003,0.78500003 0 0 0 1.109375,0 0.78500003,0.78500003 0 0 0 0,-1.109375 L 6.109375,9.5 9.0546875,6.5546875 a 0.78500003,0.78500003 0 0 0 0,-1.109375 A 0.78500003,0.78500003 0 0 0 8.5,5.2148437 Z"
     id="path4103" />
</svg>
