<?xml version="1.0" encoding="UTF-8" standalone="no"?>
<svg
   width="24px"
   height="24px"
   viewBox="0 0 24 24"
   stroke-width="1.57"
   fill="none"
   color="#000000"
   version="1.1"
   id="svg5839"
   sodipodi:docname="remove-pin.svg"
   inkscape:version="1.2.1 (9c6d41e410, 2022-07-14, custom)"
   xmlns:inkscape="http://www.inkscape.org/namespaces/inkscape"
   xmlns:sodipodi="http://sodipodi.sourceforge.net/DTD/sodipodi-0.dtd"
   xmlns="http://www.w3.org/2000/svg"
   xmlns:svg="http://www.w3.org/2000/svg">
  <defs
     id="defs5843" />
  <sodipodi:namedview
     id="namedview5841"
     pagecolor="#505050"
     bordercolor="#eeeeee"
     borderopacity="1"
     inkscape:showpageshadow="0"
     inkscape:pageopacity="0"
     inkscape:pagecheckerboard="0"
     inkscape:deskcolor="#505050"
     showgrid="false"
     inkscape:zoom="9.8333333"
     inkscape:cx="12"
     inkscape:cy="12.050847"
     inkscape:window-width="2560"
     inkscape:window-height="1377"
     inkscape:window-x="2560"
     inkscape:window-y="0"
     inkscape:window-maximized="1"
     inkscape:current-layer="svg5839" />
  <path
     style="color:#000000;fill:#000000;stroke-linecap:round;stroke-linejoin:round;-inkscape-stroke:none"
     d="m 15.125,1.8867187 a 0.78507853,0.78507853 0 0 0 -0.566406,0.2773438 l -3.671875,4.328125 a 0.78500003,0.78500003 0 0 0 0.08984,1.1074219 0.78500003,0.78500003 0 0 0 1.107421,-0.091797 l 3.121094,-3.6777344 4.644531,4.6445313 -3.658203,3.1015626 a 0.78500003,0.78500003 0 0 0 -0.0918,1.107422 0.78500003,0.78500003 0 0 0 1.107422,0.08984 L 21.515625,9.1191406 A 0.78507853,0.78507853 0 0 0 21.5625,7.9667969 L 15.712891,2.1152344 A 0.78507853,0.78507853 0 0 0 15.125,1.8867187 Z M 3,2.2148438 a 0.78500003,0.78500003 0 0 0 -0.5546875,0.2304687 0.78500003,0.78500003 0 0 0 0,1.109375 l 3.6875,3.6875 -1.6875,1.6875 a 0.78507853,0.78507853 0 0 0 0,1.1113285 l 4.203125,4.201172 -6.203125,6.203124 a 0.78500003,0.78500003 0 0 0 0,1.109375 0.78500003,0.78500003 0 0 0 1.109375,0 l 6.203125,-6.203124 3.8808595,3.880859 a 0.78507853,0.78507853 0 0 0 1.109375,0 l 1.6875,-1.6875 4.009765,4.009765 a 0.78500003,0.78500003 0 0 0 1.109375,0 0.78500003,0.78500003 0 0 0 0,-1.109375 L 3.5546875,2.4453125 A 0.78500003,0.78500003 0 0 0 3,2.2148438 Z m 3.9882812,6.3925781 0.5683594,0.058594 7.4550784,7.4550784 0.05859,0.568359 -0.876954,0.878906 -8.083984,-8.083984 z"
     id="path5837" />
</svg>
