<?xml version="1.0" encoding="UTF-8" standalone="no"?>
<svg
   width="24px"
   height="24px"
   stroke-width="1.57"
   viewBox="0 0 24 24"
   fill="none"
   color="#000000"
   version="1.1"
   id="svg8545"
   sodipodi:docname="mdk-zoom-reset-symbolic.svg"
   inkscape:version="1.2.1 (9c6d41e410, 2022-07-14, custom)"
   xmlns:inkscape="http://www.inkscape.org/namespaces/inkscape"
   xmlns:sodipodi="http://sodipodi.sourceforge.net/DTD/sodipodi-0.dtd"
   xmlns="http://www.w3.org/2000/svg"
   xmlns:svg="http://www.w3.org/2000/svg">
  <defs
     id="defs8549" />
  <sodipodi:namedview
     id="namedview8547"
     pagecolor="#505050"
     bordercolor="#eeeeee"
     borderopacity="1"
     inkscape:showpageshadow="0"
     inkscape:pageopacity="0"
     inkscape:pagecheckerboard="0"
     inkscape:deskcolor="#505050"
     showgrid="false"
     inkscape:zoom="19.666667"
     inkscape:cx="10.169492"
     inkscape:cy="9.7372882"
     inkscape:window-width="2560"
     inkscape:window-height="1377"
     inkscape:window-x="2560"
     inkscape:window-y="0"
     inkscape:window-maximized="1"
     inkscape:current-layer="svg8545" />
  <path
     style="color:#000000;fill:#000000;stroke-linecap:round;stroke-linejoin:round;-inkscape-stroke:none"
     d="m 11,3.2148438 c -4.2902336,0 -7.7851562,3.4949194 -7.7851562,7.7851562 -1e-7,4.290237 3.4949226,7.785156 7.7851562,7.785156 1.858205,0 3.49942,-0.744051 4.839844,-1.835937 l 3.605468,3.605468 c 0.306472,0.30604 0.802903,0.30604 1.109375,0 0.30604,-0.306472 0.30604,-0.802903 0,-1.109375 L 16.949219,15.839844 C 18.041106,14.499421 18.785156,12.858207 18.785156,11 18.785156,6.7097632 15.290234,3.2148438 11,3.2148438 Z m 0,1.5703124 c 3.441745,0 6.214844,2.7730966 6.214844,6.2148438 0,3.441747 -2.773099,6.214844 -6.214844,6.214844 C 7.558255,17.214844 4.7851562,14.441747 4.7851562,11 4.7851562,7.5582528 7.558255,4.7851562 11,4.7851562 Z"
     id="path8543"
     sodipodi:nodetypes="ssscccccsssssss" />
  <path
     style="color:#000000;fill:#000000;stroke-linecap:round;-inkscape-stroke:none"
     d="M 8.2910156,8.0839844 A 0.80000001,0.80000001 0 0 0 7.4921875,8.8828125 v 4.1718755 a 0.80000001,0.80000001 0 0 0 0.7988281,0.798828 0.80000001,0.80000001 0 0 0 0.8007813,-0.798828 V 8.8828125 A 0.80000001,0.80000001 0 0 0 8.2910156,8.0839844 Z"
     id="path14866" />
  <path
     style="color:#000000;fill:#000000;stroke-linecap:round;-inkscape-stroke:none"
     d="m 13.396484,8.0839844 a 0.80000001,0.80000001 0 0 0 -0.798828,0.7988281 v 4.1718755 a 0.80000001,0.80000001 0 0 0 0.798828,0.798828 0.80000001,0.80000001 0 0 0 0.800782,-0.798828 V 8.8828125 A 0.80000001,0.80000001 0 0 0 13.396484,8.0839844 Z"
     id="path15231" />
  <circle
     style="fill:#000000;fill-opacity:1;stroke:none;stroke-width:0.519484;stroke-linecap:round;stroke-dasharray:none;stroke-opacity:1"
     id="path15285"
     cx="10.855099"
     cy="9.2905931"
     r="0.82071632" />
  <circle
     style="fill:#000000;fill-opacity:1;stroke:none;stroke-width:0.519484;stroke-linecap:round;stroke-dasharray:none;stroke-opacity:1"
     id="circle15287"
     cx="10.880523"
     cy="12.705275"
     r="0.82071632" />
</svg>
