<?xml version="1.0" encoding="UTF-8" standalone="no"?>
<svg
   width="22"
   height="22"
   viewBox="0 0 22 22"
   fill="none"
   stroke="currentColor"
   stroke-width="1.5"
   stroke-linecap="round"
   stroke-linejoin="round"
   class="icon icon-tabler icons-tabler-outline icon-tabler-vector-spline"
   version="1.1"
   id="svg4"
   sodipodi:docname="automation-24.svg"
   inkscape:version="1.4 (e7c3feb100, 2024-10-09)"
   xmlns:inkscape="http://www.inkscape.org/namespaces/inkscape"
   xmlns:sodipodi="http://sodipodi.sourceforge.net/DTD/sodipodi-0.dtd"
   xmlns="http://www.w3.org/2000/svg"
   xmlns:svg="http://www.w3.org/2000/svg">
  <defs
     id="defs4" />
  <sodipodi:namedview
     id="namedview4"
     pagecolor="#505050"
     bordercolor="#eeeeee"
     borderopacity="1"
     inkscape:showpageshadow="0"
     inkscape:pageopacity="0"
     inkscape:pagecheckerboard="0"
     inkscape:deskcolor="#505050"
     inkscape:zoom="17.530356"
     inkscape:cx="4.4209029"
     inkscape:cy="16.143426"
     inkscape:window-width="2560"
     inkscape:window-height="1376"
     inkscape:window-x="0"
     inkscape:window-y="0"
     inkscape:window-maximized="1"
     inkscape:current-layer="svg4" />
  <path
     stroke="none"
     d="M 0,0 H 22 V 22 H 0 Z"
     fill="none"
     id="path1"
     style="stroke-width:1.375" />
  <path
     d="m 15.583333,2.75 m 0,0.9166667 A 0.91666667,0.91666667 0 0 1 16.5,2.75 h 1.833333 A 0.91666667,0.91666667 0 0 1 19.25,3.6666667 V 5.5 A 0.91666667,0.91666667 0 0 1 18.333333,6.4166667 H 16.5 A 0.91666667,0.91666667 0 0 1 15.583333,5.5 Z"
     id="path2"
     style="stroke-width:1.5;stroke-dasharray:none" />
  <path
     d="M 2.75,15.583333 M 2.75,16.5 A 0.91666667,0.91666667 0 0 1 3.6666667,15.583333 H 5.5 A 0.91666667,0.91666667 0 0 1 6.4166667,16.5 v 1.833333 A 0.91666667,0.91666667 0 0 1 5.5,19.25 H 3.6666667 A 0.91666667,0.91666667 0 0 1 2.75,18.333333 Z"
     id="path3"
     style="stroke-width:1.5;stroke-dasharray:none" />
  <path
     d="m 15.583333,4.5833333 c -6.0747497,0 -10.9999997,4.92525 -10.9999997,10.9999997"
     id="path4"
     style="stroke-width:1.5;stroke-dasharray:none" />
</svg>
