<?xml version="1.0" encoding="UTF-8" standalone="no"?>
<svg
   width="24px"
   height="24px"
   stroke-width="1.57"
   viewBox="0 0 24 24"
   fill="none"
   color="#000000"
   version="1.1"
   id="svg4"
   sodipodi:docname="mdk-automation-symbolic2.svg"
   inkscape:version="1.2.1 (9c6d41e410, 2022-07-14, custom)"
   xmlns:inkscape="http://www.inkscape.org/namespaces/inkscape"
   xmlns:sodipodi="http://sodipodi.sourceforge.net/DTD/sodipodi-0.dtd"
   xmlns="http://www.w3.org/2000/svg"
   xmlns:svg="http://www.w3.org/2000/svg">
  <defs
     id="defs8" />
  <sodipodi:namedview
     id="namedview6"
     pagecolor="#505050"
     bordercolor="#eeeeee"
     borderopacity="1"
     inkscape:showpageshadow="0"
     inkscape:pageopacity="0"
     inkscape:pagecheckerboard="0"
     inkscape:deskcolor="#505050"
     showgrid="false"
     inkscape:zoom="13.906433"
     inkscape:cx="20.206475"
     inkscape:cy="2.6246845"
     inkscape:window-width="2560"
     inkscape:window-height="1377"
     inkscape:window-x="2560"
     inkscape:window-y="0"
     inkscape:window-maximized="1"
     inkscape:current-layer="svg4" />
  <path
     style="color:#000000;fill:#000000;stroke-linecap:round;stroke-linejoin:round;-inkscape-stroke:none"
     d="m 19.503906,2.5097656 c -0.674443,0 -1.359632,0.2200638 -1.896484,0.6972657 C 17.211441,3.5590139 16.975317,4.088192 16.847656,4.671875 15.028014,4.8777703 13.651548,5.7135686 12.867188,6.9746094 11.979487,8.4017942 11.610406,10.151747 11.234375,11.828125 10.858344,13.504503 10.475174,15.10793 9.7988281,16.195312 9.2202643,17.125488 8.3995693,17.634693 7.09375,17.789062 6.9423409,17.328008 6.7224082,16.912323 6.3925781,16.619141 5.8557259,16.141939 5.1705375,15.919922 4.4960937,15.919922 c -0.6744437,0 -1.3596321,0.222017 -1.8964843,0.699219 -0.5368523,0.477202 -0.8886719,1.223021 -0.8886719,2.085937 0,0.862916 0.3518196,1.610689 0.8886719,2.087891 0.5368522,0.477202 1.2220406,0.697265 1.8964843,0.697265 0.6744438,0 1.3596322,-0.220063 1.8964844,-0.697265 0.3959806,-0.351983 0.6321052,-0.881161 0.7597656,-1.464844 1.8196424,-0.205895 3.1961083,-1.041694 3.9804693,-2.302734 0.8877,-1.427185 1.256781,-3.177138 1.632812,-4.853516 0.376031,-1.676378 0.759201,-3.2798049 1.435547,-4.3671875 0.578564,-0.9301756 1.399259,-1.4393806 2.705078,-1.59375 0.151409,0.4610549 0.371342,0.8767397 0.701172,1.1699219 0.536852,0.4772018 1.222041,0.6992187 1.896484,0.6992187 0.674444,0 1.359632,-0.2220169 1.896485,-0.6992187 0.536852,-0.4772018 0.888672,-1.2230219 0.888671,-2.0859375 0,-0.8629156 -0.351819,-1.6106888 -0.888671,-2.0878906 C 20.863538,2.7298294 20.17835,2.5097656 19.503906,2.5097656 Z m 0,1.5703125 c 0.325556,0 0.640369,0.1113174 0.853516,0.3007813 0.213147,0.1894639 0.361328,0.4436467 0.361328,0.9140625 0,0.4704158 -0.148181,0.7226454 -0.361328,0.9121093 -0.213147,0.189464 -0.52796,0.3027344 -0.853516,0.3027344 -0.325555,0 -0.640368,-0.1132704 -0.853515,-0.3027344 -0.213147,-0.1894639 -0.361329,-0.4416935 -0.361329,-0.9121093 0,-0.4704158 0.148182,-0.7245986 0.361329,-0.9140625 0.213147,-0.1894639 0.52796,-0.3007813 0.853515,-0.3007813 z M 4.4960937,17.490234 c 0.3255553,0 0.6403687,0.113271 0.8535157,0.302735 0.213147,0.189464 0.3613281,0.441693 0.3613281,0.912109 0,0.470416 -0.1481811,0.724599 -0.3613281,0.914063 -0.213147,0.189464 -0.5279604,0.300781 -0.8535157,0.300781 -0.3255552,0 -0.6403686,-0.111317 -0.8535156,-0.300781 C 3.4294311,19.429677 3.28125,19.175494 3.28125,18.705078 c 0,-0.470416 0.1481811,-0.722645 0.3613281,-0.912109 0.213147,-0.189464 0.5279604,-0.302735 0.8535156,-0.302735 z"
     id="path2" />
</svg>
