<?xml version="1.0" encoding="UTF-8" standalone="no"?>
<svg
   width="22"
   height="22"
   viewBox="0 0 22 22"
   fill="none"
   stroke="currentColor"
   stroke-width="1.5"
   stroke-linecap="round"
   stroke-linejoin="round"
   class="icon icon-tabler icons-tabler-outline icon-tabler-columns-3"
   version="1.1"
   id="svg2"
   sodipodi:docname="clip-launcher-24.svg"
   inkscape:version="1.4 (e7c3feb100, 2024-10-09)"
   xmlns:inkscape="http://www.inkscape.org/namespaces/inkscape"
   xmlns:sodipodi="http://sodipodi.sourceforge.net/DTD/sodipodi-0.dtd"
   xmlns="http://www.w3.org/2000/svg"
   xmlns:svg="http://www.w3.org/2000/svg">
  <defs
     id="defs2" />
  <sodipodi:namedview
     id="namedview2"
     pagecolor="#505050"
     bordercolor="#eeeeee"
     borderopacity="1"
     inkscape:showpageshadow="0"
     inkscape:pageopacity="0"
     inkscape:pagecheckerboard="0"
     inkscape:deskcolor="#505050"
     inkscape:zoom="18.119612"
     inkscape:cx="-2.2351473"
     inkscape:cy="12.858995"
     inkscape:window-width="2560"
     inkscape:window-height="1376"
     inkscape:window-x="0"
     inkscape:window-y="0"
     inkscape:window-maximized="1"
     inkscape:current-layer="svg2" />
  <path
     stroke="none"
     d="M 0,0 H 22 V 22 H 0 Z"
     fill="none"
     id="path1"
     style="stroke-width:1.375" />
  <path
     id="path3"
     d="M 3.6666667,19.25 C 3.1604054,19.25 2.75,18.839595 2.75,18.333333 V 3.6666667 C 2.75,3.1604054 3.1604054,2.75 3.6666667,2.75 H 18.333333 C 18.839595,2.75 19.25,3.1604054 19.25,3.6666667 V 18.333333 C 19.25,18.839595 18.839595,19.25 18.333333,19.25 H 9.0133743 Z M 2.75,13.75 h 16.5 M 2.75,8.25 h 16.5 M 2.75,3.6666667 C 2.75,3.1604057 3.1604057,2.75 3.6666667,2.75 H 18.333333 C 18.839595,2.75 19.25,3.1604057 19.25,3.6666667 V 18.333333 C 19.25,18.839595 18.839595,19.25 18.333333,19.25 H 3.6666667 C 3.1604057,19.25 2.75,18.839595 2.75,18.333333 V 9.0133748 Z M 8.25,2.75 v 16.5 m 5.5,-16.5 v 16.5"
     style="stroke-width:1.5;stroke-dasharray:none" />
</svg>
