<?xml version="1.0" encoding="UTF-8" standalone="no"?>
<svg
   width="22"
   height="22"
   viewBox="0 0 22 22"
   fill="none"
   stroke="currentColor"
   stroke-width="1.5"
   stroke-linecap="round"
   stroke-linejoin="round"
   class="icon icon-tabler icons-tabler-outline icon-tabler-layout-cards"
   version="1.1"
   id="svg3"
   sodipodi:docname="clips-panel-24.svg"
   inkscape:version="1.4 (e7c3feb100, 2024-10-09)"
   xmlns:inkscape="http://www.inkscape.org/namespaces/inkscape"
   xmlns:sodipodi="http://sodipodi.sourceforge.net/DTD/sodipodi-0.dtd"
   xmlns="http://www.w3.org/2000/svg"
   xmlns:svg="http://www.w3.org/2000/svg">
  <defs
     id="defs3" />
  <sodipodi:namedview
     id="namedview3"
     pagecolor="#505050"
     bordercolor="#eeeeee"
     borderopacity="1"
     inkscape:showpageshadow="0"
     inkscape:pageopacity="0"
     inkscape:pagecheckerboard="0"
     inkscape:deskcolor="#505050"
     inkscape:zoom="18.119611"
     inkscape:cx="-1.5728814"
     inkscape:cy="9.7132327"
     inkscape:window-width="2560"
     inkscape:window-height="1376"
     inkscape:window-x="0"
     inkscape:window-y="0"
     inkscape:window-maximized="1"
     inkscape:current-layer="svg3" />
  <path
     stroke="none"
     d="M 0,0 H 22 V 22 H 0 Z"
     fill="none"
     id="path1"
     style="stroke-width:1.375" />
  <path
     d="m 3.6666667,18.333333 m 1.8333333,0 A 1.8333333,1.8333333 0 0 1 3.6666667,16.5 V 14.666667 A 1.8333333,1.8333333 0 0 1 5.5,12.833333 h 11 a 1.8333333,1.8333333 0 0 1 1.833333,1.833334 V 16.5 A 1.8333333,1.8333333 0 0 1 16.5,18.333333 Z"
     id="path2"
     style="stroke-width:1.5;stroke-dasharray:none" />
  <path
     d="m 3.6666667,9.1666667 m 1.8333333,0 A 1.8333333,1.8333333 0 0 1 3.6666667,7.3333333 V 5.5 A 1.8333333,1.8333333 0 0 1 5.5,3.6666667 H 11 A 1.8333333,1.8333333 0 0 1 12.833333,5.5 V 7.3333333 A 1.8333333,1.8333333 0 0 1 11,9.1666667 Z"
     id="path3"
     style="stroke-width:1.5;stroke-dasharray:none" />
</svg>
