<?xml version="1.0" encoding="UTF-8" standalone="no"?>
<svg
   width="24px"
   height="24px"
   stroke-width="1.57"
   viewBox="0 0 24 24"
   fill="none"
   color="#000000"
   version="1.1"
   id="svg13389"
   sodipodi:docname="compress.svg"
   inkscape:version="1.2.1 (9c6d41e410, 2022-07-14, custom)"
   xmlns:inkscape="http://www.inkscape.org/namespaces/inkscape"
   xmlns:sodipodi="http://sodipodi.sourceforge.net/DTD/sodipodi-0.dtd"
   xmlns="http://www.w3.org/2000/svg"
   xmlns:svg="http://www.w3.org/2000/svg">
  <defs
     id="defs13393" />
  <sodipodi:namedview
     id="namedview13391"
     pagecolor="#505050"
     bordercolor="#eeeeee"
     borderopacity="1"
     inkscape:showpageshadow="0"
     inkscape:pageopacity="0"
     inkscape:pagecheckerboard="0"
     inkscape:deskcolor="#505050"
     showgrid="false"
     inkscape:zoom="9.8333333"
     inkscape:cx="12"
     inkscape:cy="12.050847"
     inkscape:window-width="2560"
     inkscape:window-height="1377"
     inkscape:window-x="2560"
     inkscape:window-y="0"
     inkscape:window-maximized="1"
     inkscape:current-layer="svg13389" />
  <path
     style="color:#000000;fill:#000000;stroke-linecap:round;stroke-linejoin:round;-inkscape-stroke:none"
     d="M 12,1.2148437 A 0.78500003,0.78500003 0 0 0 11.214844,2 V 6.1054687 L 9.5546875,4.4453125 a 0.78500003,0.78500003 0 0 0 -1.109375,0 0.78500003,0.78500003 0 0 0 0,1.109375 l 3.0000005,3 A 0.78500003,0.78500003 0 0 0 12,8.7851563 0.78500003,0.78500003 0 0 0 12.554688,8.5546875 l 3,-3 a 0.78500003,0.78500003 0 0 0 0,-1.109375 0.78500003,0.78500003 0 0 0 -1.109375,0 L 12.785156,6.1054687 V 2 A 0.78500003,0.78500003 0 0 0 12,1.2148437 Z M 6,11.214844 A 0.78500003,0.78500003 0 0 0 5.2148437,12 0.78500003,0.78500003 0 0 0 6,12.785156 H 18 A 0.78500003,0.78500003 0 0 0 18.785156,12 0.78500003,0.78500003 0 0 0 18,11.214844 Z m 6,4 a 0.78500003,0.78500003 0 0 0 -0.554687,0.230469 l -3.0000005,2.999999 a 0.78500003,0.78500003 0 0 0 0,1.109375 0.78500003,0.78500003 0 0 0 1.109375,0 L 11.214844,17.894531 V 22 A 0.78500003,0.78500003 0 0 0 12,22.785156 0.78500003,0.78500003 0 0 0 12.785156,22 v -4.105469 l 1.660157,1.660156 a 0.78500003,0.78500003 0 0 0 1.109375,0 0.78500003,0.78500003 0 0 0 0,-1.109375 l -3,-2.999999 A 0.78500003,0.78500003 0 0 0 12,15.214844 Z"
     id="path13387" />
</svg>
