<?xml version="1.0" encoding="UTF-8" standalone="no"?>
<svg
   width="24px"
   height="24px"
   stroke-width="1.57"
   viewBox="0 0 24 24"
   fill="none"
   color="#000000"
   version="1.1"
   id="svg9616"
   sodipodi:docname="download.svg"
   inkscape:version="1.2.1 (9c6d41e410, 2022-07-14, custom)"
   xmlns:inkscape="http://www.inkscape.org/namespaces/inkscape"
   xmlns:sodipodi="http://sodipodi.sourceforge.net/DTD/sodipodi-0.dtd"
   xmlns="http://www.w3.org/2000/svg"
   xmlns:svg="http://www.w3.org/2000/svg">
  <defs
     id="defs9620" />
  <sodipodi:namedview
     id="namedview9618"
     pagecolor="#505050"
     bordercolor="#eeeeee"
     borderopacity="1"
     inkscape:showpageshadow="0"
     inkscape:pageopacity="0"
     inkscape:pagecheckerboard="0"
     inkscape:deskcolor="#505050"
     showgrid="false"
     inkscape:zoom="9.8333333"
     inkscape:cx="12"
     inkscape:cy="12.050847"
     inkscape:window-width="2560"
     inkscape:window-height="1377"
     inkscape:window-x="2560"
     inkscape:window-y="0"
     inkscape:window-maximized="1"
     inkscape:current-layer="svg9616" />
  <path
     style="color:#000000;fill:#000000;stroke-linecap:round;stroke-linejoin:round;-inkscape-stroke:none"
     d="M 12,3.2148438 A 0.78500003,0.78500003 0 0 0 11.214844,4 V 14.105469 L 9.0546875,11.945313 a 0.78500003,0.78500003 0 0 0 -1.109375,0 0.78500003,0.78500003 0 0 0 0,1.109375 l 3.5000005,3.499999 A 0.78500003,0.78500003 0 0 0 12,16.785156 0.78500003,0.78500003 0 0 0 12.554688,16.554687 l 3.499999,-3.499999 a 0.78500003,0.78500003 0 0 0 0,-1.109375 0.78500003,0.78500003 0 0 0 -1.109374,0 l -2.160157,2.160156 V 4 A 0.78500003,0.78500003 0 0 0 12,3.2148438 Z M 6,19.214844 A 0.78500003,0.78500003 0 0 0 5.2148437,20 0.78500003,0.78500003 0 0 0 6,20.785156 H 18 A 0.78500003,0.78500003 0 0 0 18.785156,20 0.78500003,0.78500003 0 0 0 18,19.214844 Z"
     id="path9614" />
</svg>
