<?xml version="1.0" encoding="UTF-8" standalone="no"?>
<svg
   width="22"
   height="22"
   viewBox="0 0 22 22"
   fill="none"
   stroke="currentColor"
   stroke-width="1.5"
   stroke-linecap="round"
   stroke-linejoin="round"
   class="icon icon-tabler icons-tabler-outline icon-tabler-copy-plus"
   version="1.1"
   id="svg6"
   sodipodi:docname="copy-24.svg"
   inkscape:version="1.4 (e7c3feb100, 2024-10-09)"
   xmlns:inkscape="http://www.inkscape.org/namespaces/inkscape"
   xmlns:sodipodi="http://sodipodi.sourceforge.net/DTD/sodipodi-0.dtd"
   xmlns="http://www.w3.org/2000/svg"
   xmlns:svg="http://www.w3.org/2000/svg">
  <defs
     id="defs6" />
  <sodipodi:namedview
     id="namedview6"
     pagecolor="#505050"
     bordercolor="#eeeeee"
     borderopacity="1"
     inkscape:showpageshadow="0"
     inkscape:pageopacity="0"
     inkscape:pagecheckerboard="0"
     inkscape:deskcolor="#505050"
     inkscape:zoom="24.791667"
     inkscape:cx="7.9663866"
     inkscape:cy="9.7210084"
     inkscape:window-width="2560"
     inkscape:window-height="1376"
     inkscape:window-x="0"
     inkscape:window-y="0"
     inkscape:window-maximized="1"
     inkscape:current-layer="svg6" />
  <path
     stroke="none"
     d="M 0,0 H 22 V 22 H 0 Z"
     fill="none"
     id="path1"
     style="stroke-width:1.375" />
  <path
     stroke="none"
     d="M 0,0 H 22 V 22 H 0 Z"
     id="path2"
     style="stroke-width:1.375" />
  <path
     d="m 6.4166667,8.8614167 a 2.44475,2.44475 0 0 1 2.44475,-2.44475 H 16.80525 A 2.44475,2.44475 0 0 1 19.25,8.8614167 V 16.80525 A 2.44475,2.44475 0 0 1 16.80525,19.25 H 8.8614167 a 2.44475,2.44475 0 0 1 -2.44475,-2.44475 z"
     id="path3"
     style="stroke-width:1.5;stroke-dasharray:none" />
  <path
     d="M 3.6776667,15.34225 A 1.8333333,1.8333333 0 0 1 2.75,13.75 V 4.5833333 C 2.75,3.575 3.575,2.75 4.5833333,2.75 H 13.75 c 0.6875,0 1.0615,0.3529167 1.375,0.9166667"
     id="path4"
     style="stroke-width:1.5;stroke-dasharray:none" />
  <path
     d="m 10.083333,12.833333 h 5.5"
     id="path5"
     style="stroke-width:1.5;stroke-dasharray:none" />
  <path
     d="m 12.833333,10.083333 v 5.5"
     id="path6"
     style="stroke-width:1.5;stroke-dasharray:none" />
</svg>
