<?xml version="1.0" encoding="UTF-8" standalone="no"?>
<svg
   width="24px"
   height="24px"
   viewBox="0 0 24 24"
   stroke-width="1.57"
   fill="none"
   color="#000000"
   version="1.1"
   id="svg9749"
   sodipodi:docname="erase.svg"
   inkscape:version="1.2.1 (9c6d41e410, 2022-07-14, custom)"
   xmlns:inkscape="http://www.inkscape.org/namespaces/inkscape"
   xmlns:sodipodi="http://sodipodi.sourceforge.net/DTD/sodipodi-0.dtd"
   xmlns="http://www.w3.org/2000/svg"
   xmlns:svg="http://www.w3.org/2000/svg">
  <defs
     id="defs9753" />
  <sodipodi:namedview
     id="namedview9751"
     pagecolor="#505050"
     bordercolor="#eeeeee"
     borderopacity="1"
     inkscape:showpageshadow="0"
     inkscape:pageopacity="0"
     inkscape:pagecheckerboard="0"
     inkscape:deskcolor="#505050"
     showgrid="false"
     inkscape:zoom="9.8333333"
     inkscape:cx="12"
     inkscape:cy="12.050847"
     inkscape:window-width="2560"
     inkscape:window-height="1377"
     inkscape:window-x="2560"
     inkscape:window-y="0"
     inkscape:window-maximized="1"
     inkscape:current-layer="svg9749" />
  <path
     style="color:#000000;fill:#000000;stroke-linecap:round;stroke-linejoin:round;-inkscape-stroke:none"
     d="m 13.5,2.0488281 c -0.714254,0 -1.428264,0.2702243 -1.96875,0.8105469 l -9.1933594,9.193359 c -1.0806451,1.080972 -1.0806451,2.856529 0,3.9375 l 5,5 c 0.2888648,0.288861 0.6898274,0.303171 1.0527344,0.433594 A 0.78500003,0.78500003 0 0 0 9,21.785156 H 21 A 0.78500003,0.78500003 0 0 0 21.785156,21 0.78500003,0.78500003 0 0 0 21,20.214844 h -9.048828 l 8.46875,-8.466797 a 0.78507853,0.78507853 0 0 0 0,-0.002 c 1.080645,-1.080972 1.080645,-2.8565287 0,-3.9375003 L 15.46875,2.859375 C 14.928264,2.3190524 14.214254,2.0488281 13.5,2.0488281 Z m 0,1.5605469 c 0.309245,0 0.618862,0.1189345 0.859375,0.359375 l 4.949219,4.9511719 c 0.480881,0.4810263 0.480881,1.2357701 0,1.7167971 L 16.027344,13.919922 9.359375,7.25 12.640625,3.96875 C 12.881138,3.7283095 13.190755,3.609375 13.5,3.609375 Z m -5.25,4.75 6.667969,6.669922 -4.851563,4.851562 c -0.2228222,0.22282 -0.508748,0.330206 -0.7949216,0.333985 H 9.2441406 C 8.9579568,20.211073 8.670096,20.103687 8.4472656,19.880859 l -5,-5 c -0.4808811,-0.481026 -0.4808811,-1.237723 0,-1.71875 z"
     id="path9747" />
</svg>
