<?xml version="1.0" encoding="UTF-8" standalone="no"?>
<svg
   width="24px"
   height="24px"
   stroke-width="1.57"
   viewBox="0 0 24 24"
   fill="none"
   color="#000000"
   version="1.1"
   id="svg13256"
   sodipodi:docname="de-compress.svg"
   inkscape:version="1.2.1 (9c6d41e410, 2022-07-14, custom)"
   xmlns:inkscape="http://www.inkscape.org/namespaces/inkscape"
   xmlns:sodipodi="http://sodipodi.sourceforge.net/DTD/sodipodi-0.dtd"
   xmlns="http://www.w3.org/2000/svg"
   xmlns:svg="http://www.w3.org/2000/svg">
  <defs
     id="defs13260" />
  <sodipodi:namedview
     id="namedview13258"
     pagecolor="#505050"
     bordercolor="#eeeeee"
     borderopacity="1"
     inkscape:showpageshadow="0"
     inkscape:pageopacity="0"
     inkscape:pagecheckerboard="0"
     inkscape:deskcolor="#505050"
     showgrid="false"
     inkscape:zoom="9.8333333"
     inkscape:cx="12"
     inkscape:cy="12.050847"
     inkscape:window-width="2560"
     inkscape:window-height="1377"
     inkscape:window-x="2560"
     inkscape:window-y="0"
     inkscape:window-maximized="1"
     inkscape:current-layer="svg13256" />
  <path
     style="color:#000000;fill:#000000;stroke-linecap:round;stroke-linejoin:round;-inkscape-stroke:none"
     d="m 12,1.2148437 a 0.78500003,0.78500003 0 0 0 -0.554687,0.2304688 l -3.0000005,3 a 0.78500003,0.78500003 0 0 0 0,1.109375 0.78500003,0.78500003 0 0 0 1.109375,0 L 11.214844,3.8945313 V 8 A 0.78500003,0.78500003 0 0 0 12,8.7851563 0.78500003,0.78500003 0 0 0 12.785156,8 V 3.8945313 l 1.660157,1.6601562 a 0.78500003,0.78500003 0 0 0 1.109375,0 0.78500003,0.78500003 0 0 0 0,-1.109375 l -3,-3 A 0.78500003,0.78500003 0 0 0 12,1.2148437 Z M 6,11.214844 A 0.78500003,0.78500003 0 0 0 5.2148437,12 0.78500003,0.78500003 0 0 0 6,12.785156 H 18 A 0.78500003,0.78500003 0 0 0 18.785156,12 0.78500003,0.78500003 0 0 0 18,11.214844 Z m 6,4 A 0.78500003,0.78500003 0 0 0 11.214844,16 v 4.105469 L 9.5546875,18.445312 a 0.78500003,0.78500003 0 0 0 -1.109375,0 0.78500003,0.78500003 0 0 0 0,1.109375 l 3.0000005,3 A 0.78500003,0.78500003 0 0 0 12,22.785156 0.78500003,0.78500003 0 0 0 12.554688,22.554687 l 3,-3 a 0.78500003,0.78500003 0 0 0 0,-1.109375 0.78500003,0.78500003 0 0 0 -1.109375,0 l -1.660157,1.660157 V 16 A 0.78500003,0.78500003 0 0 0 12,15.214844 Z"
     id="path13254" />
</svg>
