<?xml version="1.0" encoding="UTF-8" standalone="no"?>
<svg
   width="24px"
   height="24px"
   stroke-width="1.57"
   viewBox="0 0 24 24"
   fill="none"
   color="#000000"
   version="1.1"
   id="svg13788"
   sodipodi:docname="filter.svg"
   inkscape:version="1.2.1 (9c6d41e410, 2022-07-14, custom)"
   xmlns:inkscape="http://www.inkscape.org/namespaces/inkscape"
   xmlns:sodipodi="http://sodipodi.sourceforge.net/DTD/sodipodi-0.dtd"
   xmlns="http://www.w3.org/2000/svg"
   xmlns:svg="http://www.w3.org/2000/svg">
  <defs
     id="defs13792" />
  <sodipodi:namedview
     id="namedview13790"
     pagecolor="#505050"
     bordercolor="#eeeeee"
     borderopacity="1"
     inkscape:showpageshadow="0"
     inkscape:pageopacity="0"
     inkscape:pagecheckerboard="0"
     inkscape:deskcolor="#505050"
     showgrid="false"
     inkscape:zoom="9.8333333"
     inkscape:cx="12"
     inkscape:cy="12.050847"
     inkscape:window-width="2560"
     inkscape:window-height="1377"
     inkscape:window-x="2560"
     inkscape:window-y="0"
     inkscape:window-maximized="1"
     inkscape:current-layer="svg13788" />
  <path
     style="color:#000000;fill:#000000;stroke-linecap:round;stroke-linejoin:round;-inkscape-stroke:none"
     d="M 4,2.2148438 C 3.0234707,2.2148438 2.2148437,3.0234707 2.2148438,4 V 5.5859375 C 2.2144715,6.058753 2.4024197,6.5129029 2.7363281,6.8476562 l 6.4160157,6.4140628 c 0.040536,0.04052 0.062488,0.09503 0.0625,0.152344 v 5.804687 c 2.14e-5,0.81471 0.5612723,1.534447 1.3515622,1.732422 l 2,0.5 c 1.108444,0.277675 2.21872,-0.589727 2.21875,-1.732422 v -6.304687 c -4.5e-5,-0.05729 0.02204,-0.111785 0.0625,-0.152344 l 6.414063,-6.4140628 c 0.334562,-0.334461 0.523336,-0.7886479 0.523437,-1.2617187 V 4 C 21.785156,3.0234707 20.976529,2.2148438 20,2.2148438 Z m 0,1.5703125 h 16 c 0.128039,0 0.214844,0.086805 0.214844,0.2148437 v 1.5859375 c -1.2e-5,0.057318 -0.02196,0.1118197 -0.0625,0.1523437 l -6.416016,6.4140628 c -0.333908,0.334753 -0.521856,0.788903 -0.521484,1.261719 v 6.304687 c -4e-6,0.15882 -0.113519,0.247578 -0.267578,0.208984 l -2,-0.5 c -0.09957,-0.02494 -0.162107,-0.106336 -0.16211,-0.208984 v -5.804687 c -1.01e-4,-0.473071 -0.188875,-0.927258 -0.523437,-1.261719 L 3.8476563,5.7382812 c -0.040457,-0.040559 -0.062545,-0.095057 -0.0625,-0.1523437 V 4 C 3.7851563,3.8719609 3.8719609,3.7851563 4,3.7851563 Z"
     id="path13786" />
</svg>
