<?xml version="1.0" encoding="UTF-8" standalone="no"?>
<svg
   width="22"
   height="22"
   viewBox="0 0 22 22"
   fill="none"
   stroke="currentColor"
   stroke-width="1.5"
   stroke-linecap="round"
   stroke-linejoin="round"
   class="icon icon-tabler icons-tabler-outline icon-tabler-magnet"
   version="1.1"
   id="svg4"
   sodipodi:docname="grid-snap-24.svg"
   inkscape:version="1.4 (e7c3feb100, 2024-10-09)"
   xmlns:inkscape="http://www.inkscape.org/namespaces/inkscape"
   xmlns:sodipodi="http://sodipodi.sourceforge.net/DTD/sodipodi-0.dtd"
   xmlns="http://www.w3.org/2000/svg"
   xmlns:svg="http://www.w3.org/2000/svg">
  <defs
     id="defs4" />
  <sodipodi:namedview
     id="namedview4"
     pagecolor="#505050"
     bordercolor="#eeeeee"
     borderopacity="1"
     inkscape:showpageshadow="0"
     inkscape:pageopacity="0"
     inkscape:pagecheckerboard="0"
     inkscape:deskcolor="#505050"
     inkscape:zoom="17.530356"
     inkscape:cx="1.5116636"
     inkscape:cy="7.2445764"
     inkscape:window-width="2560"
     inkscape:window-height="1376"
     inkscape:window-x="0"
     inkscape:window-y="0"
     inkscape:window-maximized="1"
     inkscape:current-layer="svg4" />
  <path
     stroke="none"
     d="M 0,0 H 22 V 22 H 0 Z"
     fill="none"
     id="path1"
     style="stroke-width:1.375" />
  <path
     d="M 3.6666667,11.916667 V 4.5833333 A 1.8333333,1.8333333 0 0 1 5.5,2.75 H 6.4166667 A 1.8333333,1.8333333 0 0 1 8.25,4.5833333 v 7.3333337 a 2.75,2.75 0 0 0 5.5,0 V 4.5833333 A 1.8333333,1.8333333 0 0 1 15.583333,2.75 H 16.5 a 1.8333333,1.8333333 0 0 1 1.833333,1.8333333 v 7.3333337 a 7.3333333,7.3333333 0 0 1 -14.6666663,0"
     id="path2"
     style="stroke-width:1.5;stroke-dasharray:none" />
  <path
     d="M 3.6666667,7.3333333 H 8.25"
     id="path3"
     style="stroke-width:1.5;stroke-dasharray:none" />
  <path
     d="m 13.75,7.3333333 h 3.666667"
     id="path4"
     style="stroke-width:1.5;stroke-dasharray:none" />
</svg>
