<?xml version="1.0" encoding="UTF-8" standalone="no"?>
<svg
   width="24px"
   height="24px"
   stroke-width="1.57"
   viewBox="0 0 24 24"
   fill="none"
   color="#000000"
   version="1.1"
   id="svg8274"
   sodipodi:docname="headset.svg"
   inkscape:version="1.2.1 (9c6d41e410, 2022-07-14, custom)"
   xmlns:inkscape="http://www.inkscape.org/namespaces/inkscape"
   xmlns:sodipodi="http://sodipodi.sourceforge.net/DTD/sodipodi-0.dtd"
   xmlns="http://www.w3.org/2000/svg"
   xmlns:svg="http://www.w3.org/2000/svg">
  <defs
     id="defs8278" />
  <sodipodi:namedview
     id="namedview8276"
     pagecolor="#505050"
     bordercolor="#eeeeee"
     borderopacity="1"
     inkscape:showpageshadow="0"
     inkscape:pageopacity="0"
     inkscape:pagecheckerboard="0"
     inkscape:deskcolor="#505050"
     showgrid="false"
     inkscape:zoom="9.8333333"
     inkscape:cx="12"
     inkscape:cy="12.050847"
     inkscape:window-width="2560"
     inkscape:window-height="1377"
     inkscape:window-x="2560"
     inkscape:window-y="0"
     inkscape:window-maximized="1"
     inkscape:current-layer="svg8274" />
  <path
     style="color:#000000;fill:#000000;stroke-linecap:round;stroke-linejoin:round;-inkscape-stroke:none"
     d="M 12,3.2148438 C 7.104632,3.2148438 3.2148438,7.6528263 3.2148438,13 v 0.5 A 0.78500003,0.78500003 0 0 0 4,14.285156 0.78500003,0.78500003 0 0 0 4.7851562,13.5 V 13 c 0,-4.5928163 3.2742206,-8.2148438 7.2148438,-8.2148438 3.940623,0 7.214844,3.6220275 7.214844,8.2148438 v 0.5 A 0.78500003,0.78500003 0 0 0 20,14.285156 0.78500003,0.78500003 0 0 0 20.785156,13.5 V 13 C 20.785156,7.6528263 16.895368,3.2148438 12,3.2148438 Z"
     id="path8270" />
  <path
     style="color:#000000;fill:#000000;stroke-linecap:round;stroke-linejoin:round;-inkscape-stroke:none"
     d="m 5.0625,12.423828 -1.2539062,0.314453 -0.484375,0.123047 C 2.0884512,13.170222 1.2150366,14.288712 1.2148437,15.5625 v 1.876953 c 3.35e-5,1.273389 0.8741543,2.391738 2.1093751,2.701172 l 1.7402343,0.435547 c 0.855426,0.213199 1.7207537,-0.461831 1.7207031,-1.34375 V 13.767578 C 6.7852068,12.884964 5.9185853,12.209059 5.0625,12.423828 Z m 13.873047,0 c -0.855374,-0.21303 -1.720387,0.462248 -1.720703,1.34375 v 5.464844 c 3.16e-4,0.881502 0.865329,1.55678 1.720703,1.34375 l 1.740234,-0.435547 c 1.235768,-0.308894 2.109182,-1.427384 2.109375,-2.701172 V 15.5625 c -1.93e-4,-1.273788 -0.873607,-2.392278 -2.109375,-2.701172 L 20.191406,12.738281 Z M 5.2148437,14.005859 v 4.988282 L 3.7050781,18.617187 C 3.1605764,18.480785 2.785171,18.00078 2.7851563,17.439453 V 15.5625 c 8.5e-5,-0.561509 0.3751727,-1.043521 0.9199218,-1.179687 a 0.78507853,0.78507853 0 0 0 0.00195,0 l 0.4843749,-0.121094 z m 13.5703123,0 1.023438,0.25586 0.484375,0.121094 a 0.78507853,0.78507853 0 0 0 0.002,0 c 0.544749,0.136166 0.919837,0.618178 0.919922,1.179687 v 1.876953 c -8.5e-5,0.56151 -0.375173,1.041568 -0.919922,1.177734 l -1.509766,0.376954 z"
     id="path8272" />
</svg>
