<?xml version="1.0" encoding="UTF-8" standalone="no"?>
<svg
   width="24px"
   height="24px"
   stroke-width="1.57"
   viewBox="0 0 24 24"
   fill="none"
   color="#000000"
   version="1.1"
   id="svg2806"
   sodipodi:docname="home.svg"
   inkscape:version="1.2.1 (9c6d41e410, 2022-07-14, custom)"
   xmlns:inkscape="http://www.inkscape.org/namespaces/inkscape"
   xmlns:sodipodi="http://sodipodi.sourceforge.net/DTD/sodipodi-0.dtd"
   xmlns="http://www.w3.org/2000/svg"
   xmlns:svg="http://www.w3.org/2000/svg">
  <defs
     id="defs2810" />
  <sodipodi:namedview
     id="namedview2808"
     pagecolor="#505050"
     bordercolor="#eeeeee"
     borderopacity="1"
     inkscape:showpageshadow="0"
     inkscape:pageopacity="0"
     inkscape:pagecheckerboard="0"
     inkscape:deskcolor="#505050"
     showgrid="false"
     inkscape:zoom="9.8333333"
     inkscape:cx="12"
     inkscape:cy="12.050847"
     inkscape:window-width="2560"
     inkscape:window-height="1377"
     inkscape:window-x="2560"
     inkscape:window-y="0"
     inkscape:window-maximized="1"
     inkscape:current-layer="svg2806" />
  <path
     style="color:#000000;fill:#000000;stroke-linecap:round;stroke-linejoin:round;-inkscape-stroke:none"
     d="m 11.589844,3.3300781 -9.0000002,5.5 A 0.78500003,0.78500003 0 0 0 2.3300781,9.9101563 0.78500003,0.78500003 0 0 0 3.4101563,10.169922 L 12,4.9199219 20.589844,10.169922 A 0.78500003,0.78500003 0 0 0 21.669922,9.9101563 0.78500003,0.78500003 0 0 0 21.410156,8.8300781 l -9,-5.5 a 0.78507853,0.78507853 0 0 0 -0.820312,0 z M 5,12.214844 A 0.78500003,0.78500003 0 0 0 4.2148437,13 v 6.400391 c 0,0.755615 0.6291501,1.384765 1.3847657,1.384765 H 18.400391 c 0.755615,0 1.384765,-0.62915 1.384765,-1.384765 V 13 A 0.78500003,0.78500003 0 0 0 19,12.214844 0.78500003,0.78500003 0 0 0 18.214844,13 v 6.214844 H 5.7851562 V 13 A 0.78500003,0.78500003 0 0 0 5,12.214844 Z"
     id="path2804" />
</svg>
