<?xml version="1.0" encoding="UTF-8" standalone="no"?>
<!-- Generator: Adobe Illustrator 24.1.2, SVG Export Plug-In . SVG Version: 6.00 Build 0)  -->

<svg
   version="1.1"
   id="Layer_1"
   x="0px"
   y="0px"
   viewBox="0 0 48 48"
   style="enable-background:new 0 0 48 48;"
   xml:space="preserve"
   sodipodi:docname="keyboard.svg"
   inkscape:version="1.2.1 (9c6d41e410, 2022-07-14, custom)"
   xmlns:inkscape="http://www.inkscape.org/namespaces/inkscape"
   xmlns:sodipodi="http://sodipodi.sourceforge.net/DTD/sodipodi-0.dtd"
   xmlns="http://www.w3.org/2000/svg"
   xmlns:svg="http://www.w3.org/2000/svg"><defs
   id="defs7" /><sodipodi:namedview
   id="namedview5"
   pagecolor="#505050"
   bordercolor="#eeeeee"
   borderopacity="1"
   inkscape:showpageshadow="0"
   inkscape:pageopacity="0"
   inkscape:pagecheckerboard="0"
   inkscape:deskcolor="#505050"
   showgrid="false"
   inkscape:zoom="4.9166667"
   inkscape:cx="24"
   inkscape:cy="24"
   inkscape:window-width="2560"
   inkscape:window-height="1374"
   inkscape:window-x="0"
   inkscape:window-y="0"
   inkscape:window-maximized="1"
   inkscape:current-layer="Layer_1" />
<path
   d="m 44.577139,4.280242 h -4.738978 v 27.311475 c 0,1.325043 -1.075623,2.385078 -2.385077,2.385078 H 34.03915 c -1.325043,0 -2.385078,-1.075624 -2.385078,-2.385078 V 4.280242 h -3.523055 v 27.311475 c 0,1.325043 -1.075624,2.385078 -2.385078,2.385078 h -3.460701 c -1.325043,0 -2.385077,-1.075624 -2.385077,-2.385078 V 4.280242 h -3.523056 v 27.311475 c 0,1.325043 -1.075623,2.385078 -2.385077,2.385078 h -3.413934 c -1.3250435,0 -2.3850779,-1.075624 -2.3850779,-2.385078 V 4.280242 H 3.4228612 c -1.325043,0 -2.3850774,1.0756232 -2.3850774,2.3850774 V 41.334681 c 0,1.325043 1.0756231,2.385077 2.3850774,2.385077 H 44.577139 c 1.325043,0 2.385077,-1.075623 2.385077,-2.385077 V 6.6653194 c 0,-1.325043 -1.060034,-2.3850774 -2.385077,-2.3850774 z"
   id="path2"
   style="stroke-width:1.55887" />
</svg>
