<?xml version="1.0" encoding="utf-8"?>
<!-- Generator: Adobe Illustrator 24.1.2, SVG Export Plug-In . SVG Version: 6.00 Build 0)  -->
<svg version="1.1" id="Layer_1" xmlns="http://www.w3.org/2000/svg" xmlns:xlink="http://www.w3.org/1999/xlink" x="0px" y="0px"
	 viewBox="0 0 48 48" style="enable-background:new 0 0 48 48;" xml:space="preserve">
<g>
	<path d="M11.39,24c0-1.96,0.74-3.81,2.08-5.19c1.34-1.38,3.12-2.15,5.02-2.15c0,0,0,0,0,0h10.78v2.53c0,0.17,0.06,0.33,0.16,0.46
		c0.12,0.15,0.29,0.24,0.48,0.26c0.18,0.02,0.37-0.04,0.52-0.17l4.34-3.73c0.16-0.14,0.25-0.34,0.25-0.55
		c0-0.21-0.09-0.42-0.25-0.55l-4.34-3.73C30.3,11.06,30.14,11,29.97,11c-0.39,0-0.71,0.33-0.71,0.72v2.53H18.49c0,0,0,0,0,0
		c-1.45,0-2.9,0.35-4.2,1.02c-4.66,2.39-6.57,8.24-4.26,13.05c0.14,0.29,0.38,0.51,0.68,0.61c0.12,0.04,0.24,0.06,0.37,0.06
		c0.18,0,0.36-0.04,0.52-0.13c0.57-0.29,0.81-1.01,0.52-1.6C11.64,26.25,11.39,25.13,11.39,24z"/>
	<path d="M37.97,19.67c-0.14-0.29-0.38-0.51-0.68-0.61c-0.29-0.1-0.61-0.08-0.89,0.07l-0.14,0.07v0.01
		c-0.47,0.33-0.65,0.98-0.39,1.52c0.49,1.01,0.74,2.14,0.74,3.27c0,4.05-3.19,7.34-7.1,7.34c0,0,0,0,0,0H18.74v-2.53
		c0-0.17-0.06-0.33-0.16-0.46c-0.12-0.15-0.29-0.24-0.48-0.26c-0.19-0.02-0.37,0.04-0.52,0.17l-4.34,3.73
		c-0.03,0.03-0.06,0.06-0.09,0.09c-0.25,0.3-0.21,0.76,0.09,1.02l4.34,3.73C17.7,36.94,17.86,37,18.03,37
		c0.39,0,0.71-0.32,0.71-0.72v-2.53h10.78c0,0,0,0,0.01,0c1.45,0,2.9-0.35,4.2-1.02C38.37,30.33,40.28,24.48,37.97,19.67z"/>
</g>
</svg>
