<?xml version="1.0" encoding="utf-8"?>
<!-- Generator: Adobe Illustrator 24.1.2, SVG Export Plug-In . SVG Version: 6.00 Build 0)  -->
<svg version="1.1" id="Layer_1" xmlns="http://www.w3.org/2000/svg" xmlns:xlink="http://www.w3.org/1999/xlink" x="0px" y="0px"
	 viewBox="0 0 48 48" style="enable-background:new 0 0 48 48;" xml:space="preserve">
<g>
	<g>
		<path d="M22.03,14.08c0-0.32,0.06-0.61,0.17-0.85c0.11-0.24,0.26-0.45,0.45-0.62c0.18-0.17,0.39-0.29,0.62-0.37
			c0.23-0.08,0.46-0.13,0.7-0.13s0.48,0.04,0.72,0.13c0.24,0.08,0.45,0.21,0.64,0.37c0.19,0.16,0.34,0.37,0.46,0.62
			c0.12,0.25,0.18,0.54,0.18,0.86c0,0.52-0.13,0.93-0.39,1.23c-0.26,0.3-0.57,0.51-0.94,0.62l1.78,7.86l2.46-6.86
			c-0.4-0.13-0.71-0.35-0.95-0.68c-0.24-0.33-0.36-0.71-0.36-1.15c0-0.32,0.06-0.61,0.18-0.86c0.12-0.25,0.27-0.46,0.47-0.62
			c0.19-0.17,0.41-0.29,0.64-0.37c0.23-0.08,0.47-0.13,0.71-0.13s0.48,0.04,0.72,0.13c0.24,0.08,0.45,0.21,0.64,0.37
			c0.19,0.17,0.34,0.37,0.45,0.62c0.11,0.25,0.17,0.54,0.17,0.86c0,0.23-0.04,0.45-0.12,0.67c-0.08,0.22-0.19,0.41-0.34,0.58
			c-0.15,0.17-0.32,0.32-0.53,0.44c-0.21,0.12-0.44,0.2-0.7,0.23l0.65,7.06l3.29-5.04c-0.3-0.17-0.54-0.4-0.72-0.71
			s-0.27-0.65-0.27-1.02c0-0.32,0.06-0.61,0.18-0.85c0.12-0.24,0.27-0.45,0.46-0.62c0.19-0.17,0.4-0.29,0.64-0.37
			c0.24-0.08,0.48-0.13,0.72-0.13s0.48,0.04,0.71,0.13s0.44,0.21,0.62,0.37c0.18,0.17,0.33,0.37,0.44,0.62
			c0.12,0.24,0.17,0.53,0.17,0.85c0,0.25-0.04,0.49-0.13,0.73c-0.09,0.23-0.22,0.44-0.38,0.62S35.89,19,35.65,19.1
			c-0.24,0.1-0.51,0.16-0.81,0.16h-0.27l-1.29,8.52v7.5c-1.51,0.21-3.06,0.36-4.67,0.46c-1.61,0.1-3.15,0.15-4.64,0.15
			c-1.53,0-3.08-0.05-4.66-0.15c-1.58-0.1-3.12-0.25-4.62-0.46v-7.5l-1.26-8.52h-0.27c-0.3,0-0.57-0.05-0.81-0.16
			c-0.24-0.1-0.44-0.25-0.61-0.43c-0.17-0.18-0.29-0.39-0.38-0.62c-0.09-0.23-0.13-0.48-0.13-0.73c0-0.32,0.06-0.61,0.17-0.85
			c0.12-0.24,0.26-0.45,0.45-0.62c0.18-0.17,0.39-0.29,0.62-0.37s0.47-0.13,0.71-0.13c0.24,0,0.48,0.04,0.72,0.13
			c0.24,0.08,0.45,0.21,0.64,0.37c0.19,0.17,0.34,0.37,0.46,0.62c0.12,0.24,0.18,0.53,0.18,0.85c0,0.37-0.09,0.72-0.27,1.02
			c-0.18,0.31-0.42,0.54-0.72,0.71l3.29,5.04l0.65-7.06c-0.26-0.03-0.49-0.11-0.7-0.23c-0.21-0.12-0.38-0.27-0.53-0.44
			c-0.15-0.17-0.26-0.37-0.34-0.58c-0.08-0.22-0.12-0.44-0.12-0.67c0-0.32,0.06-0.61,0.17-0.86c0.11-0.25,0.27-0.46,0.45-0.62
			c0.19-0.17,0.4-0.29,0.64-0.37c0.24-0.08,0.48-0.13,0.72-0.13c0.23,0,0.46,0.04,0.7,0.13c0.24,0.08,0.45,0.21,0.65,0.37
			c0.19,0.17,0.35,0.37,0.47,0.62c0.12,0.25,0.18,0.54,0.18,0.86c0,0.44-0.12,0.82-0.36,1.15c-0.24,0.33-0.56,0.55-0.95,0.68
			l2.46,6.86l1.78-7.86c-0.36-0.11-0.68-0.32-0.94-0.62C22.16,15.01,22.03,14.6,22.03,14.08z M12.15,17.01
			c0,0.24,0.08,0.44,0.25,0.61c0.17,0.17,0.37,0.25,0.61,0.25c0.24,0,0.44-0.08,0.61-0.25s0.25-0.37,0.25-0.61
			c0-0.24-0.08-0.44-0.25-0.61c-0.17-0.17-0.37-0.25-0.61-0.25c-0.24,0-0.44,0.08-0.61,0.25C12.23,16.57,12.15,16.77,12.15,17.01z
			 M15.67,26.84c0.1-0.01,0.24-0.02,0.42-0.02c0.18,0,0.37-0.01,0.58-0.02l-1.92-4.99L15.67,26.84z M23.97,28.32
			c-0.63,0-1.33,0.01-2.08,0.04c-0.75,0.03-1.51,0.06-2.26,0.11c-0.75,0.05-1.48,0.11-2.17,0.18c-0.69,0.07-1.29,0.16-1.79,0.25
			c0.53,0.05,1.16,0.1,1.89,0.14c0.73,0.04,1.47,0.07,2.24,0.1c0.76,0.03,1.51,0.04,2.25,0.05c0.74,0.01,1.39,0.02,1.95,0.02
			c0.56,0,1.2,0,1.9-0.02c0.71-0.01,1.43-0.03,2.18-0.05s1.48-0.05,2.2-0.09c0.72-0.03,1.37-0.07,1.95-0.12
			c-0.48-0.08-1.06-0.16-1.74-0.23c-0.68-0.07-1.4-0.14-2.15-0.2c-0.75-0.06-1.51-0.1-2.28-0.13C25.3,28.34,24.6,28.32,23.97,28.32z
			 M23.97,30.8c-0.63,0-1.33,0.01-2.08,0.04c-0.75,0.03-1.51,0.06-2.26,0.11c-0.75,0.05-1.48,0.11-2.17,0.18
			c-0.69,0.07-1.29,0.16-1.79,0.25c0.53,0.05,1.16,0.1,1.89,0.14c0.73,0.04,1.47,0.07,2.24,0.1c0.76,0.03,1.51,0.04,2.25,0.05
			c0.74,0.01,1.39,0.02,1.95,0.02c0.56,0,1.2,0,1.9-0.02c0.71-0.01,1.43-0.03,2.18-0.05s1.48-0.05,2.2-0.09
			c0.72-0.03,1.37-0.07,1.95-0.12c-0.48-0.08-1.06-0.16-1.74-0.23c-0.68-0.07-1.4-0.14-2.15-0.2c-0.75-0.06-1.51-0.1-2.28-0.13
			C25.3,30.82,24.6,30.8,23.97,30.8z M23.97,33.39c-0.63,0-1.33,0.01-2.08,0.04c-0.75,0.03-1.51,0.06-2.26,0.11
			c-0.75,0.05-1.48,0.11-2.17,0.18c-0.69,0.07-1.29,0.16-1.79,0.25c0.53,0.05,1.16,0.1,1.89,0.14c0.73,0.04,1.47,0.08,2.24,0.1
			c0.76,0.03,1.51,0.04,2.25,0.05c0.74,0.01,1.39,0.02,1.95,0.02c0.56,0,1.2,0,1.9-0.02c0.71-0.01,1.43-0.03,2.18-0.05
			c0.75-0.03,1.48-0.05,2.2-0.09c0.72-0.03,1.37-0.07,1.95-0.12c-0.48-0.08-1.06-0.16-1.74-0.23c-0.68-0.07-1.4-0.14-2.15-0.2
			c-0.75-0.06-1.51-0.1-2.28-0.13C25.3,33.4,24.6,33.39,23.97,33.39z M17.37,14.8c0,0.24,0.08,0.44,0.25,0.61
			c0.17,0.17,0.37,0.25,0.61,0.25s0.44-0.08,0.61-0.25c0.17-0.17,0.25-0.37,0.25-0.61c0-0.24-0.08-0.44-0.25-0.61
			c-0.17-0.17-0.37-0.25-0.61-0.25s-0.44,0.08-0.61,0.25C17.46,14.36,17.37,14.56,17.37,14.8z M18.26,26.71
			c0.24-0.02,0.49-0.03,0.74-0.04c0.25-0.01,0.52-0.01,0.79-0.02l-0.87-7.08L18.26,26.71z M24,17.64l-2.01,8.97
			c0.34-0.01,0.69-0.02,1.03-0.02c0.34-0.01,0.67-0.01,0.98-0.01V17.64z M22.95,13.77c0,0.24,0.08,0.44,0.25,0.61
			c0.17,0.17,0.37,0.25,0.61,0.25s0.44-0.08,0.61-0.25c0.17-0.17,0.25-0.37,0.25-0.61c0-0.24-0.08-0.44-0.25-0.61
			c-0.17-0.17-0.37-0.25-0.61-0.25s-0.44,0.08-0.61,0.25C23.04,13.33,22.95,13.53,22.95,13.77z M29.04,19.56l-2.36,7.05
			c0.1,0,0.23,0,0.38,0.01c0.15,0.01,0.29,0.01,0.44,0.02c0.14,0,0.28,0.01,0.41,0.02c0.13,0.01,0.24,0.01,0.32,0.01L29.04,19.56z
			 M28.49,14.8c0,0.24,0.08,0.44,0.25,0.61c0.16,0.17,0.37,0.25,0.61,0.25s0.44-0.08,0.61-0.25c0.17-0.17,0.25-0.37,0.25-0.61
			c0-0.24-0.08-0.44-0.25-0.61c-0.17-0.17-0.37-0.25-0.61-0.25s-0.44,0.08-0.61,0.25C28.57,14.36,28.49,14.56,28.49,14.8z
			 M33.25,21.8l-2.99,4.96c0.15,0.01,0.32,0.02,0.52,0.02c0.2,0,0.41,0.01,0.62,0.02L33.25,21.8z M33.75,17.01
			c0,0.24,0.08,0.44,0.25,0.61c0.17,0.17,0.37,0.25,0.61,0.25s0.44-0.08,0.61-0.25s0.25-0.37,0.25-0.61c0-0.24-0.08-0.44-0.25-0.61
			c-0.17-0.17-0.37-0.25-0.61-0.25S34.16,16.24,34,16.4C33.83,16.57,33.75,16.77,33.75,17.01z"/>
	</g>
</g>
</svg>
