<?xml version="1.0" encoding="UTF-8" standalone="no"?>
<!-- Generator: Adobe Illustrator 24.1.2, SVG Export Plug-In . SVG Version: 6.00 Build 0)  -->

<svg
   version="1.1"
   id="Layer_1"
   x="0px"
   y="0px"
   viewBox="0 0 48 48"
   style="enable-background:new 0 0 48 48;"
   xml:space="preserve"
   sodipodi:docname="master-track.svg"
   inkscape:version="1.2.1 (9c6d41e410, 2022-07-14, custom)"
   xmlns:inkscape="http://www.inkscape.org/namespaces/inkscape"
   xmlns:sodipodi="http://sodipodi.sourceforge.net/DTD/sodipodi-0.dtd"
   xmlns="http://www.w3.org/2000/svg"
   xmlns:svg="http://www.w3.org/2000/svg"><defs
   id="defs308" /><sodipodi:namedview
   id="namedview306"
   pagecolor="#505050"
   bordercolor="#eeeeee"
   borderopacity="1"
   inkscape:showpageshadow="0"
   inkscape:pageopacity="0"
   inkscape:pagecheckerboard="0"
   inkscape:deskcolor="#505050"
   showgrid="false"
   inkscape:zoom="4.9166667"
   inkscape:cx="24"
   inkscape:cy="24"
   inkscape:window-width="2560"
   inkscape:window-height="1374"
   inkscape:window-x="0"
   inkscape:window-y="0"
   inkscape:window-maximized="1"
   inkscape:current-layer="Layer_1" />
<g
   id="g303"
   transform="matrix(1.4977456,0,0,1.4977456,-11.940918,-11.945895)">
	<g
   id="g301">
		<path
   d="m 22.03,14.08 c 0,-0.32 0.06,-0.61 0.17,-0.85 0.11,-0.24 0.26,-0.45 0.45,-0.62 0.18,-0.17 0.39,-0.29 0.62,-0.37 0.23,-0.08 0.46,-0.13 0.7,-0.13 0.24,0 0.48,0.04 0.72,0.13 0.24,0.08 0.45,0.21 0.64,0.37 0.19,0.16 0.34,0.37 0.46,0.62 0.12,0.25 0.18,0.54 0.18,0.86 0,0.52 -0.13,0.93 -0.39,1.23 -0.26,0.3 -0.57,0.51 -0.94,0.62 l 1.78,7.86 2.46,-6.86 c -0.4,-0.13 -0.71,-0.35 -0.95,-0.68 -0.24,-0.33 -0.36,-0.71 -0.36,-1.15 0,-0.32 0.06,-0.61 0.18,-0.86 0.12,-0.25 0.27,-0.46 0.47,-0.62 0.19,-0.17 0.41,-0.29 0.64,-0.37 0.23,-0.08 0.47,-0.13 0.71,-0.13 0.24,0 0.48,0.04 0.72,0.13 0.24,0.08 0.45,0.21 0.64,0.37 0.19,0.17 0.34,0.37 0.45,0.62 0.11,0.25 0.17,0.54 0.17,0.86 0,0.23 -0.04,0.45 -0.12,0.67 -0.08,0.22 -0.19,0.41 -0.34,0.58 -0.15,0.17 -0.32,0.32 -0.53,0.44 -0.21,0.12 -0.44,0.2 -0.7,0.23 l 0.65,7.06 3.29,-5.04 c -0.3,-0.17 -0.54,-0.4 -0.72,-0.71 -0.18,-0.31 -0.27,-0.65 -0.27,-1.02 0,-0.32 0.06,-0.61 0.18,-0.85 0.12,-0.24 0.27,-0.45 0.46,-0.62 0.19,-0.17 0.4,-0.29 0.64,-0.37 0.24,-0.08 0.48,-0.13 0.72,-0.13 0.24,0 0.48,0.04 0.71,0.13 0.23,0.09 0.44,0.21 0.62,0.37 0.18,0.17 0.33,0.37 0.44,0.62 0.12,0.24 0.17,0.53 0.17,0.85 0,0.25 -0.04,0.49 -0.13,0.73 -0.09,0.23 -0.22,0.44 -0.38,0.62 -0.16,0.18 -0.35,0.33 -0.59,0.43 -0.24,0.1 -0.51,0.16 -0.81,0.16 h -0.27 l -1.29,8.52 v 7.5 c -1.51,0.21 -3.06,0.36 -4.67,0.46 -1.61,0.1 -3.15,0.15 -4.64,0.15 -1.53,0 -3.08,-0.05 -4.66,-0.15 -1.58,-0.1 -3.12,-0.25 -4.62,-0.46 v -7.5 l -1.26,-8.52 h -0.27 c -0.3,0 -0.57,-0.05 -0.81,-0.16 -0.24,-0.1 -0.44,-0.25 -0.61,-0.43 -0.17,-0.18 -0.29,-0.39 -0.38,-0.62 -0.09,-0.23 -0.13,-0.48 -0.13,-0.73 0,-0.32 0.06,-0.61 0.17,-0.85 0.12,-0.24 0.26,-0.45 0.45,-0.62 0.18,-0.17 0.39,-0.29 0.62,-0.37 0.23,-0.08 0.47,-0.13 0.71,-0.13 0.24,0 0.48,0.04 0.72,0.13 0.24,0.08 0.45,0.21 0.64,0.37 0.19,0.17 0.34,0.37 0.46,0.62 0.12,0.24 0.18,0.53 0.18,0.85 0,0.37 -0.09,0.72 -0.27,1.02 -0.18,0.31 -0.42,0.54 -0.72,0.71 l 3.29,5.04 0.65,-7.06 C 17.87,17 17.64,16.92 17.43,16.8 17.22,16.68 17.05,16.53 16.9,16.36 c -0.15,-0.17 -0.26,-0.37 -0.34,-0.58 -0.08,-0.22 -0.12,-0.44 -0.12,-0.67 0,-0.32 0.06,-0.61 0.17,-0.86 0.11,-0.25 0.27,-0.46 0.45,-0.62 0.19,-0.17 0.4,-0.29 0.64,-0.37 0.24,-0.08 0.48,-0.13 0.72,-0.13 0.23,0 0.46,0.04 0.7,0.13 0.24,0.08 0.45,0.21 0.65,0.37 0.19,0.17 0.35,0.37 0.47,0.62 0.12,0.25 0.18,0.54 0.18,0.86 0,0.44 -0.12,0.82 -0.36,1.15 -0.24,0.33 -0.56,0.55 -0.95,0.68 l 2.46,6.86 1.78,-7.86 C 22.99,15.83 22.67,15.62 22.41,15.32 22.16,15.01 22.03,14.6 22.03,14.08 Z m -9.88,2.93 c 0,0.24 0.08,0.44 0.25,0.61 0.17,0.17 0.37,0.25 0.61,0.25 0.24,0 0.44,-0.08 0.61,-0.25 0.17,-0.17 0.25,-0.37 0.25,-0.61 0,-0.24 -0.08,-0.44 -0.25,-0.61 -0.17,-0.17 -0.37,-0.25 -0.61,-0.25 -0.24,0 -0.44,0.08 -0.61,0.25 -0.17,0.17 -0.25,0.37 -0.25,0.61 z m 3.52,9.83 c 0.1,-0.01 0.24,-0.02 0.42,-0.02 0.18,0 0.37,-0.01 0.58,-0.02 l -1.92,-4.99 z m 8.3,1.48 c -0.63,0 -1.33,0.01 -2.08,0.04 -0.75,0.03 -1.51,0.06 -2.26,0.11 -0.75,0.05 -1.48,0.11 -2.17,0.18 -0.69,0.07 -1.29,0.16 -1.79,0.25 0.53,0.05 1.16,0.1 1.89,0.14 0.73,0.04 1.47,0.07 2.24,0.1 0.76,0.03 1.51,0.04 2.25,0.05 0.74,0.01 1.39,0.02 1.95,0.02 0.56,0 1.2,0 1.9,-0.02 0.71,-0.01 1.43,-0.03 2.18,-0.05 0.75,-0.02 1.48,-0.05 2.2,-0.09 0.72,-0.03 1.37,-0.07 1.95,-0.12 -0.48,-0.08 -1.06,-0.16 -1.74,-0.23 -0.68,-0.07 -1.4,-0.14 -2.15,-0.2 -0.75,-0.06 -1.51,-0.1 -2.28,-0.13 -0.76,-0.03 -1.46,-0.05 -2.09,-0.05 z m 0,2.48 c -0.63,0 -1.33,0.01 -2.08,0.04 -0.75,0.03 -1.51,0.06 -2.26,0.11 -0.75,0.05 -1.48,0.11 -2.17,0.18 -0.69,0.07 -1.29,0.16 -1.79,0.25 0.53,0.05 1.16,0.1 1.89,0.14 0.73,0.04 1.47,0.07 2.24,0.1 0.76,0.03 1.51,0.04 2.25,0.05 0.74,0.01 1.39,0.02 1.95,0.02 0.56,0 1.2,0 1.9,-0.02 0.71,-0.01 1.43,-0.03 2.18,-0.05 0.75,-0.02 1.48,-0.05 2.2,-0.09 0.72,-0.03 1.37,-0.07 1.95,-0.12 -0.48,-0.08 -1.06,-0.16 -1.74,-0.23 -0.68,-0.07 -1.4,-0.14 -2.15,-0.2 -0.75,-0.06 -1.51,-0.1 -2.28,-0.13 C 25.3,30.82 24.6,30.8 23.97,30.8 Z m 0,2.59 c -0.63,0 -1.33,0.01 -2.08,0.04 -0.75,0.03 -1.51,0.06 -2.26,0.11 -0.75,0.05 -1.48,0.11 -2.17,0.18 -0.69,0.07 -1.29,0.16 -1.79,0.25 0.53,0.05 1.16,0.1 1.89,0.14 0.73,0.04 1.47,0.08 2.24,0.1 0.76,0.03 1.51,0.04 2.25,0.05 0.74,0.01 1.39,0.02 1.95,0.02 0.56,0 1.2,0 1.9,-0.02 0.71,-0.01 1.43,-0.03 2.18,-0.05 0.75,-0.03 1.48,-0.05 2.2,-0.09 C 31,34.09 31.65,34.05 32.23,34 31.75,33.92 31.17,33.84 30.49,33.77 29.81,33.7 29.09,33.63 28.34,33.57 27.59,33.51 26.83,33.47 26.06,33.44 25.3,33.4 24.6,33.39 23.97,33.39 Z M 17.37,14.8 c 0,0.24 0.08,0.44 0.25,0.61 0.17,0.17 0.37,0.25 0.61,0.25 0.24,0 0.44,-0.08 0.61,-0.25 0.17,-0.17 0.25,-0.37 0.25,-0.61 0,-0.24 -0.08,-0.44 -0.25,-0.61 -0.17,-0.17 -0.37,-0.25 -0.61,-0.25 -0.24,0 -0.44,0.08 -0.61,0.25 -0.16,0.17 -0.25,0.37 -0.25,0.61 z m 0.89,11.91 c 0.24,-0.02 0.49,-0.03 0.74,-0.04 0.25,-0.01 0.52,-0.01 0.79,-0.02 L 18.92,19.57 Z M 24,17.64 21.99,26.61 c 0.34,-0.01 0.69,-0.02 1.03,-0.02 0.34,-0.01 0.67,-0.01 0.98,-0.01 z m -1.05,-3.87 c 0,0.24 0.08,0.44 0.25,0.61 0.17,0.17 0.37,0.25 0.61,0.25 0.24,0 0.44,-0.08 0.61,-0.25 0.17,-0.17 0.25,-0.37 0.25,-0.61 0,-0.24 -0.08,-0.44 -0.25,-0.61 -0.17,-0.17 -0.37,-0.25 -0.61,-0.25 -0.24,0 -0.44,0.08 -0.61,0.25 -0.16,0.17 -0.25,0.37 -0.25,0.61 z m 6.09,5.79 -2.36,7.05 c 0.1,0 0.23,0 0.38,0.01 0.15,0.01 0.29,0.01 0.44,0.02 0.14,0 0.28,0.01 0.41,0.02 0.13,0.01 0.24,0.01 0.32,0.01 z M 28.49,14.8 c 0,0.24 0.08,0.44 0.25,0.61 0.16,0.17 0.37,0.25 0.61,0.25 0.24,0 0.44,-0.08 0.61,-0.25 0.17,-0.17 0.25,-0.37 0.25,-0.61 0,-0.24 -0.08,-0.44 -0.25,-0.61 -0.17,-0.17 -0.37,-0.25 -0.61,-0.25 -0.24,0 -0.44,0.08 -0.61,0.25 -0.17,0.17 -0.25,0.37 -0.25,0.61 z m 4.76,7 -2.99,4.96 c 0.15,0.01 0.32,0.02 0.52,0.02 0.2,0 0.41,0.01 0.62,0.02 z m 0.5,-4.79 c 0,0.24 0.08,0.44 0.25,0.61 0.17,0.17 0.37,0.25 0.61,0.25 0.24,0 0.44,-0.08 0.61,-0.25 0.17,-0.17 0.25,-0.37 0.25,-0.61 0,-0.24 -0.08,-0.44 -0.25,-0.61 -0.17,-0.17 -0.37,-0.25 -0.61,-0.25 -0.24,0 -0.45,0.09 -0.61,0.25 -0.17,0.17 -0.25,0.37 -0.25,0.61 z"
   id="path299" />
	</g>
</g>
</svg>
