<?xml version="1.0" encoding="UTF-8" standalone="no"?>
<svg
   width="22"
   height="22"
   viewBox="0 0 22 22"
   fill="none"
   version="1.1"
   id="svg4"
   sodipodi:docname="meadowlark-midi-3-symbolic.svg"
   inkscape:version="1.2.1 (9c6d41e410, 2022-07-14, custom)"
   xmlns:inkscape="http://www.inkscape.org/namespaces/inkscape"
   xmlns:sodipodi="http://sodipodi.sourceforge.net/DTD/sodipodi-0.dtd"
   xmlns="http://www.w3.org/2000/svg"
   xmlns:svg="http://www.w3.org/2000/svg"
   xmlns:rdf="http://www.w3.org/1999/02/22-rdf-syntax-ns#"
   xmlns:cc="http://creativecommons.org/ns#"
   xmlns:dc="http://purl.org/dc/elements/1.1/">
  <metadata
     id="metadata10">
    <rdf:RDF>
      <cc:Work
         rdf:about="">
        <dc:format>image/svg+xml</dc:format>
        <dc:type
           rdf:resource="http://purl.org/dc/dcmitype/StillImage" />
      </cc:Work>
    </rdf:RDF>
  </metadata>
  <defs
     id="defs8" />
  <sodipodi:namedview
     inkscape:document-rotation="0"
     pagecolor="#ffffff"
     bordercolor="#666666"
     borderopacity="1"
     objecttolerance="10"
     gridtolerance="10"
     guidetolerance="10"
     inkscape:pageopacity="0"
     inkscape:pageshadow="2"
     inkscape:window-width="2560"
     inkscape:window-height="1377"
     id="namedview6"
     showgrid="false"
     inkscape:zoom="16.000001"
     inkscape:cx="27.437499"
     inkscape:cy="12.03125"
     inkscape:window-x="2560"
     inkscape:window-y="0"
     inkscape:window-maximized="1"
     inkscape:current-layer="svg4"
     inkscape:showpageshadow="0"
     inkscape:pagecheckerboard="0"
     inkscape:deskcolor="#d1d1d1" />
  <path
     style="color:#000000;fill:#000000;stroke-linecap:round;-inkscape-stroke:none"
     d="m 11.000975,1.4315785 c -5.38233,0 -9.763672,4.381342 -9.763672,9.7636725 10e-7,4.278767 2.794576,8.065524 6.882813,9.328125 0.31199,0.126799 0.634167,-0.04243 0.757815,-0.15821 1.438088,-1.238952 2.91643,-1.227939 4.22461,-0.01953 0.290422,0.235599 0.572076,0.258278 0.779297,0.17773 4.088237,-1.262602 6.880859,-5.049359 6.880859,-9.328125 0,-5.3823305 -4.379389,-9.7636725 -9.761719,-9.7636725 z m 0,1.601562 c 4.517627,0 8.16211,3.644483 8.16211,8.1621105 0,3.476242 -2.215917,6.513664 -5.472657,7.660156 -1.625561,-1.171571 -3.675213,-1.167783 -5.371093,0.0039 -3.262306,-1.143683 -5.482422,-4.184227 -5.482422,-7.664062 0,-4.5176275 3.646435,-8.1621105 8.164062,-8.1621105 z"
     id="path1194"
     sodipodi:nodetypes="csccccsccssccsss" />
  <circle
     style="fill:#000000;fill-opacity:1;stroke:none;stroke-width:1.14;stroke-linecap:round;stroke-dasharray:none;stroke-opacity:1"
     id="circle299"
     cx="5.7865553"
     cy="-9.966753"
     r="1.0502018"
     transform="scale(1,-1)" />
  <circle
     style="fill:#000000;fill-opacity:1;stroke:none;stroke-width:1.14;stroke-linecap:round;stroke-dasharray:none;stroke-opacity:1"
     id="circle855"
     cx="7.8285518"
     cy="-7.4734702"
     r="1.0502018"
     transform="scale(1,-1)" />
  <circle
     style="fill:#000000;fill-opacity:1;stroke:none;stroke-width:1.14;stroke-linecap:round;stroke-dasharray:none;stroke-opacity:1"
     id="circle857"
     cx="11.005854"
     cy="-6.5011787"
     r="1.0502018"
     transform="scale(1,-1)" />
  <circle
     style="fill:#000000;fill-opacity:1;stroke:none;stroke-width:1.14;stroke-linecap:round;stroke-dasharray:none;stroke-opacity:1"
     id="circle859"
     cx="14.171448"
     cy="-7.4734702"
     r="1.0502018"
     transform="scale(1,-1)" />
  <circle
     style="fill:#000000;fill-opacity:1;stroke:none;stroke-width:1.14;stroke-linecap:round;stroke-dasharray:none;stroke-opacity:1"
     id="circle861"
     cx="16.220577"
     cy="-9.966753"
     r="1.0502018"
     transform="scale(1,-1)" />
</svg>
