<?xml version="1.0" encoding="UTF-8" standalone="no"?>
<svg
   width="22"
   height="22"
   viewBox="0 0 22 22"
   fill="none"
   version="1.1"
   id="svg4"
   sodipodi:docname="midi-3.svg"
   inkscape:version="1.2.1 (9c6d41e410, 2022-07-14, custom)"
   xmlns:inkscape="http://www.inkscape.org/namespaces/inkscape"
   xmlns:sodipodi="http://sodipodi.sourceforge.net/DTD/sodipodi-0.dtd"
   xmlns="http://www.w3.org/2000/svg"
   xmlns:svg="http://www.w3.org/2000/svg"
   xmlns:rdf="http://www.w3.org/1999/02/22-rdf-syntax-ns#"
   xmlns:cc="http://creativecommons.org/ns#"
   xmlns:dc="http://purl.org/dc/elements/1.1/">
  <metadata
     id="metadata10">
    <rdf:RDF>
      <cc:Work
         rdf:about="">
        <dc:format>image/svg+xml</dc:format>
        <dc:type
           rdf:resource="http://purl.org/dc/dcmitype/StillImage" />
      </cc:Work>
    </rdf:RDF>
  </metadata>
  <defs
     id="defs8" />
  <sodipodi:namedview
     inkscape:document-rotation="0"
     pagecolor="#ffffff"
     bordercolor="#666666"
     borderopacity="1"
     objecttolerance="10"
     gridtolerance="10"
     guidetolerance="10"
     inkscape:pageopacity="0"
     inkscape:pageshadow="2"
     inkscape:window-width="2560"
     inkscape:window-height="1374"
     id="namedview6"
     showgrid="false"
     inkscape:zoom="32.000002"
     inkscape:cx="8.7187495"
     inkscape:cy="11.374999"
     inkscape:window-x="0"
     inkscape:window-y="0"
     inkscape:window-maximized="1"
     inkscape:current-layer="svg4"
     inkscape:showpageshadow="0"
     inkscape:pagecheckerboard="0"
     inkscape:deskcolor="#d1d1d1" />
  <path
     id="path1194"
     style="color:#000000;fill:#000000;stroke-linecap:round"
     d="M 11 1.4316406 C 5.617697 1.4316406 1.2363281 5.813011 1.2363281 11.195312 C 1.2363291 15.474059 4.0309241 19.260842 8.1191406 20.523438 C 8.4311291 20.650232 8.7552592 20.481014 8.8789062 20.365234 C 10.316989 19.126292 11.795341 19.137299 13.103516 20.345703 C 13.393933 20.581302 13.675596 20.603981 13.882812 20.523438 C 17.971029 19.260841 20.763672 15.474058 20.763672 11.195312 C 20.763672 5.813011 16.384258 1.4316406 11.001953 1.4316406 L 11 1.4316406 z M 11.005859 5.4511719 A 1.0502018 1.0502018 0 0 1 12.056641 6.5019531 A 1.0502018 1.0502018 0 0 1 11.005859 7.5507812 A 1.0502018 1.0502018 0 0 1 9.9550781 6.5019531 A 1.0502018 1.0502018 0 0 1 11.005859 5.4511719 z M 7.828125 6.4238281 A 1.0502018 1.0502018 0 0 1 8.8789062 7.4726562 A 1.0502018 1.0502018 0 0 1 7.828125 8.5234375 A 1.0502018 1.0502018 0 0 1 6.7792969 7.4726562 A 1.0502018 1.0502018 0 0 1 7.828125 6.4238281 z M 14.171875 6.4238281 A 1.0502018 1.0502018 0 0 1 15.220703 7.4726562 A 1.0502018 1.0502018 0 0 1 14.171875 8.5234375 A 1.0502018 1.0502018 0 0 1 13.121094 7.4726562 A 1.0502018 1.0502018 0 0 1 14.171875 6.4238281 z M 5.7871094 8.9160156 A 1.0502018 1.0502018 0 0 1 6.8359375 9.9667969 A 1.0502018 1.0502018 0 0 1 5.7871094 11.017578 A 1.0502018 1.0502018 0 0 1 4.7363281 9.9667969 A 1.0502018 1.0502018 0 0 1 5.7871094 8.9160156 z M 16.220703 8.9160156 A 1.0502018 1.0502018 0 0 1 17.271484 9.9667969 A 1.0502018 1.0502018 0 0 1 16.220703 11.017578 A 1.0502018 1.0502018 0 0 1 15.169922 9.9667969 A 1.0502018 1.0502018 0 0 1 16.220703 8.9160156 z " />
</svg>
