<?xml version="1.0" encoding="UTF-8" standalone="no"?>
<svg
   width="22"
   height="22"
   viewBox="0 0 22 22"
   fill="none"
   stroke="currentColor"
   stroke-width="1.5"
   stroke-linecap="round"
   stroke-linejoin="round"
   class="icon icon-tabler icons-tabler-outline icon-tabler-adjustments"
   version="1.1"
   id="svg10"
   sodipodi:docname="mixer-24.svg"
   inkscape:version="1.4 (e7c3feb100, 2024-10-09)"
   xmlns:inkscape="http://www.inkscape.org/namespaces/inkscape"
   xmlns:sodipodi="http://sodipodi.sourceforge.net/DTD/sodipodi-0.dtd"
   xmlns="http://www.w3.org/2000/svg"
   xmlns:svg="http://www.w3.org/2000/svg">
  <defs
     id="defs10" />
  <sodipodi:namedview
     id="namedview10"
     pagecolor="#505050"
     bordercolor="#eeeeee"
     borderopacity="1"
     inkscape:showpageshadow="0"
     inkscape:pageopacity="0"
     inkscape:pagecheckerboard="0"
     inkscape:deskcolor="#505050"
     inkscape:zoom="17.530356"
     inkscape:cx="8.8132838"
     inkscape:cy="6.7311812"
     inkscape:window-width="2560"
     inkscape:window-height="1376"
     inkscape:window-x="0"
     inkscape:window-y="0"
     inkscape:window-maximized="1"
     inkscape:current-layer="svg10" />
  <path
     stroke="none"
     d="M 0,0 H 22 V 22 H 0 Z"
     fill="none"
     id="path1"
     style="stroke-width:1.375" />
  <path
     d="m 3.6666667,9.1666667 a 1.8333333,1.8333333 0 1 0 3.6666666,0 1.8333333,1.8333333 0 0 0 -3.6666666,0"
     id="path2"
     style="stroke-width:1.5;stroke-dasharray:none" />
  <path
     d="M 5.5,3.6666667 V 7.3333333"
     id="path3"
     style="stroke-width:1.5;stroke-dasharray:none" />
  <path
     d="m 5.5,11 v 7.333333"
     id="path4"
     style="stroke-width:1.5;stroke-dasharray:none" />
  <path
     d="m 9.1666667,14.666667 a 1.8333333,1.8333333 0 1 0 3.6666663,0 1.8333333,1.8333333 0 0 0 -3.6666663,0"
     id="path5"
     style="stroke-width:1.5;stroke-dasharray:none" />
  <path
     d="M 11,3.6666667 V 12.833333"
     id="path6"
     style="stroke-width:1.5;stroke-dasharray:none" />
  <path
     d="m 11,16.5 v 1.833333"
     id="path7"
     style="stroke-width:1.5;stroke-dasharray:none" />
  <path
     d="m 14.666667,6.4166667 a 1.8333333,1.8333333 0 1 0 3.666666,0 1.8333333,1.8333333 0 0 0 -3.666666,0"
     id="path8"
     style="stroke-width:1.5;stroke-dasharray:none" />
  <path
     d="M 16.5,3.6666667 V 4.5833333"
     id="path9"
     style="stroke-width:1.5;stroke-dasharray:none" />
  <path
     d="M 16.5,8.25 V 18.333333"
     id="path10"
     style="stroke-width:1.5;stroke-dasharray:none" />
</svg>
