<?xml version="1.0" encoding="UTF-8" standalone="no"?>
<svg
   width="22"
   height="22"
   viewBox="0 0 22 22"
   fill="none"
   stroke="currentColor"
   stroke-width="1.5"
   stroke-linecap="round"
   stroke-linejoin="round"
   class="icon icon-tabler icons-tabler-outline icon-tabler-player-pause"
   version="1.1"
   id="svg3"
   sodipodi:docname="pause-24.svg"
   inkscape:version="1.4 (e7c3feb100, 2024-10-09)"
   xmlns:inkscape="http://www.inkscape.org/namespaces/inkscape"
   xmlns:sodipodi="http://sodipodi.sourceforge.net/DTD/sodipodi-0.dtd"
   xmlns="http://www.w3.org/2000/svg"
   xmlns:svg="http://www.w3.org/2000/svg">
  <defs
     id="defs3" />
  <sodipodi:namedview
     id="namedview3"
     pagecolor="#505050"
     bordercolor="#eeeeee"
     borderopacity="1"
     inkscape:showpageshadow="0"
     inkscape:pageopacity="0"
     inkscape:pagecheckerboard="0"
     inkscape:deskcolor="#505050"
     inkscape:zoom="24.791667"
     inkscape:cx="5.5462185"
     inkscape:cy="10.205042"
     inkscape:window-width="2560"
     inkscape:window-height="1376"
     inkscape:window-x="0"
     inkscape:window-y="0"
     inkscape:window-maximized="1"
     inkscape:current-layer="svg3" />
  <path
     stroke="none"
     d="M 0,0 H 22 V 22 H 0 Z"
     fill="none"
     id="path1"
     style="stroke-width:1.375" />
  <path
     d="M 5.5,4.5833333 M 5.5,5.5 A 0.91666667,0.91666667 0 0 1 6.4166667,4.5833333 H 8.25 A 0.91666667,0.91666667 0 0 1 9.1666667,5.5 v 11 A 0.91666667,0.91666667 0 0 1 8.25,17.416667 H 6.4166667 A 0.91666667,0.91666667 0 0 1 5.5,16.5 Z"
     id="path2"
     style="stroke-width:1.5;stroke-dasharray:none" />
  <path
     d="m 12.833333,4.5833333 m 0,0.9166667 A 0.91666667,0.91666667 0 0 1 13.75,4.5833333 h 1.833333 A 0.91666667,0.91666667 0 0 1 16.5,5.5 v 11 a 0.91666667,0.91666667 0 0 1 -0.916667,0.916667 H 13.75 A 0.91666667,0.91666667 0 0 1 12.833333,16.5 Z"
     id="path3"
     style="stroke-width:1.5;stroke-dasharray:none" />
</svg>
