<?xml version="1.0" encoding="UTF-8" standalone="no"?>
<svg
   width="16"
   height="16"
   fill="currentColor"
   class="bi bi-wrench"
   viewBox="0 0 16 16"
   version="1.1"
   id="svg238"
   sodipodi:docname="properties.svg"
   inkscape:version="1.2.1 (9c6d41e410, 2022-07-14, custom)"
   xmlns:inkscape="http://www.inkscape.org/namespaces/inkscape"
   xmlns:sodipodi="http://sodipodi.sourceforge.net/DTD/sodipodi-0.dtd"
   xmlns="http://www.w3.org/2000/svg"
   xmlns:svg="http://www.w3.org/2000/svg">
  <defs
     id="defs242" />
  <sodipodi:namedview
     id="namedview240"
     pagecolor="#505050"
     bordercolor="#eeeeee"
     borderopacity="1"
     inkscape:showpageshadow="0"
     inkscape:pageopacity="0"
     inkscape:pagecheckerboard="0"
     inkscape:deskcolor="#505050"
     showgrid="false"
     inkscape:zoom="14.75"
     inkscape:cx="8"
     inkscape:cy="8"
     inkscape:window-width="2560"
     inkscape:window-height="1374"
     inkscape:window-x="0"
     inkscape:window-y="0"
     inkscape:window-maximized="1"
     inkscape:current-layer="svg238" />
  <path
     d="M 0.60254546,2.589161 A 2.8135819,2.8135819 0 0 0 4.0474037,6.0302728 L 9.9864592,11.88597 A 2.8126453,2.8126453 0 0 0 12.682965,15.492862 2.8098354,2.8098354 0 1 0 11.885908,9.9874577 L 6.0302109,4.0484022 A 2.8135819,2.8135819 0 0 0 2.5890991,0.60073414 L 4.594385,2.6069566 4.2534583,4.2535202 2.6078314,4.5944469 Z m 12.52249954,8.447302 0.494531,0.02435 0.268808,0.416792 0.416792,0.268808 0.02435,0.495467 0.22666,0.441145 -0.22666,0.441144 -0.02435,0.495467 -0.416792,0.268808 -0.268808,0.416792 -0.495467,0.02435 -0.441144,0.22666 -0.441145,-0.22666 -0.495467,-0.02435 -0.268808,-0.416792 -0.416792,-0.268808 -0.02435,-0.495467 -0.22666,-0.441144 0.22666,-0.441145 0.02435,-0.495467 0.416792,-0.268808 0.268808,-0.416792 0.495467,-0.02435 0.441145,-0.22666 0.441144,0.22666 z"
     id="path236"
     style="stroke-width:0.936612" />
</svg>
