<?xml version="1.0" encoding="UTF-8" standalone="no"?>
<svg
   width="22"
   height="22"
   viewBox="0 0 22 22"
   fill="none"
   stroke="currentColor"
   stroke-width="1.5"
   stroke-linecap="round"
   stroke-linejoin="round"
   class="icon icon-tabler icons-tabler-outline icon-tabler-square-letter-q"
   version="1.1"
   id="svg4"
   sodipodi:docname="quantize-24.svg"
   inkscape:version="1.4 (e7c3feb100, 2024-10-09)"
   xmlns:inkscape="http://www.inkscape.org/namespaces/inkscape"
   xmlns:sodipodi="http://sodipodi.sourceforge.net/DTD/sodipodi-0.dtd"
   xmlns="http://www.w3.org/2000/svg"
   xmlns:svg="http://www.w3.org/2000/svg">
  <defs
     id="defs4" />
  <sodipodi:namedview
     id="namedview4"
     pagecolor="#505050"
     bordercolor="#eeeeee"
     borderopacity="1"
     inkscape:showpageshadow="0"
     inkscape:pageopacity="0"
     inkscape:pagecheckerboard="0"
     inkscape:deskcolor="#505050"
     inkscape:zoom="12.395833"
     inkscape:cx="-1.1697479"
     inkscape:cy="3.8722689"
     inkscape:window-width="2560"
     inkscape:window-height="1376"
     inkscape:window-x="0"
     inkscape:window-y="0"
     inkscape:window-maximized="1"
     inkscape:current-layer="svg4" />
  <path
     stroke="none"
     d="M 0,0 H 22 V 22 H 0 Z"
     fill="none"
     id="path1"
     style="stroke-width:1.375" />
  <path
     d="m 2.75,2.75 m 0,1.8333333 A 1.8333333,1.8333333 0 0 1 4.5833333,2.75 H 17.416667 A 1.8333333,1.8333333 0 0 1 19.25,4.5833333 V 17.416667 A 1.8333333,1.8333333 0 0 1 17.416667,19.25 H 4.5833333 A 1.8333333,1.8333333 0 0 1 2.75,17.416667 Z"
     id="path2"
     style="stroke-width:1.5;stroke-dasharray:none" />
  <path
     d="m 11,7.3333333 a 1.8333333,1.8333333 0 0 1 1.833333,1.8333334 v 3.6666663 a 1.8333333,1.8333333 0 1 1 -3.6666663,0 V 9.1666667 A 1.8333333,1.8333333 0 0 1 11,7.3333333 Z"
     id="path3"
     style="stroke-width:1.5;stroke-dasharray:none" />
  <path
     d="m 11.916667,13.75 0.916666,0.916667"
     id="path4"
     style="stroke-width:1.5;stroke-dasharray:none" />
</svg>
