<?xml version="1.0" encoding="UTF-8" standalone="no"?>
<svg
   width="24px"
   height="24px"
   stroke-width="1.57"
   viewBox="0 0 24 24"
   fill="none"
   color="#000000"
   version="1.1"
   id="svg4245"
   sodipodi:docname="undo-action.svg"
   inkscape:version="1.2.1 (9c6d41e410, 2022-07-14, custom)"
   xmlns:inkscape="http://www.inkscape.org/namespaces/inkscape"
   xmlns:sodipodi="http://sodipodi.sourceforge.net/DTD/sodipodi-0.dtd"
   xmlns="http://www.w3.org/2000/svg"
   xmlns:svg="http://www.w3.org/2000/svg">
  <defs
     id="defs4249" />
  <sodipodi:namedview
     id="namedview4247"
     pagecolor="#505050"
     bordercolor="#eeeeee"
     borderopacity="1"
     inkscape:showpageshadow="0"
     inkscape:pageopacity="0"
     inkscape:pagecheckerboard="0"
     inkscape:deskcolor="#505050"
     showgrid="false"
     inkscape:zoom="9.8333333"
     inkscape:cx="12"
     inkscape:cy="12.050847"
     inkscape:window-width="2560"
     inkscape:window-height="1377"
     inkscape:window-x="2560"
     inkscape:window-y="0"
     inkscape:window-maximized="1"
     inkscape:current-layer="svg4245" />
  <path
     style="color:#000000;fill:#000000;stroke-linecap:round;stroke-linejoin:round;-inkscape-stroke:none"
     d="M 5,6.2148437 A 0.78500003,0.78500003 0 0 0 4.2148437,7 v 5 A 0.78500003,0.78500003 0 0 0 5,12.785156 0.78500003,0.78500003 0 0 0 5.7851562,12 V 7 A 0.78500003,0.78500003 0 0 0 5,6.2148437 Z M 7.875,8.7148438 A 0.78500003,0.78500003 0 0 0 7.0898437,9.5 0.78500003,0.78500003 0 0 0 7.875,10.285156 h 7 c 1.172802,0 1.953403,0.423086 2.5,1.056641 0.546597,0.633555 0.839844,1.515018 0.839844,2.408203 0,0.893185 -0.293247,1.774648 -0.839844,2.408203 -0.546597,0.633555 -1.327198,1.056641 -2.5,1.056641 h -10 A 0.78500003,0.78500003 0 0 0 4.0898437,18 0.78500003,0.78500003 0 0 0 4.875,18.785156 h 10 c 1.577195,0 2.859098,-0.639416 3.6875,-1.599609 0.828402,-0.960193 1.222656,-2.203735 1.222656,-3.435547 0,-1.231812 -0.394254,-2.475354 -1.222656,-3.435547 C 17.734098,9.35426 16.452195,8.7148437 14.875,8.7148438 Z"
     id="path4241" />
  <path
     style="color:#000000;fill:#000000;stroke-linecap:round;stroke-linejoin:round;-inkscape-stroke:none"
     d="m 11.375,5.2148437 a 0.78500003,0.78500003 0 0 0 -0.554687,0.2304688 l -3.5000005,3.5 a 0.78507853,0.78507853 0 0 0 0,1.1093755 l 3.5000005,3.5 a 0.78500003,0.78500003 0 0 0 1.109375,0 0.78500003,0.78500003 0 0 0 0,-1.109375 L 8.984375,9.5 11.929688,6.5546875 a 0.78500003,0.78500003 0 0 0 0,-1.109375 A 0.78500003,0.78500003 0 0 0 11.375,5.2148437 Z"
     id="path4243" />
</svg>
