<?xml version="1.0" encoding="UTF-8" standalone="no"?>
<svg
   width="24px"
   height="24px"
   stroke-width="1.57"
   viewBox="0 0 24 24"
   fill="none"
   color="#000000"
   version="1.1"
   id="svg10148"
   sodipodi:docname="rewind-outline.svg"
   inkscape:version="1.2.1 (9c6d41e410, 2022-07-14, custom)"
   xmlns:inkscape="http://www.inkscape.org/namespaces/inkscape"
   xmlns:sodipodi="http://sodipodi.sourceforge.net/DTD/sodipodi-0.dtd"
   xmlns="http://www.w3.org/2000/svg"
   xmlns:svg="http://www.w3.org/2000/svg">
  <defs
     id="defs10152" />
  <sodipodi:namedview
     id="namedview10150"
     pagecolor="#505050"
     bordercolor="#eeeeee"
     borderopacity="1"
     inkscape:showpageshadow="0"
     inkscape:pageopacity="0"
     inkscape:pagecheckerboard="0"
     inkscape:deskcolor="#505050"
     showgrid="false"
     inkscape:zoom="9.8333333"
     inkscape:cx="12"
     inkscape:cy="12.050847"
     inkscape:window-width="2560"
     inkscape:window-height="1377"
     inkscape:window-x="2560"
     inkscape:window-y="0"
     inkscape:window-maximized="1"
     inkscape:current-layer="svg10148" />
  <path
     style="color:#000000;fill:#000000;stroke-linecap:round;stroke-linejoin:round;-inkscape-stroke:none"
     d="m 21.044922,4.9199219 0.03906,0.1191406 c -0.172618,0.036561 -0.34972,-0.080052 -0.503906,0.033203 -5.95e-4,4.372e-4 -0.0014,-4.383e-4 -0.002,0 a 0.78507853,0.78507853 0 0 0 0,0.00195 l -7.888672,5.8105473 c -0.733479,0.540565 -0.733479,1.689903 0,2.230468 l 7.888672,5.8125 c 0.875392,0.645251 2.207078,-0.02773 2.207031,-1.115234 V 6.1875 C 22.785192,5.3692643 22.033214,4.9912446 21.287109,5.0273437 A 0.78507853,0.78507853 0 0 0 21.044922,4.9199219 Z M 11.009766,4.9804687 C 10.567493,4.7570191 10.015821,4.7496401 9.578125,5.0722656 L 1.6894531,10.884766 c -0.73347948,0.540565 -0.73347948,1.689903 0,2.230468 l 7.8886719,5.8125 c 0.875392,0.645251 2.207078,-0.02773 2.207031,-1.115234 V 6.1875 C 11.78518,5.6437492 11.452039,5.2039184 11.009766,4.9804687 Z M 10.214844,6.5527344 V 17.447266 L 2.8222656,12 Z m 11,0 V 17.447266 L 13.822266,12 Z"
     id="path10146" />
</svg>
