<?xml version="1.0" encoding="utf-8"?>
<!-- Generator: Adobe Illustrator 24.1.2, SVG Export Plug-In . SVG Version: 6.00 Build 0)  -->
<svg version="1.1" id="Layer_1" xmlns="http://www.w3.org/2000/svg" xmlns:xlink="http://www.w3.org/1999/xlink" x="0px" y="0px"
	 viewBox="0 0 48 48" style="enable-background:new 0 0 48 48;" xml:space="preserve">
<g>
	<g>
		<rect x="16.45" y="9.35" width="11.54" height="6.21"/>
		<rect x="16.45" y="30.66" width="15.09" height="7.99"/>
		<path d="M36.43,38.65c1.22,0,2.22-1,2.22-2.22V18.37c0-0.59-0.23-1.15-0.65-1.57L31.2,10c-0.16-0.16-0.35-0.26-0.54-0.36v7.26
			c0,0.74-0.6,1.33-1.33,1.33h-14.2c-0.74,0-1.33-0.6-1.33-1.33V9.35h-2.22c-1.22,0-2.22,1-2.22,2.22v24.85c0,1.22,1,2.22,2.22,2.22
			h2.22v-9.32c0-0.74,0.6-1.33,1.33-1.33h17.75c0.74,0,1.33,0.6,1.33,1.33v9.32H36.43z"/>
	</g>
</g>
</svg>
