<?xml version="1.0" encoding="UTF-8" standalone="no"?>
<svg
   width="24px"
   height="24px"
   stroke-width="1.57"
   viewBox="0 0 24 24"
   fill="none"
   color="#000000"
   version="1.1"
   id="svg6105"
   sodipodi:docname="search.svg"
   inkscape:version="1.2.1 (9c6d41e410, 2022-07-14, custom)"
   xmlns:inkscape="http://www.inkscape.org/namespaces/inkscape"
   xmlns:sodipodi="http://sodipodi.sourceforge.net/DTD/sodipodi-0.dtd"
   xmlns="http://www.w3.org/2000/svg"
   xmlns:svg="http://www.w3.org/2000/svg">
  <defs
     id="defs6109" />
  <sodipodi:namedview
     id="namedview6107"
     pagecolor="#505050"
     bordercolor="#eeeeee"
     borderopacity="1"
     inkscape:showpageshadow="0"
     inkscape:pageopacity="0"
     inkscape:pagecheckerboard="0"
     inkscape:deskcolor="#505050"
     showgrid="false"
     inkscape:zoom="9.8333333"
     inkscape:cx="12"
     inkscape:cy="12.050847"
     inkscape:window-width="2560"
     inkscape:window-height="1377"
     inkscape:window-x="2560"
     inkscape:window-y="0"
     inkscape:window-maximized="1"
     inkscape:current-layer="svg6105" />
  <path
     style="color:#000000;fill:#000000;stroke-linecap:round;stroke-linejoin:round;-inkscape-stroke:none"
     d="m 11,4.2148437 c -3.7379494,0 -6.7851563,3.0472041 -6.7851563,6.7851563 0,3.737952 3.0472069,6.785156 6.7851563,6.785156 1.582112,0 2.9769,-0.629891 4.132813,-1.542969 l 3.312499,3.3125 a 0.78500003,0.78500003 0 0 0 1.109375,0 0.78500003,0.78500003 0 0 0 0,-1.109375 l -3.3125,-3.312499 C 17.155266,13.976901 17.785156,12.582113 17.785156,11 17.785156,7.2620478 14.737949,4.2148437 11,4.2148437 Z m 0,1.5703125 c 2.889461,0 5.214844,2.3253812 5.214844,5.2148438 0,2.889463 -2.325383,5.214844 -5.214844,5.214844 C 8.1105392,16.214844 5.7851562,13.889463 5.7851562,11 5.7851562,8.1105374 8.1105392,5.7851562 11,5.7851562 Z"
     id="path6103" />
</svg>
