<?xml version="1.0" encoding="UTF-8" standalone="no"?>
<svg
   width="22"
   height="22"
   viewBox="0 0 22 22"
   fill="none"
   stroke="currentColor"
   stroke-width="1.5"
   stroke-linecap="round"
   stroke-linejoin="round"
   class="icon icon-tabler icons-tabler-outline icon-tabler-select-all"
   version="1.1"
   id="svg18"
   sodipodi:docname="select-all-24.svg"
   inkscape:version="1.4 (e7c3feb100, 2024-10-09)"
   xmlns:inkscape="http://www.inkscape.org/namespaces/inkscape"
   xmlns:sodipodi="http://sodipodi.sourceforge.net/DTD/sodipodi-0.dtd"
   xmlns="http://www.w3.org/2000/svg"
   xmlns:svg="http://www.w3.org/2000/svg">
  <defs
     id="defs18" />
  <sodipodi:namedview
     id="namedview18"
     pagecolor="#505050"
     bordercolor="#eeeeee"
     borderopacity="1"
     inkscape:showpageshadow="0"
     inkscape:pageopacity="0"
     inkscape:pagecheckerboard="0"
     inkscape:deskcolor="#505050"
     inkscape:zoom="17.530356"
     inkscape:cx="2.1391466"
     inkscape:cy="5.6473469"
     inkscape:window-width="2560"
     inkscape:window-height="1376"
     inkscape:window-x="0"
     inkscape:window-y="0"
     inkscape:window-maximized="1"
     inkscape:current-layer="svg18" />
  <path
     stroke="none"
     d="M 0,0 H 22 V 22 H 0 Z"
     fill="none"
     id="path1"
     style="stroke-width:1.375" />
  <path
     d="m 7.3333333,7.3333333 m 0,0.9166667 A 0.91666667,0.91666667 0 0 1 8.25,7.3333333 h 5.5 A 0.91666667,0.91666667 0 0 1 14.666667,8.25 v 5.5 A 0.91666667,0.91666667 0 0 1 13.75,14.666667 H 8.25 A 0.91666667,0.91666667 0 0 1 7.3333333,13.75 Z"
     id="path2"
     style="stroke-width:1.5;stroke-dasharray:none" />
  <path
     d="m 11,18.333333 v 0.0092"
     id="path3"
     style="stroke-width:1.5;stroke-dasharray:none" />
  <path
     d="m 14.666667,18.333333 v 0.0092"
     id="path4"
     style="stroke-width:1.5;stroke-dasharray:none" />
  <path
     d="m 7.3333333,18.333333 v 0.0092"
     id="path5"
     style="stroke-width:1.5;stroke-dasharray:none" />
  <path
     d="m 3.6666667,18.333333 v 0.0092"
     id="path6"
     style="stroke-width:1.5;stroke-dasharray:none" />
  <path
     d="m 3.6666667,14.666667 v 0.0092"
     id="path7"
     style="stroke-width:1.5;stroke-dasharray:none" />
  <path
     d="m 3.6666667,11 v 0.0092"
     id="path8"
     style="stroke-width:1.5;stroke-dasharray:none" />
  <path
     d="M 3.6666667,7.3333333 V 7.3425"
     id="path9"
     style="stroke-width:1.5;stroke-dasharray:none" />
  <path
     d="m 3.6666667,3.6666667 v 0.00917"
     id="path10"
     style="stroke-width:1.5;stroke-dasharray:none" />
  <path
     d="m 7.3333333,3.6666667 v 0.00917"
     id="path11"
     style="stroke-width:1.5;stroke-dasharray:none" />
  <path
     d="m 11,3.6666667 v 0.00917"
     id="path12"
     style="stroke-width:1.5;stroke-dasharray:none" />
  <path
     d="m 14.666667,3.6666667 v 0.00917"
     id="path13"
     style="stroke-width:1.5;stroke-dasharray:none" />
  <path
     d="m 18.333333,3.6666667 v 0.00917"
     id="path14"
     style="stroke-width:1.5;stroke-dasharray:none" />
  <path
     d="M 18.333333,7.3333333 V 7.3425"
     id="path15"
     style="stroke-width:1.5;stroke-dasharray:none" />
  <path
     d="m 18.333333,11 v 0.0092"
     id="path16"
     style="stroke-width:1.5;stroke-dasharray:none" />
  <path
     d="m 18.333333,14.666667 v 0.0092"
     id="path17"
     style="stroke-width:1.5;stroke-dasharray:none" />
  <path
     d="m 18.333333,18.333333 v 0.0092"
     id="path18"
     style="stroke-width:1.5;stroke-dasharray:none" />
</svg>
