<?xml version="1.0" encoding="UTF-8" standalone="no"?>
<svg
   width="24px"
   height="24px"
   stroke-width="1.57"
   viewBox="0 0 24 24"
   fill="none"
   color="#000000"
   version="1.1"
   id="svg10281"
   sodipodi:docname="skip-next-outline.svg"
   inkscape:version="1.2.1 (9c6d41e410, 2022-07-14, custom)"
   xmlns:inkscape="http://www.inkscape.org/namespaces/inkscape"
   xmlns:sodipodi="http://sodipodi.sourceforge.net/DTD/sodipodi-0.dtd"
   xmlns="http://www.w3.org/2000/svg"
   xmlns:svg="http://www.w3.org/2000/svg">
  <defs
     id="defs10285" />
  <sodipodi:namedview
     id="namedview10283"
     pagecolor="#505050"
     bordercolor="#eeeeee"
     borderopacity="1"
     inkscape:showpageshadow="0"
     inkscape:pageopacity="0"
     inkscape:pagecheckerboard="0"
     inkscape:deskcolor="#505050"
     showgrid="false"
     inkscape:zoom="9.8333333"
     inkscape:cx="12"
     inkscape:cy="12.050847"
     inkscape:window-width="2560"
     inkscape:window-height="1377"
     inkscape:window-x="2560"
     inkscape:window-y="0"
     inkscape:window-maximized="1"
     inkscape:current-layer="svg10281" />
  <path
     style="color:#000000;fill:#000000;stroke-linecap:round;stroke-linejoin:round;-inkscape-stroke:none"
     d="M 6.0117187,4.5234375 C 5.5591604,4.7427328 5.2146236,5.1855365 5.2148437,5.7382812 V 18.261719 a 0.78507853,0.78507853 0 0 0 0,0.002 c 0.0014,1.104605 1.3774658,1.768841 2.2441407,1.083984 l 7.9296876,-6.259765 c 0.688248,-0.543143 0.688248,-1.632639 0,-2.175782 L 7.4589844,4.6503906 C 7.0252999,4.3076888 6.4642771,4.3041422 6.0117187,4.5234375 Z M 6.7851562,6.1191406 14.232422,12 6.7851562,17.878906 Z M 18,6.2148437 A 0.78500003,0.78500003 0 0 0 17.214844,7 V 17 A 0.78500003,0.78500003 0 0 0 18,17.785156 0.78500003,0.78500003 0 0 0 18.785156,17 V 7 A 0.78500003,0.78500003 0 0 0 18,6.2148437 Z"
     id="path10279" />
</svg>
