<?xml version="1.0" encoding="UTF-8" standalone="no"?>
<!-- Generator: Adobe Illustrator 24.1.2, SVG Export Plug-In . SVG Version: 6.00 Build 0)  -->

<svg
   version="1.1"
   id="Layer_1"
   x="0px"
   y="0px"
   viewBox="0 0 48 48"
   style="enable-background:new 0 0 48 48;"
   xml:space="preserve"
   sodipodi:docname="terminal.svg"
   inkscape:version="1.2.1 (9c6d41e410, 2022-07-14, custom)"
   xmlns:inkscape="http://www.inkscape.org/namespaces/inkscape"
   xmlns:sodipodi="http://sodipodi.sourceforge.net/DTD/sodipodi-0.dtd"
   xmlns="http://www.w3.org/2000/svg"
   xmlns:svg="http://www.w3.org/2000/svg"><defs
   id="defs636" /><sodipodi:namedview
   id="namedview634"
   pagecolor="#505050"
   bordercolor="#eeeeee"
   borderopacity="1"
   inkscape:showpageshadow="0"
   inkscape:pageopacity="0"
   inkscape:pagecheckerboard="0"
   inkscape:deskcolor="#505050"
   showgrid="false"
   inkscape:zoom="4.9166667"
   inkscape:cx="24"
   inkscape:cy="24"
   inkscape:window-width="2560"
   inkscape:window-height="1412"
   inkscape:window-x="2560"
   inkscape:window-y="0"
   inkscape:window-maximized="1"
   inkscape:current-layer="Layer_1" />
<path
   d="m 21.159009,36.742285 c 0,-1.568904 1.269226,-2.83813 2.83813,-2.83813 h 16.993529 c 1.568905,0 2.83813,1.269226 2.83813,2.83813 0,1.568905 -1.269225,2.838131 -2.83813,2.838131 H 23.997139 c -1.568904,0 -2.83813,-1.269226 -2.83813,-2.838131 z M 9.0132193,9.2600133 c -1.110573,-1.110573 -2.9086434,-1.110573 -4.0015881,0 -1.1105729,1.1105727 -1.1105729,2.9086437 0,4.0015877 v 0 l 9.3252868,9.325287 -9.3252868,9.325287 c -1.1105729,1.110573 -1.1105729,2.908643 0,4.001588 1.1105729,1.110573 2.9086433,1.110573 4.0015881,0 L 20.348114,24.578868 c 1.110573,-1.110573 1.110573,-2.891015 0,-4.001588 0,0 0,0 0,0 z"
   id="path631"
   style="stroke-width:1.76281" />
</svg>
