<?xml version="1.0" encoding="UTF-8" standalone="no"?>
<svg
   width="24px"
   height="24px"
   stroke-width="1.57"
   viewBox="0 0 24 24"
   fill="none"
   color="#000000"
   version="1.1"
   id="svg3201"
   sodipodi:docname="terminal-simple.svg"
   inkscape:version="1.2.1 (9c6d41e410, 2022-07-14, custom)"
   xmlns:inkscape="http://www.inkscape.org/namespaces/inkscape"
   xmlns:sodipodi="http://sodipodi.sourceforge.net/DTD/sodipodi-0.dtd"
   xmlns="http://www.w3.org/2000/svg"
   xmlns:svg="http://www.w3.org/2000/svg">
  <defs
     id="defs3205" />
  <sodipodi:namedview
     id="namedview3203"
     pagecolor="#505050"
     bordercolor="#eeeeee"
     borderopacity="1"
     inkscape:showpageshadow="0"
     inkscape:pageopacity="0"
     inkscape:pagecheckerboard="0"
     inkscape:deskcolor="#505050"
     showgrid="false"
     inkscape:zoom="9.8333333"
     inkscape:cx="12"
     inkscape:cy="12.050847"
     inkscape:window-width="2560"
     inkscape:window-height="1377"
     inkscape:window-x="2560"
     inkscape:window-y="0"
     inkscape:window-maximized="1"
     inkscape:current-layer="svg3201" />
  <path
     style="color:#000000;fill:#000000;stroke-linecap:round;stroke-linejoin:round;-inkscape-stroke:none"
     d="m 5,6.2148437 a 0.78500003,0.78500003 0 0 0 -0.5546875,0.2304688 0.78500003,0.78500003 0 0 0 0,1.109375 L 8.890625,12 4.4453125,16.445312 a 0.78500003,0.78500003 0 0 0 0,1.109375 0.78500003,0.78500003 0 0 0 1.109375,0 l 5.0000005,-4.999999 a 0.78507853,0.78507853 0 0 0 0,-1.109375 L 5.5546875,6.4453125 A 0.78500003,0.78500003 0 0 0 5,6.2148437 Z M 13,16.214844 A 0.78500003,0.78500003 0 0 0 12.214844,17 0.78500003,0.78500003 0 0 0 13,17.785156 h 7 A 0.78500003,0.78500003 0 0 0 20.785156,17 0.78500003,0.78500003 0 0 0 20,16.214844 Z"
     id="path3199" />
</svg>
