<?xml version="1.0" encoding="UTF-8" standalone="no"?>
<svg
   width="24px"
   height="24px"
   stroke-width="1.57"
   viewBox="0 0 24 24"
   fill="none"
   color="#000000"
   version="1.1"
   id="svg8"
   sodipodi:docname="meadowlark-undo-symbolic.svg"
   inkscape:version="1.2.1 (9c6d41e410, 2022-07-14, custom)"
   xmlns:inkscape="http://www.inkscape.org/namespaces/inkscape"
   xmlns:sodipodi="http://sodipodi.sourceforge.net/DTD/sodipodi-0.dtd"
   xmlns="http://www.w3.org/2000/svg"
   xmlns:svg="http://www.w3.org/2000/svg">
  <defs
     id="defs12" />
  <sodipodi:namedview
     id="namedview10"
     pagecolor="#505050"
     bordercolor="#eeeeee"
     borderopacity="1"
     inkscape:showpageshadow="0"
     inkscape:pageopacity="0"
     inkscape:pagecheckerboard="0"
     inkscape:deskcolor="#505050"
     showgrid="false"
     inkscape:zoom="9.8333333"
     inkscape:cx="12"
     inkscape:cy="12"
     inkscape:window-width="2560"
     inkscape:window-height="1374"
     inkscape:window-x="2560"
     inkscape:window-y="0"
     inkscape:window-maximized="1"
     inkscape:current-layer="svg8" />
  <path
     style="color:#000000;fill:#000000;stroke-linecap:round;stroke-linejoin:round;-inkscape-stroke:none"
     d="M 7,9.8398438 A 0.78500003,0.78500003 0 0 0 6.2148437,10.625 0.78500003,0.78500003 0 0 0 7,11.410156 h 7.199219 c 0,0 0.521318,0.0091 1.029297,0.28125 0.507978,0.272132 0.986328,0.677817 0.986328,1.933594 0,1.470412 -0.517691,1.978802 -1.019531,2.28125 -0.501841,0.302448 -0.996094,0.308594 -0.996094,0.308594 H 13.400391 A 0.78500003,0.78500003 0 0 0 12.615234,17 a 0.78500003,0.78500003 0 0 0 0.785157,0.785156 h 0.798828 c 0,0 0.908482,0.0061 1.80664,-0.535156 0.898159,-0.541301 1.779297,-1.720415 1.779297,-3.625 0,-1.74422 -0.922433,-2.838538 -1.814453,-3.316406 -0.89202,-0.4778682 -1.771484,-0.4687503 -1.771484,-0.4687502 z"
     id="path2" />
  <path
     style="color:#000000;fill:#000000;stroke-linecap:round;stroke-linejoin:round;-inkscape-stroke:none"
     d="M 10.486328,6.2148437 A 0.78500003,0.78500003 0 0 0 9.9355469,6.4550781 l -3.5,3.6249999 a 0.78507853,0.78507853 0 0 0 0.019531,1.109375 l 3.5,3.375 a 0.78500003,0.78500003 0 0 0 1.1093749,-0.01953 0.78500003,0.78500003 0 0 0 -0.01953,-1.109375 L 8.109375,10.605469 11.064453,7.5449219 a 0.78500003,0.78500003 0 0 0 -0.01953,-1.109375 0.78500003,0.78500003 0 0 0 -0.558594,-0.2207032 z"
     id="path4" />
  <path
     style="color:#000000;fill:#000000;stroke-linecap:round;stroke-linejoin:round;-inkscape-stroke:none"
     d="M 12,1.2148437 C 6.0527866,1.2148437 1.2148437,6.0527866 1.2148437,12 1.2148437,17.947213 6.0527866,22.785156 12,22.785156 17.947213,22.785156 22.785156,17.947213 22.785156,12 22.785156,6.0527866 17.947213,1.2148437 12,1.2148437 Z m 0,1.5703126 c 5.098776,0 9.214844,4.1160681 9.214844,9.2148437 0,5.098776 -4.116068,9.214844 -9.214844,9.214844 C 6.9012244,21.214844 2.7851563,17.098776 2.7851563,12 2.7851563,6.9012244 6.9012244,2.7851563 12,2.7851563 Z"
     id="path6" />
</svg>
