<?xml version="1.0" encoding="utf-8"?>
<!-- Generator: Adobe Illustrator 24.1.2, SVG Export Plug-In . SVG Version: 6.00 Build 0)  -->
<svg version="1.1" id="Layer_1" xmlns="http://www.w3.org/2000/svg" xmlns:xlink="http://www.w3.org/1999/xlink" x="0px" y="0px"
	 viewBox="0 0 48 48" style="enable-background:new 0 0 48 48;" xml:space="preserve">
<g>
	<g>
		<g>
			<g>
				<g>
					<path d="M35.49,35.88c-0.66,0.02-1.24-0.42-1.4-1.06c-1.29-5.11-5.66-8.85-10.9-9.35v1.57c0,1-0.6,1.9-1.52,2.29
						c-1,0.46-2.18,0.29-3-0.43l-7.07-6.16c-1.03-0.88-1.16-2.43-0.28-3.47c0.09-0.1,0.18-0.19,0.28-0.28l7.07-6.18
						c0.84-0.74,2.04-0.9,3.05-0.42c0.92,0.39,1.52,1.29,1.52,2.29v1.64c7.87,0.61,13.97,7.13,14.05,15.02
						c0,1.17-0.15,2.34-0.43,3.48c-0.16,0.64-0.74,1.08-1.4,1.06H35.49z"/>
				</g>
			</g>
		</g>
	</g>
</g>
</svg>
