<?xml version="1.0" encoding="UTF-8" standalone="no"?>
<svg
   width="22"
   height="22"
   viewBox="0 0 22 22"
   fill="none"
   stroke="currentColor"
   stroke-width="1.5"
   stroke-linecap="round"
   stroke-linejoin="round"
   class="icon icon-tabler icons-tabler-outline icon-tabler-wand"
   version="1.1"
   id="svg5"
   sodipodi:docname="wand.svg"
   inkscape:version="1.4 (e7c3feb100, 2024-10-09)"
   xmlns:inkscape="http://www.inkscape.org/namespaces/inkscape"
   xmlns:sodipodi="http://sodipodi.sourceforge.net/DTD/sodipodi-0.dtd"
   xmlns="http://www.w3.org/2000/svg"
   xmlns:svg="http://www.w3.org/2000/svg">
  <defs
     id="defs5" />
  <sodipodi:namedview
     id="namedview5"
     pagecolor="#505050"
     bordercolor="#eeeeee"
     borderopacity="1"
     inkscape:showpageshadow="0"
     inkscape:pageopacity="0"
     inkscape:pagecheckerboard="0"
     inkscape:deskcolor="#505050"
     inkscape:zoom="24.791667"
     inkscape:cx="16.114286"
     inkscape:cy="7.9865546"
     inkscape:window-width="2560"
     inkscape:window-height="1376"
     inkscape:window-x="0"
     inkscape:window-y="0"
     inkscape:window-maximized="1"
     inkscape:current-layer="svg5" />
  <path
     stroke="none"
     d="M 0,0 H 22 V 22 H 0 Z"
     fill="none"
     id="path1"
     style="stroke-width:1.375" />
  <path
     d="M 5.5,19.25 19.25,5.5 16.5,2.75 2.75,16.5 5.5,19.25"
     id="path2"
     style="stroke-width:1.5;stroke-dasharray:none" />
  <path
     d="M 13.75,5.5 16.5,8.25"
     id="path3"
     style="stroke-width:1.5;stroke-dasharray:none" />
  <path
     d="M 8.25,2.75 A 1.8333333,1.8333333 0 0 0 10.083333,4.5833333 1.8333333,1.8333333 0 0 0 8.25,6.4166667 1.8333333,1.8333333 0 0 0 6.4166667,4.5833333 1.8333333,1.8333333 0 0 0 8.25,2.75"
     id="path4"
     style="stroke-width:1.5;stroke-dasharray:none" />
  <path
     d="M 17.416667,11.916667 A 1.8333333,1.8333333 0 0 0 19.25,13.75 1.8333333,1.8333333 0 0 0 17.416667,15.583333 1.8333333,1.8333333 0 0 0 15.583333,13.75 1.8333333,1.8333333 0 0 0 17.416667,11.916667"
     id="path5"
     style="stroke-width:1.5;stroke-dasharray:none" />
</svg>
