<?xml version="1.0" encoding="UTF-8" standalone="no"?>
<svg
   width="22"
   height="22"
   viewBox="0 0 22 22"
   fill="none"
   stroke="currentColor"
   stroke-width="1.5"
   stroke-linecap="round"
   stroke-linejoin="round"
   class="icon icon-tabler icons-tabler-outline icon-tabler-zoom-in-area"
   version="1.1"
   id="svg10"
   sodipodi:docname="zoom-select-24.svg"
   inkscape:version="1.4 (e7c3feb100, 2024-10-09)"
   xmlns:inkscape="http://www.inkscape.org/namespaces/inkscape"
   xmlns:sodipodi="http://sodipodi.sourceforge.net/DTD/sodipodi-0.dtd"
   xmlns="http://www.w3.org/2000/svg"
   xmlns:svg="http://www.w3.org/2000/svg">
  <defs
     id="defs10" />
  <sodipodi:namedview
     id="namedview10"
     pagecolor="#505050"
     bordercolor="#eeeeee"
     borderopacity="1"
     inkscape:showpageshadow="0"
     inkscape:pageopacity="0"
     inkscape:pagecheckerboard="0"
     inkscape:deskcolor="#505050"
     inkscape:zoom="36.239223"
     inkscape:cx="11.796611"
     inkscape:cy="9.1613444"
     inkscape:window-width="2560"
     inkscape:window-height="1376"
     inkscape:window-x="0"
     inkscape:window-y="0"
     inkscape:window-maximized="1"
     inkscape:current-layer="svg10" />
  <path
     stroke="none"
     d="M 0,0 H 22 V 22 H 0 Z"
     fill="none"
     id="path1"
     style="stroke-width:1.375" />
  <path
     d="m 13.75,13.75 m -4.5833333,0 a 4.5833333,4.5833333 0 1 0 9.1666663,0 4.5833333,4.5833333 0 1 0 -9.1666663,0"
     id="path4"
     style="stroke-width:1.5;stroke-dasharray:none" />
  <path
     d="m 20.166667,20.166667 -2.75,-2.75"
     id="path5"
     style="stroke-width:1.5;stroke-dasharray:none" />
  <path
     d="M 5.5,16.5 H 4.5833333 A 1.8333333,1.8333333 0 0 1 2.75,14.666667 V 13.75"
     id="path6"
     style="stroke-width:1.5;stroke-dasharray:none" />
  <path
     d="M 2.75,10.083333 V 9.1666667"
     id="path7"
     style="stroke-width:1.5;stroke-dasharray:none" />
  <path
     d="M 2.75,5.5 V 4.5833333 A 1.8333333,1.8333333 0 0 1 4.5833333,2.75 H 5.5"
     id="path8"
     style="stroke-width:1.5;stroke-dasharray:none" />
  <path
     d="M 9.1666667,2.75 H 10.083333"
     id="path9"
     style="stroke-width:1.5;stroke-dasharray:none" />
  <path
     d="m 13.75,2.75 h 0.916667 A 1.8333333,1.8333333 0 0 1 16.5,4.5833333 V 5.5"
     id="path10"
     style="stroke-width:1.5;stroke-dasharray:none" />
</svg>
