<?xml version="1.0" encoding="UTF-8" standalone="no"?>
<svg
   width="24px"
   height="24px"
   stroke-width="1.57"
   viewBox="0 0 24 24"
   fill="none"
   color="#000000"
   version="1.1"
   id="svg8545"
   sodipodi:docname="zoom-in.svg"
   inkscape:version="1.2.1 (9c6d41e410, 2022-07-14, custom)"
   xmlns:inkscape="http://www.inkscape.org/namespaces/inkscape"
   xmlns:sodipodi="http://sodipodi.sourceforge.net/DTD/sodipodi-0.dtd"
   xmlns="http://www.w3.org/2000/svg"
   xmlns:svg="http://www.w3.org/2000/svg">
  <defs
     id="defs8549" />
  <sodipodi:namedview
     id="namedview8547"
     pagecolor="#505050"
     bordercolor="#eeeeee"
     borderopacity="1"
     inkscape:showpageshadow="0"
     inkscape:pageopacity="0"
     inkscape:pagecheckerboard="0"
     inkscape:deskcolor="#505050"
     showgrid="false"
     inkscape:zoom="9.8333333"
     inkscape:cx="12"
     inkscape:cy="12.050847"
     inkscape:window-width="2560"
     inkscape:window-height="1377"
     inkscape:window-x="2560"
     inkscape:window-y="0"
     inkscape:window-maximized="1"
     inkscape:current-layer="svg8545" />
  <path
     style="color:#000000;fill:#000000;stroke-linecap:round;stroke-linejoin:round;-inkscape-stroke:none"
     d="m 11,3.2148438 c -4.2902336,0 -7.7851562,3.4949194 -7.7851562,7.7851562 -1e-7,4.290237 3.4949226,7.785156 7.7851562,7.785156 1.858205,0 3.49942,-0.744051 4.839844,-1.835937 l 3.605468,3.605468 a 0.78500003,0.78500003 0 0 0 1.109375,0 0.78500003,0.78500003 0 0 0 0,-1.109375 L 16.949219,15.839844 C 18.041106,14.499421 18.785156,12.858207 18.785156,11 18.785156,6.7097632 15.290234,3.2148438 11,3.2148438 Z m 0,1.5703124 c 3.441745,0 6.214844,2.7730966 6.214844,6.2148438 0,3.441747 -2.773099,6.214844 -6.214844,6.214844 C 7.558255,17.214844 4.7851562,14.441747 4.7851562,11 4.7851562,7.5582528 7.558255,4.7851562 11,4.7851562 Z m 0,3.4296876 A 0.78500003,0.78500003 0 0 0 10.214844,9 v 1.214844 H 9 A 0.78500003,0.78500003 0 0 0 8.2148438,11 0.78500003,0.78500003 0 0 0 9,11.785156 h 1.214844 V 13 A 0.78500003,0.78500003 0 0 0 11,13.785156 0.78500003,0.78500003 0 0 0 11.785156,13 V 11.785156 H 13 A 0.78500003,0.78500003 0 0 0 13.785156,11 0.78500003,0.78500003 0 0 0 13,10.214844 H 11.785156 V 9 A 0.78500003,0.78500003 0 0 0 11,8.2148438 Z"
     id="path8543" />
</svg>
