<?xml version="1.0" encoding="UTF-8" standalone="no"?>
<svg
   width="16"
   height="16"
   fill="currentColor"
   class="bi bi-zoom-in"
   viewBox="0 0 16 16"
   version="1.1"
   id="svg8"
   sodipodi:docname="zoom-reset.svg"
   inkscape:version="1.2.1 (9c6d41e410, 2022-07-14, custom)"
   xmlns:inkscape="http://www.inkscape.org/namespaces/inkscape"
   xmlns:sodipodi="http://sodipodi.sourceforge.net/DTD/sodipodi-0.dtd"
   xmlns="http://www.w3.org/2000/svg"
   xmlns:svg="http://www.w3.org/2000/svg">
  <defs
     id="defs12" />
  <sodipodi:namedview
     id="namedview10"
     pagecolor="#505050"
     bordercolor="#eeeeee"
     borderopacity="1"
     inkscape:showpageshadow="0"
     inkscape:pageopacity="0"
     inkscape:pagecheckerboard="0"
     inkscape:deskcolor="#505050"
     showgrid="false"
     inkscape:zoom="41.7193"
     inkscape:cx="4.6261562"
     inkscape:cy="5.8965515"
     inkscape:window-width="2560"
     inkscape:window-height="1374"
     inkscape:window-x="0"
     inkscape:window-y="0"
     inkscape:window-maximized="1"
     inkscape:current-layer="svg8" />
  <path
     fill-rule="evenodd"
     d="M6.5 12a5.5 5.5 0 1 0 0-11 5.5 5.5 0 0 0 0 11zM13 6.5a6.5 6.5 0 1 1-13 0 6.5 6.5 0 0 1 13 0z"
     id="path2" />
  <path
     d="M10.344 11.742c.03.04.062.078.098.115l3.85 3.85a1 1 0 0 0 1.415-1.414l-3.85-3.85a1.007 1.007 0 0 0-.115-.1 6.538 6.538 0 0 1-1.398 1.4z"
     id="path4" />
  <path
     style="fill:none;fill-opacity:1;stroke:#000000;stroke-linecap:round;stroke-opacity:1"
     d="M 3.6057998,3.4159091 V 9.576592"
     id="path972" />
  <path
     style="fill:none;fill-opacity:1;stroke:#000000;stroke-linecap:round;stroke-opacity:1"
     d="M 9.5442637,3.4159091 V 9.576592"
     id="path974" />
  <rect
     style="fill:#000000;fill-opacity:1;stroke:none;stroke-width:0.789279;stroke-linecap:round;stroke-opacity:1"
     id="rect1190"
     width="1.2922163"
     height="1.2922163"
     x="5.9289236"
     y="4.3912039"
     ry="0.27113187" />
  <rect
     style="fill:#000000;fill-opacity:1;stroke:none;stroke-width:0.789279;stroke-linecap:round;stroke-opacity:1"
     id="rect1537"
     width="1.2922163"
     height="1.2922163"
     x="5.9289236"
     y="7.2394218"
     ry="0.27113187" />
</svg>
