<?xml version="1.0" encoding="UTF-8" standalone="no"?>
<svg
   width="24px"
   height="24px"
   stroke-width="1.57"
   viewBox="0 0 24 24"
   fill="none"
   color="#000000"
   version="1.1"
   id="svg3965"
   sodipodi:docname="redo.svg"
   inkscape:version="1.2.1 (9c6d41e410, 2022-07-14, custom)"
   xmlns:inkscape="http://www.inkscape.org/namespaces/inkscape"
   xmlns:sodipodi="http://sodipodi.sourceforge.net/DTD/sodipodi-0.dtd"
   xmlns="http://www.w3.org/2000/svg"
   xmlns:svg="http://www.w3.org/2000/svg">
  <defs
     id="defs3969" />
  <sodipodi:namedview
     id="namedview3967"
     pagecolor="#505050"
     bordercolor="#eeeeee"
     borderopacity="1"
     inkscape:showpageshadow="0"
     inkscape:pageopacity="0"
     inkscape:pagecheckerboard="0"
     inkscape:deskcolor="#505050"
     showgrid="false"
     inkscape:zoom="9.8333333"
     inkscape:cx="12"
     inkscape:cy="12.050847"
     inkscape:window-width="2560"
     inkscape:window-height="1377"
     inkscape:window-x="2560"
     inkscape:window-y="0"
     inkscape:window-maximized="1"
     inkscape:current-layer="svg3965" />
  <path
     style="color:#000000;fill:#000000;stroke-linecap:round;stroke-linejoin:round;-inkscape-stroke:none"
     d="m 9,8.7148438 c -0.081,0 -1.2455854,-0.01237 -2.4179688,0.5859375 C 5.4096479,9.8990886 4.2148438,11.248933 4.2148437,13.5 c 0,2.465262 1.1101606,3.933291 2.2773438,4.615234 C 7.6593707,18.797177 8.8510001,18.785156 9,18.785156 h 8 A 0.78500003,0.78500003 0 0 0 17.785156,18 0.78500003,0.78500003 0 0 0 17,17.214844 H 9 c -0.1489999,0 -0.9565288,-0.01202 -1.7148438,-0.455078 -0.7583149,-0.443056 -1.4999999,-1.225032 -1.5,-3.259766 0,-1.748929 0.7246041,-2.39909 1.5117188,-2.800781 C 8.0839897,10.297527 8.9190001,10.285156 9,10.285156 H 19 A 0.78500003,0.78500003 0 0 0 19.785156,9.5 0.78500003,0.78500003 0 0 0 19,8.7148438 Z"
     id="path3961" />
  <path
     style="color:#000000;fill:#000000;stroke-linecap:round;stroke-linejoin:round;-inkscape-stroke:none"
     d="m 14.945313,5.4453125 a 0.78500003,0.78500003 0 0 0 0,1.109375 L 17.890625,9.5 14.945313,12.445313 a 0.78500003,0.78500003 0 0 0 0,1.109375 0.78500003,0.78500003 0 0 0 1.109374,0 l 3.5,-3.5 a 0.78507853,0.78507853 0 0 0 0,-1.1093755 l -3.5,-3.5 a 0.78500003,0.78500003 0 0 0 -1.109374,0 z"
     id="path3963" />
</svg>
