<?xml version="1.0" encoding="UTF-8" standalone="no"?>
<svg
   width="24px"
   height="24px"
   stroke-width="1.57"
   viewBox="0 0 24 24"
   fill="none"
   color="#000000"
   version="1.1"
   id="svg11366"
   sodipodi:docname="prohibition.svg"
   inkscape:version="1.2.1 (9c6d41e410, 2022-07-14, custom)"
   xmlns:inkscape="http://www.inkscape.org/namespaces/inkscape"
   xmlns:sodipodi="http://sodipodi.sourceforge.net/DTD/sodipodi-0.dtd"
   xmlns="http://www.w3.org/2000/svg"
   xmlns:svg="http://www.w3.org/2000/svg">
  <defs
     id="defs11370" />
  <sodipodi:namedview
     id="namedview11368"
     pagecolor="#505050"
     bordercolor="#eeeeee"
     borderopacity="1"
     inkscape:showpageshadow="0"
     inkscape:pageopacity="0"
     inkscape:pagecheckerboard="0"
     inkscape:deskcolor="#505050"
     showgrid="false"
     inkscape:zoom="9.8333333"
     inkscape:cx="12"
     inkscape:cy="12.050847"
     inkscape:window-width="2560"
     inkscape:window-height="1377"
     inkscape:window-x="2560"
     inkscape:window-y="0"
     inkscape:window-maximized="1"
     inkscape:current-layer="svg11366" />
  <path
     style="color:#000000;fill:#000000;stroke-linecap:round;stroke-linejoin:round;-inkscape-stroke:none"
     d="m 12,1.2148437 c -5.9465482,0 -10.7840742,4.8369032 -10.7851563,10.7832033 -0.00358,2.822326 1.1028176,5.535087 3.0800782,7.548828 a 0.78500003,0.78500003 0 0 0 0.00195,0.002 c 2.556e-4,2.6e-4 0.0017,-2.6e-4 0.00195,0 3.884e-4,3.95e-4 -3.885e-4,0.0016 0,0.002 a 0.78500003,0.78500003 0 0 0 0.00195,0.002 C 6.3268756,21.622869 9.1032088,22.788695 12,22.785156 17.947213,22.785156 22.785156,17.947213 22.785156,12 22.788438,9.2805046 21.713162,6.695382 19.869141,4.7070312 A 0.78500003,0.78500003 0 0 0 19.703125,4.4511719 c -3.84e-4,-3.927e-4 -0.0016,3.926e-4 -0.002,0 a 0.78500003,0.78500003 0 0 0 -0.002,-0.00195 C 17.673057,2.3785846 14.897164,1.211305 12,1.2148437 Z m 0,1.5703126 c 2.203577,-0.00269 4.257749,0.8909621 5.917969,2.3124999 L 4.9804687,17.783203 C 3.6300738,16.142785 2.7824415,14.143504 2.7851563,12.001953 a 0.78507853,0.78507853 0 0 0 0,-0.002 C 2.7851563,6.9012244 6.9012244,2.7851563 12,2.7851563 Z m 7.019531,3.4316406 C 20.369935,7.8569651 21.217428,9.8586167 21.214844,12 c 0,5.098776 -4.116068,9.214844 -9.214844,9.214844 -2.2035774,0.0027 -4.2577487,-0.890962 -5.9179688,-2.3125 z"
     id="path11364" />
</svg>
