<?xml version="1.0" encoding="UTF-8" standalone="no"?>
<svg
   width="24px"
   height="24px"
   stroke-width="1.57"
   viewBox="0 0 24 24"
   fill="none"
   color="#000000"
   version="1.1"
   id="svg6"
   sodipodi:docname="repeat.svg"
   inkscape:version="1.2.1 (9c6d41e410, 2022-07-14, custom)"
   xmlns:inkscape="http://www.inkscape.org/namespaces/inkscape"
   xmlns:sodipodi="http://sodipodi.sourceforge.net/DTD/sodipodi-0.dtd"
   xmlns="http://www.w3.org/2000/svg"
   xmlns:svg="http://www.w3.org/2000/svg">
  <defs
     id="defs10" />
  <sodipodi:namedview
     id="namedview8"
     pagecolor="#505050"
     bordercolor="#eeeeee"
     borderopacity="1"
     inkscape:showpageshadow="0"
     inkscape:pageopacity="0"
     inkscape:pagecheckerboard="0"
     inkscape:deskcolor="#505050"
     showgrid="false"
     inkscape:zoom="9.8333333"
     inkscape:cx="12"
     inkscape:cy="12.050847"
     inkscape:window-width="2560"
     inkscape:window-height="1377"
     inkscape:window-x="2560"
     inkscape:window-y="0"
     inkscape:window-maximized="1"
     inkscape:current-layer="svg6" />
  <path
     style="color:#000000;fill:#000000;stroke-linecap:round;stroke-linejoin:round;-inkscape-stroke:none"
     d="m 8,6.2148437 c -0.9904676,0 -2.3678156,0.272761 -3.5839844,1.1484375 C 3.1998469,8.2389578 2.2148437,9.7819685 2.2148438,12 c 0,2.218032 0.9850031,3.761042 2.2011718,4.636719 C 5.6321844,17.512395 7.0095324,17.785156 8,17.785156 h 9 A 0.78500003,0.78500003 0 0 0 17.785156,17 0.78500003,0.78500003 0 0 0 17,16.214844 H 8 c -0.6765307,0 -1.7989365,-0.227241 -2.6660156,-0.851563 C 4.4669052,14.738959 3.7851563,13.781964 3.7851563,12 c 0,-1.781964 0.6817489,-2.7389593 1.5488281,-3.3632812 C 6.2010635,8.0123968 7.3234693,7.7851562 8,7.7851562 h 8 c 0.676531,0 1.798936,0.2272406 2.666016,0.8515626 0.867079,0.6243219 1.548828,1.5813172 1.548828,3.3632812 0,1.331114 -0.39293,2.191747 -0.939453,2.8125 a 0.78500003,0.78500003 0 0 0 0.07031,1.107422 0.78500003,0.78500003 0 0 0 1.109375,-0.07031 C 21.248553,14.948364 21.785156,13.656883 21.785156,12 c 0,-2.2180315 -0.985003,-3.7610422 -2.201172,-4.6367188 C 18.367816,6.4876047 16.990468,6.2148438 16,6.2148437 Z"
     id="path2" />
  <path
     style="color:#000000;fill:#000000;stroke-linecap:round;stroke-linejoin:round;-inkscape-stroke:none"
     d="m 14.5,13.714844 a 0.78500003,0.78500003 0 0 0 -0.554687,0.230469 0.78500003,0.78500003 0 0 0 0,1.109375 L 15.890625,17 13.945313,18.945312 a 0.78500003,0.78500003 0 0 0 0,1.109375 0.78500003,0.78500003 0 0 0 1.109375,0 l 2.499999,-2.5 a 0.78507853,0.78507853 0 0 0 0,-1.109375 L 15.054688,13.945313 A 0.78500003,0.78500003 0 0 0 14.5,13.714844 Z"
     id="path4" />
</svg>
