<?xml version="1.0" encoding="UTF-8" standalone="no"?>
<svg
   width="24px"
   height="24px"
   stroke-width="1.57"
   viewBox="0 0 24 24"
   fill="none"
   color="#000000"
   version="1.1"
   id="svg13118"
   sodipodi:docname="right-round-arrow.svg"
   inkscape:version="1.2.1 (9c6d41e410, 2022-07-14, custom)"
   xmlns:inkscape="http://www.inkscape.org/namespaces/inkscape"
   xmlns:sodipodi="http://sodipodi.sourceforge.net/DTD/sodipodi-0.dtd"
   xmlns="http://www.w3.org/2000/svg"
   xmlns:svg="http://www.w3.org/2000/svg">
  <defs
     id="defs13122" />
  <sodipodi:namedview
     id="namedview13120"
     pagecolor="#505050"
     bordercolor="#eeeeee"
     borderopacity="1"
     inkscape:showpageshadow="0"
     inkscape:pageopacity="0"
     inkscape:pagecheckerboard="0"
     inkscape:deskcolor="#505050"
     showgrid="false"
     inkscape:zoom="9.8333333"
     inkscape:cx="12"
     inkscape:cy="12.050847"
     inkscape:window-width="2560"
     inkscape:window-height="1377"
     inkscape:window-x="2560"
     inkscape:window-y="0"
     inkscape:window-maximized="1"
     inkscape:current-layer="svg13118" />
  <path
     style="color:#000000;fill:#000000;stroke-linecap:round;stroke-linejoin:round;-inkscape-stroke:none"
     d="m 14,8.4648438 a 0.78500003,0.78500003 0 0 0 -0.554687,0.2304687 0.78500003,0.78500003 0 0 0 0,1.109375 l 1.410156,1.4101565 H 6.75 A 0.78500003,0.78500003 0 0 0 5.9648437,12 0.78500003,0.78500003 0 0 0 6.75,12.785156 h 8.105469 l -1.410156,1.410157 a 0.78500003,0.78500003 0 0 0 0,1.109375 0.78500003,0.78500003 0 0 0 1.109375,0 l 2.749999,-2.75 A 0.78500003,0.78500003 0 0 0 17.535156,12 0.78500003,0.78500003 0 0 0 17.474609,11.699219 0.78500003,0.78500003 0 0 0 17.304687,11.445313 L 14.554688,8.6953125 A 0.78500003,0.78500003 0 0 0 14,8.4648438 Z"
     id="path13114" />
  <path
     style="color:#000000;fill:#000000;-inkscape-stroke:none"
     d="M 6,4.2148437 C 3.3666181,4.2148437 1.2148437,6.3666181 1.2148437,9 v 6 c 0,2.633382 2.1517744,4.785156 4.7851563,4.785156 h 12 c 2.633382,0 4.785156,-2.151774 4.785156,-4.785156 V 9 C 22.785156,6.3666181 20.633382,4.2148437 18,4.2148437 Z m 0,1.5703125 h 12 c 1.784892,0 3.214844,1.4299521 3.214844,3.2148438 v 6 c 0,1.784892 -1.429952,3.214844 -3.214844,3.214844 H 6 C 4.2151083,18.214844 2.7851562,16.784892 2.7851563,15 V 9 C 2.7851563,7.2151083 4.2151083,5.7851562 6,5.7851562 Z"
     id="path13116" />
</svg>
