<?xml version="1.0" encoding="UTF-8" standalone="no"?>
<svg
   width="24px"
   height="24px"
   viewBox="0 0 24 24"
   stroke-width="1.57"
   fill="none"
   color="#000000"
   version="1.1"
   id="svg5706"
   sodipodi:docname="pin.svg"
   inkscape:version="1.2.1 (9c6d41e410, 2022-07-14, custom)"
   xmlns:inkscape="http://www.inkscape.org/namespaces/inkscape"
   xmlns:sodipodi="http://sodipodi.sourceforge.net/DTD/sodipodi-0.dtd"
   xmlns="http://www.w3.org/2000/svg"
   xmlns:svg="http://www.w3.org/2000/svg">
  <defs
     id="defs5710" />
  <sodipodi:namedview
     id="namedview5708"
     pagecolor="#505050"
     bordercolor="#eeeeee"
     borderopacity="1"
     inkscape:showpageshadow="0"
     inkscape:pageopacity="0"
     inkscape:pagecheckerboard="0"
     inkscape:deskcolor="#505050"
     showgrid="false"
     inkscape:zoom="9.8333333"
     inkscape:cx="12"
     inkscape:cy="12.050847"
     inkscape:window-width="2560"
     inkscape:window-height="1377"
     inkscape:window-x="2560"
     inkscape:window-y="0"
     inkscape:window-maximized="1"
     inkscape:current-layer="svg5706" />
  <path
     style="color:#000000;fill:#000000;stroke-linecap:round;stroke-linejoin:round;-inkscape-stroke:none"
     d="M 15.125,1.8867187 A 0.78507853,0.78507853 0 0 0 14.558594,2.1640625 L 10.152344,7.3574219 6.7773437,7.0078125 A 0.78507853,0.78507853 0 0 0 6.1425781,7.2324219 L 4.4453125,8.9296875 a 0.78507853,0.78507853 0 0 0 0,1.1113285 l 4.203125,4.201172 -6.203125,6.203124 a 0.78500003,0.78500003 0 0 0 0,1.109375 0.78500003,0.78500003 0 0 0 1.109375,0 l 6.203125,-6.203124 3.8808595,3.880859 a 0.78507853,0.78507853 0 0 0 1.109375,0 l 1.697265,-1.697266 a 0.78507853,0.78507853 0 0 0 0.22461,-0.634765 l -0.34961,-3.375 5.195313,-4.4062504 A 0.78507853,0.78507853 0 0 0 21.5625,7.9667969 L 15.712891,2.1152344 A 0.78507853,0.78507853 0 0 0 15.125,1.8867187 Z m 0.08008,1.9433594 4.644531,4.6445313 -4.859375,4.1210936 a 0.78507853,0.78507853 0 0 0 -0.273437,0.679688 l 0.353516,3.414062 -0.876954,0.878906 L 6.109375,9.484375 6.9882812,8.6074219 10.402344,8.9609375 a 0.78507853,0.78507853 0 0 0 0.679687,-0.2714844 z"
     id="path5704" />
</svg>
