<?xml version="1.0" encoding="UTF-8" standalone="no"?>
<svg
   width="24px"
   height="24px"
   stroke-width="1.57"
   viewBox="0 0 24 24"
   fill="none"
   color="#000000"
   version="1.1"
   id="svg6777"
   sodipodi:docname="voice.svg"
   inkscape:version="1.2.1 (9c6d41e410, 2022-07-14, custom)"
   xmlns:inkscape="http://www.inkscape.org/namespaces/inkscape"
   xmlns:sodipodi="http://sodipodi.sourceforge.net/DTD/sodipodi-0.dtd"
   xmlns="http://www.w3.org/2000/svg"
   xmlns:svg="http://www.w3.org/2000/svg">
  <defs
     id="defs6781" />
  <sodipodi:namedview
     id="namedview6779"
     pagecolor="#505050"
     bordercolor="#eeeeee"
     borderopacity="1"
     inkscape:showpageshadow="0"
     inkscape:pageopacity="0"
     inkscape:pagecheckerboard="0"
     inkscape:deskcolor="#505050"
     showgrid="false"
     inkscape:zoom="9.8333333"
     inkscape:cx="12"
     inkscape:cy="12.050847"
     inkscape:window-width="2560"
     inkscape:window-height="1377"
     inkscape:window-x="2560"
     inkscape:window-y="0"
     inkscape:window-maximized="1"
     inkscape:current-layer="svg6777" />
  <path
     style="color:#000000;fill:#000000;stroke-linecap:round;stroke-linejoin:round;-inkscape-stroke:none"
     d="M 12,3.2148438 A 0.78500003,0.78500003 0 0 0 11.214844,4 V 20 A 0.78500003,0.78500003 0 0 0 12,20.785156 0.78500003,0.78500003 0 0 0 12.785156,20 V 4 A 0.78500003,0.78500003 0 0 0 12,3.2148438 Z m 4,2.9999999 A 0.78500003,0.78500003 0 0 0 15.214844,7 V 17 A 0.78500003,0.78500003 0 0 0 16,17.785156 0.78500003,0.78500003 0 0 0 16.785156,17 V 7 A 0.78500003,0.78500003 0 0 0 16,6.2148437 Z M 8,8.2148438 A 0.78500003,0.78500003 0 0 0 7.2148437,9 v 6 A 0.78500003,0.78500003 0 0 0 8,15.785156 0.78500003,0.78500003 0 0 0 8.7851563,15 V 9 A 0.78500003,0.78500003 0 0 0 8,8.2148438 Z m -4,1 A 0.78500003,0.78500003 0 0 0 3.2148438,10 v 4 A 0.78500003,0.78500003 0 0 0 4,14.785156 0.78500003,0.78500003 0 0 0 4.7851562,14 V 10 A 0.78500003,0.78500003 0 0 0 4,9.2148438 Z m 16,0 A 0.78500003,0.78500003 0 0 0 19.214844,10 v 4 A 0.78500003,0.78500003 0 0 0 20,14.785156 0.78500003,0.78500003 0 0 0 20.785156,14 V 10 A 0.78500003,0.78500003 0 0 0 20,9.2148438 Z"
     id="path6775" />
</svg>
