<?xml version="1.0" encoding="UTF-8" standalone="no"?>
<svg
   width="24px"
   height="24px"
   stroke-width="1.57"
   viewBox="0 0 24 24"
   fill="none"
   color="#000000"
   version="1.1"
   id="svg4"
   sodipodi:docname="pause-outline.svg"
   inkscape:version="1.2.1 (9c6d41e410, 2022-07-14, custom)"
   xmlns:inkscape="http://www.inkscape.org/namespaces/inkscape"
   xmlns:sodipodi="http://sodipodi.sourceforge.net/DTD/sodipodi-0.dtd"
   xmlns="http://www.w3.org/2000/svg"
   xmlns:svg="http://www.w3.org/2000/svg">
  <defs
     id="defs8" />
  <sodipodi:namedview
     id="namedview6"
     pagecolor="#505050"
     bordercolor="#eeeeee"
     borderopacity="1"
     inkscape:showpageshadow="0"
     inkscape:pageopacity="0"
     inkscape:pagecheckerboard="0"
     inkscape:deskcolor="#505050"
     showgrid="false"
     inkscape:zoom="9.8333333"
     inkscape:cx="12"
     inkscape:cy="12.050847"
     inkscape:window-width="2560"
     inkscape:window-height="1377"
     inkscape:window-x="2560"
     inkscape:window-y="0"
     inkscape:window-maximized="1"
     inkscape:current-layer="svg4" />
  <path
     style="color:#000000;fill:#000000;-inkscape-stroke:none"
     d="m 6.5996094,4.2148437 c -0.7556156,0 -1.3847657,0.6291501 -1.3847657,1.3847657 V 18.400391 c 0,0.755615 0.6291501,1.384765 1.3847657,1.384765 h 2.8007812 c 0.7556154,0 1.3847654,-0.62915 1.3847654,-1.384765 V 5.5996094 c 0,-0.7556156 -0.62915,-1.3847657 -1.3847654,-1.3847657 z m 7.9999996,0 c -0.755615,0 -1.384765,0.6291501 -1.384765,1.3847657 V 18.400391 c 0,0.755615 0.62915,1.384765 1.384765,1.384765 h 2.800782 c 0.755615,0 1.384765,-0.62915 1.384765,-1.384765 V 5.5996094 c 0,-0.7556156 -0.62915,-1.3847657 -1.384765,-1.3847657 z M 6.7851562,5.7851562 H 9.2148438 V 18.214844 H 6.7851562 Z m 7.9999998,0 h 2.429688 V 18.214844 h -2.429688 z"
     id="path2" />
</svg>
