<?xml version="1.0" encoding="UTF-8" standalone="no"?>
<svg
   width="24px"
   height="24px"
   stroke-width="1.57"
   viewBox="0 0 24 24"
   fill="none"
   color="#000000"
   version="1.1"
   id="svg9882"
   sodipodi:docname="trash.svg"
   inkscape:version="1.2.1 (9c6d41e410, 2022-07-14, custom)"
   xmlns:inkscape="http://www.inkscape.org/namespaces/inkscape"
   xmlns:sodipodi="http://sodipodi.sourceforge.net/DTD/sodipodi-0.dtd"
   xmlns="http://www.w3.org/2000/svg"
   xmlns:svg="http://www.w3.org/2000/svg">
  <defs
     id="defs9886" />
  <sodipodi:namedview
     id="namedview9884"
     pagecolor="#505050"
     bordercolor="#eeeeee"
     borderopacity="1"
     inkscape:showpageshadow="0"
     inkscape:pageopacity="0"
     inkscape:pagecheckerboard="0"
     inkscape:deskcolor="#505050"
     showgrid="false"
     inkscape:zoom="9.8333333"
     inkscape:cx="12"
     inkscape:cy="12.050847"
     inkscape:window-width="2560"
     inkscape:window-height="1377"
     inkscape:window-x="2560"
     inkscape:window-y="0"
     inkscape:window-maximized="1"
     inkscape:current-layer="svg9882" />
  <path
     style="color:#000000;fill:#000000;stroke-linecap:round;stroke-linejoin:round;-inkscape-stroke:none"
     d="m 8.5996094,2.2148438 c -0.7556156,-1e-7 -1.3847657,0.62915 -1.3847657,1.3847656 V 6.2148437 H 3 A 0.78500003,0.78500003 0 0 0 2.2148438,7 0.78500003,0.78500003 0 0 0 3,7.7851562 h 5 8 5 A 0.78500003,0.78500003 0 0 0 21.785156,7 0.78500003,0.78500003 0 0 0 21,6.2148437 H 16.785156 V 3.5996094 c 0,-0.7556156 -0.62915,-1.3847656 -1.384765,-1.3847656 z M 8.7851563,3.7851563 H 15.214844 V 6.2148437 H 8.7851563 Z M 5,10.214844 A 0.78500003,0.78500003 0 0 0 4.2148437,11 v 9.400391 c 0,0.755615 0.6291501,1.384765 1.3847657,1.384765 H 18.400391 c 0.755615,0 1.384765,-0.62915 1.384765,-1.384765 V 11 A 0.78500003,0.78500003 0 0 0 19,10.214844 0.78500003,0.78500003 0 0 0 18.214844,11 v 9.214844 H 5.7851562 V 11 A 0.78500003,0.78500003 0 0 0 5,10.214844 Z m 5,0 A 0.78500003,0.78500003 0 0 0 9.2148438,11 v 6 A 0.78500003,0.78500003 0 0 0 10,17.785156 0.78500003,0.78500003 0 0 0 10.785156,17 V 11 A 0.78500003,0.78500003 0 0 0 10,10.214844 Z m 4,0 A 0.78500003,0.78500003 0 0 0 13.214844,11 v 6 A 0.78500003,0.78500003 0 0 0 14,17.785156 0.78500003,0.78500003 0 0 0 14.785156,17 V 11 A 0.78500003,0.78500003 0 0 0 14,10.214844 Z"
     id="path9880" />
</svg>
