<?xml version="1.0" encoding="UTF-8" standalone="no"?>
<svg
   width="24px"
   height="24px"
   stroke-width="1.57"
   viewBox="0 0 24 24"
   fill="none"
   color="#000000"
   version="1.1"
   id="svg8951"
   sodipodi:docname="plus.svg"
   inkscape:version="1.2.1 (9c6d41e410, 2022-07-14, custom)"
   xmlns:inkscape="http://www.inkscape.org/namespaces/inkscape"
   xmlns:sodipodi="http://sodipodi.sourceforge.net/DTD/sodipodi-0.dtd"
   xmlns="http://www.w3.org/2000/svg"
   xmlns:svg="http://www.w3.org/2000/svg">
  <defs
     id="defs8955" />
  <sodipodi:namedview
     id="namedview8953"
     pagecolor="#505050"
     bordercolor="#eeeeee"
     borderopacity="1"
     inkscape:showpageshadow="0"
     inkscape:pageopacity="0"
     inkscape:pagecheckerboard="0"
     inkscape:deskcolor="#505050"
     showgrid="false"
     inkscape:zoom="9.8333333"
     inkscape:cx="12"
     inkscape:cy="12.050847"
     inkscape:window-width="2560"
     inkscape:window-height="1377"
     inkscape:window-x="2560"
     inkscape:window-y="0"
     inkscape:window-maximized="1"
     inkscape:current-layer="svg8951" />
  <path
     style="color:#000000;fill:#000000;stroke-linecap:round;stroke-linejoin:round;-inkscape-stroke:none"
     d="M 12,5.2148437 A 0.78500003,0.78500003 0 0 0 11.214844,6 v 5.214844 H 6 A 0.78500003,0.78500003 0 0 0 5.2148437,12 0.78500003,0.78500003 0 0 0 6,12.785156 h 5.214844 V 18 A 0.78500003,0.78500003 0 0 0 12,18.785156 0.78500003,0.78500003 0 0 0 12.785156,18 V 12.785156 H 18 A 0.78500003,0.78500003 0 0 0 18.785156,12 0.78500003,0.78500003 0 0 0 18,11.214844 H 12.785156 V 6 A 0.78500003,0.78500003 0 0 0 12,5.2148437 Z"
     id="path8949" />
</svg>
