<?xml version="1.0" encoding="UTF-8" standalone="no"?>
<svg
   width="24px"
   height="24px"
   stroke-width="1.57"
   viewBox="0 0 24 24"
   fill="none"
   color="#000000"
   version="1.1"
   id="svg7854"
   sodipodi:docname="refresh.svg"
   inkscape:version="1.2.1 (9c6d41e410, 2022-07-14, custom)"
   xmlns:inkscape="http://www.inkscape.org/namespaces/inkscape"
   xmlns:sodipodi="http://sodipodi.sourceforge.net/DTD/sodipodi-0.dtd"
   xmlns="http://www.w3.org/2000/svg"
   xmlns:svg="http://www.w3.org/2000/svg">
  <defs
     id="defs7858" />
  <sodipodi:namedview
     id="namedview7856"
     pagecolor="#505050"
     bordercolor="#eeeeee"
     borderopacity="1"
     inkscape:showpageshadow="0"
     inkscape:pageopacity="0"
     inkscape:pagecheckerboard="0"
     inkscape:deskcolor="#505050"
     showgrid="false"
     inkscape:zoom="9.8333333"
     inkscape:cx="12"
     inkscape:cy="12.050847"
     inkscape:window-width="2560"
     inkscape:window-height="1377"
     inkscape:window-x="2560"
     inkscape:window-y="0"
     inkscape:window-maximized="1"
     inkscape:current-layer="svg7854" />
  <path
     style="color:#000000;fill:#000000;stroke-linecap:round;stroke-linejoin:round;-inkscape-stroke:none"
     d="M 12,1.2148437 C 6.0527866,1.2148437 1.2148438,6.0527866 1.2148437,12 c 0,5.947213 4.8379429,10.785156 10.7851563,10.785156 5.398109,0 9.883144,-3.978744 10.664062,-9.167968 a 0.78500003,0.78500003 0 0 0 -0.660156,-0.892579 0.78500003,0.78500003 0 0 0 -0.892578,0.658204 C 20.444248,17.815578 16.627881,21.214844 12,21.214844 6.9012244,21.214844 2.7851563,17.098776 2.7851563,12 2.7851563,6.9012244 6.9012244,2.7851563 12,2.7851563 c 3.784975,0 7.028097,2.2762813 8.449219,5.5292968 A 0.78500003,0.78500003 0 0 0 21.482422,8.71875 0.78500003,0.78500003 0 0 0 21.886719,7.6855469 C 20.221844,3.8745695 16.415017,1.2148438 12,1.2148437 Z"
     id="path7850" />
  <path
     style="color:#000000;fill:#000000;stroke-linecap:round;stroke-linejoin:round;-inkscape-stroke:none"
     d="M 22,2.2148438 A 0.78500003,0.78500003 0 0 0 21.214844,3 V 7.2148437 H 17 A 0.78500003,0.78500003 0 0 0 16.214844,8 0.78500003,0.78500003 0 0 0 17,8.7851563 h 4.400391 c 0.755615,0 1.384765,-0.6291501 1.384765,-1.3847657 V 3 A 0.78500003,0.78500003 0 0 0 22,2.2148438 Z"
     id="path7852" />
</svg>
