<?xml version="1.0" encoding="UTF-8" standalone="no"?>
<svg
   width="24px"
   height="24px"
   viewBox="0 0 24 24"
   stroke-width="1.57"
   fill="none"
   color="#000000"
   version="1.1"
   id="svg6912"
   sodipodi:docname="dice-three.svg"
   inkscape:version="1.2.1 (9c6d41e410, 2022-07-14, custom)"
   xmlns:inkscape="http://www.inkscape.org/namespaces/inkscape"
   xmlns:sodipodi="http://sodipodi.sourceforge.net/DTD/sodipodi-0.dtd"
   xmlns="http://www.w3.org/2000/svg"
   xmlns:svg="http://www.w3.org/2000/svg">
  <defs
     id="defs6916" />
  <sodipodi:namedview
     id="namedview6914"
     pagecolor="#505050"
     bordercolor="#eeeeee"
     borderopacity="1"
     inkscape:showpageshadow="0"
     inkscape:pageopacity="0"
     inkscape:pagecheckerboard="0"
     inkscape:deskcolor="#505050"
     showgrid="false"
     inkscape:zoom="9.8333333"
     inkscape:cx="12"
     inkscape:cy="12.050847"
     inkscape:window-width="2560"
     inkscape:window-height="1377"
     inkscape:window-x="2560"
     inkscape:window-y="0"
     inkscape:window-maximized="1"
     inkscape:current-layer="svg6912" />
  <path
     style="color:#000000;fill:#000000;-inkscape-stroke:none"
     d="m 3.5996094,2.2148438 c -0.7556156,0 -1.3847656,0.62915 -1.3847656,1.3847656 V 20.400391 c -1e-7,0.755615 0.62915,1.384765 1.3847656,1.384765 H 20.400391 c 0.755615,0 1.384765,-0.62915 1.384765,-1.384765 V 3.5996094 c 0,-0.7556156 -0.62915,-1.3847657 -1.384765,-1.3847656 z M 3.7851563,3.7851563 H 20.214844 V 20.214844 H 3.7851563 Z"
     id="path6908" />
  <g
     id="path6910">
    <path
       style="color:#000000;fill:#000000;stroke-width:1.57;stroke-linecap:round;stroke-linejoin:round;-inkscape-stroke:none"
       d="m 7.5,8 a 0.5,0.5 0 1 1 0,-1 0.5,0.5 0 0 1 0,1 z m 4.5,4.5 a 0.5,0.5 0 1 1 0,-1 0.5,0.5 0 0 1 0,1 z m 4.5,4.5 a 0.5,0.5 0 1 1 0,-1 0.5,0.5 0 0 1 0,1 z"
       id="path7041" />
    <path
       style="color:#000000;fill:#000000;stroke-linecap:round;stroke-linejoin:round;-inkscape-stroke:none"
       d="m 7.5,6.2148437 c -0.3629163,0 -0.7337353,0.1643194 -0.9609375,0.4199219 C 6.3118603,6.8903682 6.2148437,7.2005559 6.2148437,7.5 c 10e-8,0.2994441 0.097017,0.6096318 0.3242188,0.8652344 C 6.7662647,8.6208369 7.1370837,8.7851563 7.5,8.7851563 c 0.3629163,0 0.7337353,-0.1643194 0.9609375,-0.4199219 C 8.6881397,8.1096318 8.7851562,7.7994441 8.7851563,7.5 8.7851563,7.2005559 8.6881397,6.8903682 8.4609375,6.6347656 8.2337353,6.3791631 7.8629163,6.2148437 7.5,6.2148437 Z m 0,1 c 0.029584,0 0.1504018,0.039319 0.2109375,0.1074219 0.060536,0.068103 0.074219,0.1282901 0.074219,0.1777344 0,0.049444 -0.013683,0.1096316 -0.074219,0.1777344 C 7.6504018,7.7458371 7.5295835,7.7851562 7.5,7.7851562 c -0.029584,0 -0.1504018,-0.039319 -0.2109375,-0.1074218 C 7.2285268,7.6096316 7.2148438,7.5494443 7.2148437,7.5 c 0,-0.049444 0.013683,-0.1096316 0.074219,-0.1777344 C 7.3495982,7.2541629 7.4704165,7.2148437 7.5,7.2148437 Z M 12,10.714844 c -0.362916,0 -0.733735,0.164319 -0.960937,0.419922 -0.227203,0.255602 -0.324219,0.56579 -0.324219,0.865234 0,0.299444 0.09702,0.609632 0.324219,0.865234 0.227202,0.255603 0.598021,0.419922 0.960937,0.419922 0.362916,0 0.733735,-0.164319 0.960938,-0.419922 0.227202,-0.255602 0.324218,-0.56579 0.324218,-0.865234 0,-0.299444 -0.09702,-0.609632 -0.324218,-0.865234 C 12.733735,10.879163 12.362916,10.714844 12,10.714844 Z m 0,1 c 0.02958,0 0.150402,0.03932 0.210938,0.107422 0.06053,0.0681 0.07422,0.12829 0.07422,0.177734 0,0.04944 -0.01368,0.109632 -0.07422,0.177734 -0.06054,0.0681 -0.181355,0.107422 -0.210938,0.107422 -0.02958,0 -0.150402,-0.03932 -0.210937,-0.107422 -0.06054,-0.0681 -0.07422,-0.12829 -0.07422,-0.177734 0,-0.04944 0.01368,-0.109632 0.07422,-0.177734 0.06053,-0.0681 0.181354,-0.107422 0.210937,-0.107422 z m 4.5,3.5 c -0.362916,0 -0.733735,0.164319 -0.960937,0.419922 -0.227203,0.255602 -0.324219,0.56579 -0.324219,0.865234 0,0.299444 0.09702,0.609632 0.324219,0.865234 0.227202,0.255603 0.598021,0.419922 0.960937,0.419922 0.362916,0 0.733735,-0.164319 0.960937,-0.419922 0.227203,-0.255602 0.324219,-0.56579 0.324219,-0.865234 0,-0.299444 -0.09702,-0.609632 -0.324219,-0.865234 C 17.233735,15.379163 16.862916,15.214844 16.5,15.214844 Z m 0,1 c 0.02958,0 0.150402,0.03932 0.210937,0.107422 0.06054,0.0681 0.07422,0.12829 0.07422,0.177734 0,0.04944 -0.01368,0.109632 -0.07422,0.177734 -0.06054,0.0681 -0.181354,0.107422 -0.210937,0.107422 -0.02958,0 -0.150402,-0.03932 -0.210938,-0.107422 -0.06054,-0.0681 -0.07422,-0.12829 -0.07422,-0.177734 0,-0.04944 0.01368,-0.109632 0.07422,-0.177734 0.06054,-0.0681 0.181355,-0.107422 0.210938,-0.107422 z"
       id="path7043" />
  </g>
</svg>
