<?xml version="1.0" encoding="UTF-8" standalone="no"?>
<svg
   width="24px"
   height="24px"
   stroke-width="1.57"
   viewBox="0 0 24 24"
   fill="none"
   color="#000000"
   version="1.1"
   id="svg8412"
   sodipodi:docname="selection.svg"
   inkscape:version="1.2.1 (9c6d41e410, 2022-07-14, custom)"
   xmlns:inkscape="http://www.inkscape.org/namespaces/inkscape"
   xmlns:sodipodi="http://sodipodi.sourceforge.net/DTD/sodipodi-0.dtd"
   xmlns="http://www.w3.org/2000/svg"
   xmlns:svg="http://www.w3.org/2000/svg">
  <defs
     id="defs8416" />
  <sodipodi:namedview
     id="namedview8414"
     pagecolor="#505050"
     bordercolor="#eeeeee"
     borderopacity="1"
     inkscape:showpageshadow="0"
     inkscape:pageopacity="0"
     inkscape:pagecheckerboard="0"
     inkscape:deskcolor="#505050"
     showgrid="false"
     inkscape:zoom="9.8333333"
     inkscape:cx="12"
     inkscape:cy="12.050847"
     inkscape:window-width="2560"
     inkscape:window-height="1377"
     inkscape:window-x="2560"
     inkscape:window-y="0"
     inkscape:window-maximized="1"
     inkscape:current-layer="svg8412" />
  <path
     style="color:#000000;fill:#000000;stroke-linecap:round;stroke-linejoin:round;-inkscape-stroke:none"
     d="M 4,3.2148438 A 0.78507853,0.78507853 0 0 0 3.2148438,4 V 7 A 0.78500003,0.78500003 0 0 0 4,7.7851562 0.78500003,0.78500003 0 0 0 4.7851562,7 V 4.7851562 H 7 A 0.78500003,0.78500003 0 0 0 7.7851562,4 0.78500003,0.78500003 0 0 0 7,3.2148438 Z m 7,0 A 0.78500003,0.78500003 0 0 0 10.214844,4 0.78500003,0.78500003 0 0 0 11,4.7851562 h 2 A 0.78500003,0.78500003 0 0 0 13.785156,4 0.78500003,0.78500003 0 0 0 13,3.2148438 Z m 6,0 A 0.78500003,0.78500003 0 0 0 16.214844,4 0.78500003,0.78500003 0 0 0 17,4.7851562 h 2.214844 V 7 A 0.78500003,0.78500003 0 0 0 20,7.7851562 0.78500003,0.78500003 0 0 0 20.785156,7 V 4 A 0.78507853,0.78507853 0 0 0 20,3.2148438 Z M 4,10.214844 A 0.78500003,0.78500003 0 0 0 3.2148438,11 v 2 A 0.78500003,0.78500003 0 0 0 4,13.785156 0.78500003,0.78500003 0 0 0 4.7851562,13 V 11 A 0.78500003,0.78500003 0 0 0 4,10.214844 Z m 16,0 A 0.78500003,0.78500003 0 0 0 19.214844,11 v 2 A 0.78500003,0.78500003 0 0 0 20,13.785156 0.78500003,0.78500003 0 0 0 20.785156,13 V 11 A 0.78500003,0.78500003 0 0 0 20,10.214844 Z m -16,6 A 0.78500003,0.78500003 0 0 0 3.2148438,17 v 3 A 0.78507853,0.78507853 0 0 0 4,20.785156 H 7 A 0.78500003,0.78500003 0 0 0 7.7851562,20 0.78500003,0.78500003 0 0 0 7,19.214844 H 4.7851562 V 17 A 0.78500003,0.78500003 0 0 0 4,16.214844 Z m 16,0 A 0.78500003,0.78500003 0 0 0 19.214844,17 v 2.214844 H 17 A 0.78500003,0.78500003 0 0 0 16.214844,20 0.78500003,0.78500003 0 0 0 17,20.785156 h 3 A 0.78507853,0.78507853 0 0 0 20.785156,20 V 17 A 0.78500003,0.78500003 0 0 0 20,16.214844 Z m -9,3 A 0.78500003,0.78500003 0 0 0 10.214844,20 0.78500003,0.78500003 0 0 0 11,20.785156 h 2 A 0.78500003,0.78500003 0 0 0 13.785156,20 0.78500003,0.78500003 0 0 0 13,19.214844 Z"
     id="path8410" />
</svg>
