<?xml version="1.0" encoding="UTF-8" standalone="no"?>
<svg
   width="24px"
   height="24px"
   stroke-width="1.57"
   viewBox="0 0 24 24"
   fill="none"
   color="#000000"
   version="1.1"
   id="svg9483"
   sodipodi:docname="cancel.svg"
   inkscape:version="1.2.1 (9c6d41e410, 2022-07-14, custom)"
   xmlns:inkscape="http://www.inkscape.org/namespaces/inkscape"
   xmlns:sodipodi="http://sodipodi.sourceforge.net/DTD/sodipodi-0.dtd"
   xmlns="http://www.w3.org/2000/svg"
   xmlns:svg="http://www.w3.org/2000/svg">
  <defs
     id="defs9487" />
  <sodipodi:namedview
     id="namedview9485"
     pagecolor="#505050"
     bordercolor="#eeeeee"
     borderopacity="1"
     inkscape:showpageshadow="0"
     inkscape:pageopacity="0"
     inkscape:pagecheckerboard="0"
     inkscape:deskcolor="#505050"
     showgrid="false"
     inkscape:zoom="9.8333333"
     inkscape:cx="12"
     inkscape:cy="12.050847"
     inkscape:window-width="2560"
     inkscape:window-height="1377"
     inkscape:window-x="2560"
     inkscape:window-y="0"
     inkscape:window-maximized="1"
     inkscape:current-layer="svg9483" />
  <path
     style="color:#000000;fill:#000000;stroke-linecap:round;stroke-linejoin:round;-inkscape-stroke:none"
     d="m 6.7578125,5.9726562 a 0.78500003,0.78500003 0 0 0 -0.5546875,0.2285157 0.78500003,0.78500003 0 0 0 0,1.1113281 l 4.6875,4.6875 -4.6875,4.6875 a 0.78500003,0.78500003 0 0 0 0,1.111328 0.78500003,0.78500003 0 0 0 1.109375,0 L 12,13.109375 l 4.689453,4.689453 a 0.78500003,0.78500003 0 0 0 1.109375,0 0.78500003,0.78500003 0 0 0 0,-1.111328 L 13.111328,12 l 4.6875,-4.6875 a 0.78500003,0.78500003 0 0 0 0,-1.1113281 0.78500003,0.78500003 0 0 0 -1.109375,0 L 12,10.890625 7.3125,6.2011719 A 0.78500003,0.78500003 0 0 0 6.7578125,5.9726562 Z"
     id="path9481" />
</svg>
