<?xml version="1.0" encoding="UTF-8" standalone="no"?>
<svg
   width="24px"
   height="24px"
   stroke-width="1.57"
   viewBox="0 0 24 24"
   fill="none"
   color="#000000"
   version="1.1"
   id="svg11781"
   sodipodi:docname="union.svg"
   inkscape:version="1.2.1 (9c6d41e410, 2022-07-14, custom)"
   xmlns:inkscape="http://www.inkscape.org/namespaces/inkscape"
   xmlns:sodipodi="http://sodipodi.sourceforge.net/DTD/sodipodi-0.dtd"
   xmlns="http://www.w3.org/2000/svg"
   xmlns:svg="http://www.w3.org/2000/svg">
  <defs
     id="defs11785" />
  <sodipodi:namedview
     id="namedview11783"
     pagecolor="#505050"
     bordercolor="#eeeeee"
     borderopacity="1"
     inkscape:showpageshadow="0"
     inkscape:pageopacity="0"
     inkscape:pagecheckerboard="0"
     inkscape:deskcolor="#505050"
     showgrid="false"
     inkscape:zoom="9.8333333"
     inkscape:cx="12"
     inkscape:cy="12.050847"
     inkscape:window-width="2560"
     inkscape:window-height="1377"
     inkscape:window-x="2560"
     inkscape:window-y="0"
     inkscape:window-maximized="1"
     inkscape:current-layer="svg11781" />
  <path
     style="color:#000000;fill:#000000;stroke-linecap:round;stroke-linejoin:round;-inkscape-stroke:none"
     d="M 15,8.2148438 A 0.78500003,0.78500003 0 0 0 14.214844,9 0.78500003,0.78500003 0 0 0 15,9.7851563 h 5.214844 V 20.214844 H 9.7851563 V 15 A 0.78500003,0.78500003 0 0 0 9,14.214844 0.78500003,0.78500003 0 0 0 8.2148438,15 v 5.400391 c -1e-7,0.755615 0.62915,1.384765 1.3847656,1.384765 H 20.400391 c 0.755615,0 1.384765,-0.62915 1.384765,-1.384765 V 9.5996094 c 0,-0.7556156 -0.62915,-1.3847657 -1.384765,-1.3847656 z"
     id="path11777" />
  <path
     style="color:#000000;fill:#000000;stroke-linecap:round;stroke-linejoin:round;-inkscape-stroke:none"
     d="m 3.5996094,2.2148438 c -0.7556156,0 -1.3847656,0.62915 -1.3847656,1.3847656 V 14.400391 c 0,0.755615 0.62915,1.384765 1.3847656,1.384765 H 9 A 0.78500003,0.78500003 0 0 0 9.7851563,15 0.78500003,0.78500003 0 0 0 9,14.214844 H 3.7851563 V 3.7851563 H 14.214844 V 9 A 0.78500003,0.78500003 0 0 0 15,9.7851563 0.78500003,0.78500003 0 0 0 15.785156,9 V 3.5996094 c 0,-0.7556156 -0.62915,-1.3847657 -1.384765,-1.3847656 z"
     id="path11779" />
</svg>
