<?xml version="1.0" encoding="UTF-8" standalone="no"?>
<svg
   width="24px"
   stroke-width="1.57"
   height="24px"
   viewBox="0 0 24 24"
   fill="none"
   color="#000000"
   version="1.1"
   id="svg5295"
   sodipodi:docname="magnet.svg"
   inkscape:version="1.2.1 (9c6d41e410, 2022-07-14, custom)"
   xmlns:inkscape="http://www.inkscape.org/namespaces/inkscape"
   xmlns:sodipodi="http://sodipodi.sourceforge.net/DTD/sodipodi-0.dtd"
   xmlns="http://www.w3.org/2000/svg"
   xmlns:svg="http://www.w3.org/2000/svg">
  <defs
     id="defs5299" />
  <sodipodi:namedview
     id="namedview5297"
     pagecolor="#505050"
     bordercolor="#eeeeee"
     borderopacity="1"
     inkscape:showpageshadow="0"
     inkscape:pageopacity="0"
     inkscape:pagecheckerboard="0"
     inkscape:deskcolor="#505050"
     showgrid="false"
     inkscape:zoom="9.8333333"
     inkscape:cx="12"
     inkscape:cy="12.050847"
     inkscape:window-width="2560"
     inkscape:window-height="1377"
     inkscape:window-x="2560"
     inkscape:window-y="0"
     inkscape:window-maximized="1"
     inkscape:current-layer="svg5295" />
  <path
     style="color:#000000;fill:#000000;stroke-linecap:round;stroke-linejoin:round;-inkscape-stroke:none"
     d="M 4,3.2148438 A 0.78500003,0.78500003 0 0 0 3.2148438,4 v 8.296875 c 0,4.695555 3.9586104,8.488281 8.7851562,8.488281 4.826664,0 8.785156,-3.793623 8.785156,-8.488281 V 4 A 0.78500003,0.78500003 0 0 0 20,3.2148438 0.78500003,0.78500003 0 0 0 19.214844,4 v 8.296875 c 0,3.813333 -3.205517,6.917969 -7.214844,6.917969 -4.0094454,0 -7.2148437,-3.103532 -7.2148438,-6.917969 V 4 A 0.78500003,0.78500003 0 0 0 4,3.2148438 Z"
     id="path5291" />
  <path
     style="color:#000000;fill:#000000;stroke-linecap:round;stroke-linejoin:round;-inkscape-stroke:none"
     d="M 4,3.2148438 A 0.78500003,0.78500003 0 0 0 3.2148438,4 0.78500003,0.78500003 0 0 0 4,4.7851562 H 8.8457031 V 7.2148437 H 4 A 0.78500003,0.78500003 0 0 0 3.2148438,8 0.78500003,0.78500003 0 0 0 4,8.7851563 h 4.8457031 v 2.0332027 c 0,1.665358 1.4539959,2.966797 3.1542969,2.966797 1.700301,0 3.154297,-1.301439 3.154297,-2.966797 V 8.7851563 H 20 A 0.78500003,0.78500003 0 0 0 20.785156,8 0.78500003,0.78500003 0 0 0 20,7.2148437 H 15.154297 V 4.7851562 H 20 A 0.78500003,0.78500003 0 0 0 20.785156,4 0.78500003,0.78500003 0 0 0 20,3.2148438 H 14.369141 A 0.78507853,0.78507853 0 0 0 13.585938,4 v 6.818359 c 0,0.74464 -0.666242,1.396485 -1.585938,1.396485 -0.919696,0 -1.585937,-0.651845 -1.585937,-1.396485 V 4 A 0.78507853,0.78507853 0 0 0 9.6308594,3.2148438 Z"
     id="path5293" />
</svg>
