<?xml version="1.0" encoding="UTF-8" standalone="no"?>
<svg
   width="24px"
   height="24px"
   stroke-width="1.57"
   viewBox="0 0 24 24"
   fill="none"
   color="#000000"
   version="1.1"
   id="svg5435"
   sodipodi:docname="link.svg"
   inkscape:version="1.2.1 (9c6d41e410, 2022-07-14, custom)"
   xmlns:inkscape="http://www.inkscape.org/namespaces/inkscape"
   xmlns:sodipodi="http://sodipodi.sourceforge.net/DTD/sodipodi-0.dtd"
   xmlns="http://www.w3.org/2000/svg"
   xmlns:svg="http://www.w3.org/2000/svg">
  <defs
     id="defs5439" />
  <sodipodi:namedview
     id="namedview5437"
     pagecolor="#505050"
     bordercolor="#eeeeee"
     borderopacity="1"
     inkscape:showpageshadow="0"
     inkscape:pageopacity="0"
     inkscape:pagecheckerboard="0"
     inkscape:deskcolor="#505050"
     showgrid="false"
     inkscape:zoom="9.8333333"
     inkscape:cx="12"
     inkscape:cy="12.050847"
     inkscape:window-width="2560"
     inkscape:window-height="1377"
     inkscape:window-x="2560"
     inkscape:window-y="0"
     inkscape:window-maximized="1"
     inkscape:current-layer="svg5435" />
  <path
     style="color:#000000;fill:#000000;stroke-linecap:round;stroke-linejoin:round;-inkscape-stroke:none"
     d="m 7.1425781,6.2148437 c -3.2523981,0 -5.9277344,2.5865264 -5.9277344,5.7832033 0,2.754322 1.9819816,5.057976 4.6152344,5.638672 a 0.78507853,0.78507853 0 0 0 0.00195,0 c 0.4309738,0.0949 0.8692485,0.142848 1.3105469,0.142578 A 0.78500003,0.78500003 0 0 0 7.9277344,16.994141 0.78500003,0.78500003 0 0 0 7.1425781,16.210937 c -0.3267909,2.01e-4 -0.6534845,-0.03728 -0.9726562,-0.107421 h -0.00195 C 4.222102,15.673603 2.7851562,13.999129 2.7851563,11.998047 2.7851562,9.6747292 4.714982,7.7851563 7.1425781,7.7851562 h 1.7148438 c 2.3619231,0 4.3574221,2.2074751 4.3574221,4.2128908 A 0.78500003,0.78500003 0 0 0 14,12.783203 0.78500003,0.78500003 0 0 0 14.785156,11.998047 c 0,-2.9785796 -2.637663,-5.7832032 -5.9277341,-5.7832033 z"
     id="path5431" />
  <path
     style="color:#000000;fill:#000000;stroke-linecap:round;stroke-linejoin:round;-inkscape-stroke:none"
     d="M 16.857422,6.2148437 A 0.78500003,0.78500003 0 0 0 16.072266,7 0.78500003,0.78500003 0 0 0 16.857422,7.7851562 c 0.327481,-1.737e-4 0.654785,0.035071 0.974609,0.1054688 1.946276,0.4283508 3.382813,2.1045903 3.382813,4.107422 0,2.323318 -1.929642,4.21289 -4.357422,4.21289 h -1.714844 c -2.361923,0 -4.357422,-2.20867 -4.357422,-4.21289 A 0.78500003,0.78500003 0 0 0 10,11.212891 0.78500003,0.78500003 0 0 0 9.2148438,11.998047 c 0,2.977775 2.6376632,5.78125 5.9277342,5.78125 h 1.714844 c 3.252214,0 5.927734,-2.584573 5.927734,-5.78125 0,-2.7551638 -1.983468,-5.0609769 -4.617187,-5.6406251 -0.430938,-0.094855 -0.869294,-0.1428123 -1.310547,-0.1425782 z"
     id="path5433" />
</svg>
