<?xml version="1.0" encoding="UTF-8" standalone="no"?>
<svg
   width="24px"
   height="24px"
   stroke-width="1.57"
   viewBox="0 0 24 24"
   fill="none"
   color="#000000"
   version="1.1"
   id="svg10015"
   sodipodi:docname="forward-outline.svg"
   inkscape:version="1.2.1 (9c6d41e410, 2022-07-14, custom)"
   xmlns:inkscape="http://www.inkscape.org/namespaces/inkscape"
   xmlns:sodipodi="http://sodipodi.sourceforge.net/DTD/sodipodi-0.dtd"
   xmlns="http://www.w3.org/2000/svg"
   xmlns:svg="http://www.w3.org/2000/svg">
  <defs
     id="defs10019" />
  <sodipodi:namedview
     id="namedview10017"
     pagecolor="#505050"
     bordercolor="#eeeeee"
     borderopacity="1"
     inkscape:showpageshadow="0"
     inkscape:pageopacity="0"
     inkscape:pagecheckerboard="0"
     inkscape:deskcolor="#505050"
     showgrid="false"
     inkscape:zoom="9.8333333"
     inkscape:cx="12"
     inkscape:cy="12.050847"
     inkscape:window-width="2560"
     inkscape:window-height="1377"
     inkscape:window-x="2560"
     inkscape:window-y="0"
     inkscape:window-maximized="1"
     inkscape:current-layer="svg10015" />
  <path
     style="color:#000000;fill:#000000;stroke-linecap:round;stroke-linejoin:round;-inkscape-stroke:none"
     d="m 2.9550781,4.9199219 a 0.78507853,0.78507853 0 0 0 -0.15625,0.1132812 C 2.0248457,4.9436171 1.214807,5.336616 1.2148437,6.1875 v 11.625 c -4.69e-5,1.087502 1.3316394,1.760485 2.2070313,1.115234 l 7.888672,-5.8125 c 0.733479,-0.540565 0.733479,-1.689903 0,-2.230468 L 3.4238281,5.0742187 3.421875,5.0722656 c -5.947e-4,-4.383e-4 -0.00136,4.372e-4 -0.00195,0 -0.1541858,-0.1132549 -0.3312876,0.00336 -0.5039063,-0.033203 z m 10.9999999,0 a 0.78507853,0.78507853 0 0 0 -0.15625,0.1132812 C 13.024846,4.9436171 12.214807,5.336616 12.214844,6.1875 v 11.625 c -4.7e-5,1.087502 1.331639,1.760485 2.207031,1.115234 l 7.888672,-5.8125 c 0.733479,-0.540565 0.733479,-1.689903 0,-2.230468 l -7.886719,-5.8105473 -0.002,-0.00195 c -5.95e-4,-4.383e-4 -0.0014,4.372e-4 -0.002,0 -0.154186,-0.1132549 -0.331288,0.00336 -0.503906,-0.033203 z M 2.7851563,6.5527344 10.177734,12 2.7851563,17.447266 Z m 10.9999997,0 L 21.177734,12 13.785156,17.447266 Z"
     id="path10013" />
</svg>
