<?xml version="1.0" encoding="UTF-8" standalone="no"?>
<svg
   width="24px"
   height="24px"
   stroke-width="1.57"
   viewBox="0 0 24 24"
   fill="none"
   color="#000000"
   version="1.1"
   id="svg10822"
   sodipodi:docname="sound-low.svg"
   inkscape:version="1.2.1 (9c6d41e410, 2022-07-14, custom)"
   xmlns:inkscape="http://www.inkscape.org/namespaces/inkscape"
   xmlns:sodipodi="http://sodipodi.sourceforge.net/DTD/sodipodi-0.dtd"
   xmlns="http://www.w3.org/2000/svg"
   xmlns:svg="http://www.w3.org/2000/svg">
  <defs
     id="defs10826" />
  <sodipodi:namedview
     id="namedview10824"
     pagecolor="#505050"
     bordercolor="#eeeeee"
     borderopacity="1"
     inkscape:showpageshadow="0"
     inkscape:pageopacity="0"
     inkscape:pagecheckerboard="0"
     inkscape:deskcolor="#505050"
     showgrid="false"
     inkscape:zoom="9.8333333"
     inkscape:cx="12"
     inkscape:cy="12.050847"
     inkscape:window-width="2560"
     inkscape:window-height="1377"
     inkscape:window-x="2560"
     inkscape:window-y="0"
     inkscape:window-maximized="1"
     inkscape:current-layer="svg10822" />
  <path
     style="color:#000000;fill:#000000;stroke-linecap:round;stroke-linejoin:round;-inkscape-stroke:none"
     d="m 17.945312,6.9453125 a 0.78500003,0.78500003 0 0 0 0,1.109375 c 0,0 1.269532,1.2593147 1.269532,3.4453125 0,2.185998 -1.269532,3.445313 -1.269532,3.445313 a 0.78500003,0.78500003 0 0 0 0,1.109374 0.78500003,0.78500003 0 0 0 1.109375,0 c 0,0 1.730469,-1.74069 1.730469,-4.554687 0,-2.8139972 -1.730469,-4.5546875 -1.730469,-4.5546875 a 0.78500003,0.78500003 0 0 0 -1.109375,0 z"
     id="path10818" />
  <path
     style="color:#000000;fill:#000000;-inkscape-stroke:none"
     d="m 12.929688,5.0976562 c -0.314408,0.00454 -0.632158,0.093162 -0.919922,0.2851563 l -4.1933598,2.796875 c -0.035394,0.023601 -0.0766,0.035166 -0.1191406,0.035156 H 5 C 4.0234707,8.2148438 3.2148438,9.0234707 3.2148438,10 v 4 C 3.2148437,14.976529 4.0234707,15.785156 5,15.785156 h 2.6972656 0.00195 c 0.041877,-7.2e-5 0.082127,0.01232 0.1171875,0.03516 l 4.1933598,2.794921 c 1.149876,0.767183 2.775597,-0.104017 2.77539,-1.486328 V 6.8710937 6.8691406 c 0.001,-1.0367535 -0.912857,-1.7850909 -1.855468,-1.7714844 z m -0.04883,1.5917969 c 0.179623,-0.1198426 0.334449,-0.036244 0.333985,0.1796875 V 17.130859 c 3.2e-5,0.21554 -0.154688,0.297359 -0.333985,0.177735 L 8.6875,14.513672 h -0.00195 C 8.3925788,14.319083 8.0489408,14.214614 7.6972656,14.214844 H 5 C 4.8719609,14.214844 4.7851562,14.128039 4.7851562,14 V 10 C 4.7851562,9.8719609 4.8719609,9.7851563 5,9.7851563 h 2.6972656 c 0.3525233,7.9e-5 0.696935,-0.10521 0.9902344,-0.3007813 z"
     id="path10820" />
</svg>
