<?xml version="1.0" encoding="UTF-8" standalone="no"?>
<svg
   width="24px"
   height="24px"
   stroke-width="1.57"
   viewBox="0 0 24 24"
   fill="none"
   color="#000000"
   version="1.1"
   id="svg13522"
   sodipodi:docname="no-lock.svg"
   inkscape:version="1.2.1 (9c6d41e410, 2022-07-14, custom)"
   xmlns:inkscape="http://www.inkscape.org/namespaces/inkscape"
   xmlns:sodipodi="http://sodipodi.sourceforge.net/DTD/sodipodi-0.dtd"
   xmlns="http://www.w3.org/2000/svg"
   xmlns:svg="http://www.w3.org/2000/svg">
  <defs
     id="defs13526" />
  <sodipodi:namedview
     id="namedview13524"
     pagecolor="#505050"
     bordercolor="#eeeeee"
     borderopacity="1"
     inkscape:showpageshadow="0"
     inkscape:pageopacity="0"
     inkscape:pagecheckerboard="0"
     inkscape:deskcolor="#505050"
     showgrid="false"
     inkscape:zoom="9.8333333"
     inkscape:cx="12"
     inkscape:cy="12.050847"
     inkscape:window-width="2560"
     inkscape:window-height="1377"
     inkscape:window-x="2560"
     inkscape:window-y="0"
     inkscape:window-maximized="1"
     inkscape:current-layer="svg13522" />
  <path
     style="color:#000000;fill:#000000;stroke-linecap:round;stroke-linejoin:round;-inkscape-stroke:none"
     d="m 3,2.2148438 a 0.78500003,0.78500003 0 0 0 -0.5546875,0.2304687 0.78500003,0.78500003 0 0 0 0,1.109375 L 7.2148437,8.3242188 V 11.214844 H 6.5996094 c -0.7556156,0 -1.3847657,0.62915 -1.3847657,1.384765 v 6.800782 c 0,0.755615 0.6291501,1.384765 1.3847657,1.384765 H 17.400391 c 0.620822,0 1.066943,-0.466445 1.238281,-1.037109 l 1.80664,1.80664 a 0.78500003,0.78500003 0 0 0 1.109375,0 0.78500003,0.78500003 0 0 0 0,-1.109375 L 8.5546875,7.4453125 l -5,-5 A 0.78500003,0.78500003 0 0 0 3,2.2148438 Z m 9,1 c -0.848583,0 -1.586807,0.1676862 -2.2050781,0.4609375 A 0.78500003,0.78500003 0 0 0 9.421875,4.7207031 0.78500003,0.78500003 0 0 0 10.466797,5.09375 C 10.860524,4.9070017 11.354585,4.7851562 12,4.7851562 c 1.381916,0 2.088151,0.5149774 2.5625,1.1738282 C 15.036849,6.6178351 15.214844,7.4905398 15.214844,8 v 4 A 0.78500003,0.78500003 0 0 0 15.445313,12.554688 0.78500003,0.78500003 0 0 0 16,12.785156 h 1.214844 V 13 A 0.78500003,0.78500003 0 0 0 18,13.785156 0.78500003,0.78500003 0 0 0 18.785156,13 v -0.400391 c 0,-0.755615 -0.62915,-1.384765 -1.384765,-1.384765 H 16.785156 V 8 c 0,-0.8235384 -0.221615,-1.9510868 -0.947265,-2.9589844 C 15.112241,4.033118 13.818081,3.2148437 12,3.2148438 Z M 8.7851563,9.8945313 10.105469,11.214844 H 8.7851563 Z M 11.625,12.734375 17.265625,18.375 a 0.78500003,0.78500003 0 0 0 -0.05078,0.125 v 0.714844 H 6.7851562 V 12.785156 H 8 11.5 a 0.78500003,0.78500003 0 0 0 0.125,-0.05078 z"
     id="path13520" />
</svg>
