<?xml version="1.0" encoding="UTF-8" standalone="no"?>
<svg
   width="24px"
   height="24px"
   viewBox="0 0 24 24"
   stroke-width="1.57"
   fill="none"
   color="#000000"
   version="1.1"
   id="svg7994"
   sodipodi:docname="open-new-window(1).svg"
   inkscape:version="1.2.1 (9c6d41e410, 2022-07-14, custom)"
   xmlns:inkscape="http://www.inkscape.org/namespaces/inkscape"
   xmlns:sodipodi="http://sodipodi.sourceforge.net/DTD/sodipodi-0.dtd"
   xmlns="http://www.w3.org/2000/svg"
   xmlns:svg="http://www.w3.org/2000/svg">
  <defs
     id="defs7998" />
  <sodipodi:namedview
     id="namedview7996"
     pagecolor="#505050"
     bordercolor="#eeeeee"
     borderopacity="1"
     inkscape:showpageshadow="0"
     inkscape:pageopacity="0"
     inkscape:pagecheckerboard="0"
     inkscape:deskcolor="#505050"
     showgrid="false"
     inkscape:zoom="9.8333333"
     inkscape:cx="12"
     inkscape:cy="12.050847"
     inkscape:window-width="2560"
     inkscape:window-height="1377"
     inkscape:window-x="2560"
     inkscape:window-y="0"
     inkscape:window-maximized="1"
     inkscape:current-layer="svg7994" />
  <path
     style="color:#000000;fill:#000000;stroke-linecap:round;stroke-linejoin:round;-inkscape-stroke:none"
     d="M 15,2.2148438 A 0.78500003,0.78500003 0 0 0 14.214844,3 0.78500003,0.78500003 0 0 0 15,3.7851563 h 4.105469 l -7.660156,7.6601567 a 0.78500003,0.78500003 0 0 0 0,1.109375 0.78500003,0.78500003 0 0 0 1.109375,0 L 20.214844,4.8945312 V 9 A 0.78500003,0.78500003 0 0 0 21,9.7851563 0.78500003,0.78500003 0 0 0 21.785156,9 V 3 A 0.78500003,0.78500003 0 0 0 21.724609,2.6992188 0.78500003,0.78500003 0 0 0 21.554687,2.4453125 0.78500003,0.78500003 0 0 0 21,2.2148438 Z"
     id="path7990" />
  <path
     style="color:#000000;fill:#000000;stroke-linecap:round;-inkscape-stroke:none"
     d="M 5,2.2148438 C 3.4711865,2.2148438 2.2148438,3.4711865 2.2148438,5 v 14 c 0,1.528813 1.2563427,2.785156 2.7851562,2.785156 h 14 c 1.528813,0 2.785156,-1.256343 2.785156,-2.785156 V 13 A 0.78500003,0.78500003 0 0 0 21,12.214844 0.78500003,0.78500003 0 0 0 20.214844,13 v 6 c 0,0.680323 -0.534521,1.214844 -1.214844,1.214844 H 5 C 4.3196767,20.214844 3.7851563,19.680323 3.7851563,19 V 5 C 3.7851563,4.3196767 4.3196767,3.7851563 5,3.7851563 h 6 A 0.78500003,0.78500003 0 0 0 11.785156,3 0.78500003,0.78500003 0 0 0 11,2.2148438 Z"
     id="path7992" />
</svg>
