<?xml version="1.0" encoding="UTF-8" standalone="no"?>
<svg
   width="24px"
   height="24px"
   stroke-width="1.57"
   viewBox="0 0 24 24"
   fill="none"
   color="#000000"
   version="1.1"
   id="svg5972"
   sodipodi:docname="activity.svg"
   inkscape:version="1.2.1 (9c6d41e410, 2022-07-14, custom)"
   xmlns:inkscape="http://www.inkscape.org/namespaces/inkscape"
   xmlns:sodipodi="http://sodipodi.sourceforge.net/DTD/sodipodi-0.dtd"
   xmlns="http://www.w3.org/2000/svg"
   xmlns:svg="http://www.w3.org/2000/svg">
  <defs
     id="defs5976" />
  <sodipodi:namedview
     id="namedview5974"
     pagecolor="#505050"
     bordercolor="#eeeeee"
     borderopacity="1"
     inkscape:showpageshadow="0"
     inkscape:pageopacity="0"
     inkscape:pagecheckerboard="0"
     inkscape:deskcolor="#505050"
     showgrid="false"
     inkscape:zoom="9.8333333"
     inkscape:cx="12"
     inkscape:cy="12.050847"
     inkscape:window-width="2560"
     inkscape:window-height="1377"
     inkscape:window-x="2560"
     inkscape:window-y="0"
     inkscape:window-maximized="1"
     inkscape:current-layer="svg5972" />
  <path
     style="color:#000000;fill:#000000;stroke-linecap:round;stroke-linejoin:round;-inkscape-stroke:none"
     d="M 9,2.2148438 A 0.78507853,0.78507853 0 0 0 8.2558594,2.7519531 L 5.4335937,11.214844 H 3 A 0.78500003,0.78500003 0 0 0 2.2148438,12 0.78500003,0.78500003 0 0 0 3,12.785156 H 6 A 0.78507853,0.78507853 0 0 0 6.7441406,12.248047 L 9,5.4804687 14.255859,21.248047 a 0.78507853,0.78507853 0 0 0 1.488282,0 l 2.822265,-8.462891 H 21 A 0.78500003,0.78500003 0 0 0 21.785156,12 0.78500003,0.78500003 0 0 0 21,11.214844 h -3 a 0.78507853,0.78507853 0 0 0 -0.744141,0.537109 L 15,18.519531 9.7441406,2.7519531 A 0.78507853,0.78507853 0 0 0 9,2.2148438 Z"
     id="path5970" />
</svg>
