<?xml version="1.0" encoding="UTF-8" standalone="no"?>
<svg
   width="24px"
   height="24px"
   viewBox="0 0 24 24"
   stroke-width="1.57"
   fill="none"
   color="#000000"
   version="1.1"
   id="svg8134"
   sodipodi:docname="paste-clipboard.svg"
   inkscape:version="1.2.1 (9c6d41e410, 2022-07-14, custom)"
   xmlns:inkscape="http://www.inkscape.org/namespaces/inkscape"
   xmlns:sodipodi="http://sodipodi.sourceforge.net/DTD/sodipodi-0.dtd"
   xmlns="http://www.w3.org/2000/svg"
   xmlns:svg="http://www.w3.org/2000/svg">
  <defs
     id="defs8138" />
  <sodipodi:namedview
     id="namedview8136"
     pagecolor="#505050"
     bordercolor="#eeeeee"
     borderopacity="1"
     inkscape:showpageshadow="0"
     inkscape:pageopacity="0"
     inkscape:pagecheckerboard="0"
     inkscape:deskcolor="#505050"
     showgrid="false"
     inkscape:zoom="9.8333333"
     inkscape:cx="12"
     inkscape:cy="12.050847"
     inkscape:window-width="2560"
     inkscape:window-height="1377"
     inkscape:window-x="2560"
     inkscape:window-y="0"
     inkscape:window-maximized="1"
     inkscape:current-layer="svg8134" />
  <path
     style="color:#000000;fill:#000000;stroke-linecap:round;-inkscape-stroke:none"
     d="M 6,3.2148438 C 4.4711865,3.2148438 3.2148437,4.4711865 3.2148438,6 v 14 c 0,1.528813 1.2563427,2.785156 2.7851562,2.785156 h 12 c 1.528813,0 2.785156,-1.256343 2.785156,-2.785156 V 6 C 20.785156,4.4711865 19.528813,3.2148438 18,3.2148438 H 15.5 A 0.78500003,0.78500003 0 0 0 14.714844,4 0.78500003,0.78500003 0 0 0 15.5,4.7851562 H 18 c 0.680323,0 1.214844,0.5345205 1.214844,1.2148438 v 14 c 0,0.680323 -0.534521,1.214844 -1.214844,1.214844 H 6 C 5.3196767,21.214844 4.7851563,20.680323 4.7851562,20 V 6 C 4.7851562,5.3196767 5.3196767,4.7851562 6,4.7851562 H 8.5 A 0.78500003,0.78500003 0 0 0 9.2851563,4 0.78500003,0.78500003 0 0 0 8.5,3.2148438 Z"
     id="path8130" />
  <path
     style="color:#000000;fill:#000000;stroke-linecap:round;-inkscape-stroke:none"
     d="m 12,0.21484375 c -1.307192,0 -2.278641,0.53488364 -2.8515625,1.21093745 C 8.5978773,2.0754485 8.4069782,2.7844582 8.3125,3.2929688 7.7105952,3.3969599 7.2148438,3.8721063 7.2148437,4.5 v 1.9003906 c 0,0.7556156 0.6291501,1.3847656 1.3847657,1.3847656 h 6.8007816 c 0.755615,10e-8 1.384765,-0.62915 1.384765,-1.3847656 V 4.5 c 0,-0.6278937 -0.495751,-1.1030401 -1.097656,-1.2070312 C 15.593022,2.7844582 15.402123,2.0754485 14.851563,1.4257812 14.278641,0.74972739 13.307192,0.21484375 12,0.21484375 Z m 0,1.57031245 c 0.918806,0 1.346719,0.2913518 1.654297,0.6542969 0.307578,0.3629451 0.460176,0.8575281 0.519531,1.1992188 l 0.002,0.00195 c 0.09153,0.5186953 0.506185,0.9023539 1.039063,1.0351562 V 6.2148437 H 8.7851563 V 4.6757812 C 9.3180338,4.5429789 9.7326843,4.1593203 9.8242188,3.640625 l 0.00195,-0.00195 C 9.8855266,3.2969812 10.038125,2.8023982 10.345703,2.4394531 10.653281,2.076508 11.081194,1.7851563 12,1.7851562 Z"
     id="path8132" />
</svg>
