<?xml version="1.0" encoding="UTF-8" standalone="no"?>
<svg
   width="24px"
   height="24px"
   stroke-width="1.57"
   viewBox="0 0 24 24"
   fill="none"
   color="#000000"
   version="1.1"
   id="svg7187"
   sodipodi:docname="folder.svg"
   inkscape:version="1.2.1 (9c6d41e410, 2022-07-14, custom)"
   xmlns:inkscape="http://www.inkscape.org/namespaces/inkscape"
   xmlns:sodipodi="http://sodipodi.sourceforge.net/DTD/sodipodi-0.dtd"
   xmlns="http://www.w3.org/2000/svg"
   xmlns:svg="http://www.w3.org/2000/svg">
  <defs
     id="defs7191" />
  <sodipodi:namedview
     id="namedview7189"
     pagecolor="#505050"
     bordercolor="#eeeeee"
     borderopacity="1"
     inkscape:showpageshadow="0"
     inkscape:pageopacity="0"
     inkscape:pagecheckerboard="0"
     inkscape:deskcolor="#505050"
     showgrid="false"
     inkscape:zoom="9.8333333"
     inkscape:cx="12"
     inkscape:cy="12.050847"
     inkscape:window-width="2560"
     inkscape:window-height="1377"
     inkscape:window-x="2560"
     inkscape:window-y="0"
     inkscape:window-maximized="1"
     inkscape:current-layer="svg7187" />
  <path
     style="color:#000000;fill:#000000;stroke-linecap:round;stroke-linejoin:round;-inkscape-stroke:none"
     d="m 2.5996094,3.2148438 c -0.7556156,0 -1.3847656,0.62915 -1.3847657,1.3847656 V 11 19.400391 c 0,0.755615 0.6291501,1.384765 1.3847657,1.384765 H 21.400391 c 0.755615,0 1.384765,-0.62915 1.384765,-1.384765 V 11 7.5996094 c 0,-0.7556156 -0.62915,-1.3847657 -1.384765,-1.3847657 H 12.791016 L 9.6796875,3.5488281 a 0.78507853,0.78507853 0 0 0 -0.00195,-0.00195 C 9.4269895,3.3324475 9.1072712,3.2148184 8.7773438,3.2148438 Z m 0.1855469,1.5703124 h 5.9238281 l 3.1113286,2.6660157 a 0.78507853,0.78507853 0 0 0 0.002,0.00195 c 0.250744,0.2144275 0.570463,0.3320566 0.90039,0.3320312 h 8.492188 V 10.214844 H 2.7851563 Z m 0,6.9999998 H 21.214844 v 7.429688 H 2.7851563 Z"
     id="path7185" />
</svg>
