<?xml version="1.0" encoding="UTF-8" standalone="no"?>
<svg
   width="24px"
   height="24px"
   stroke-width="1.57"
   viewBox="0 0 24 24"
   fill="none"
   color="#000000"
   version="1.1"
   id="svg3467"
   sodipodi:docname="menu.svg"
   inkscape:version="1.2.1 (9c6d41e410, 2022-07-14, custom)"
   xmlns:inkscape="http://www.inkscape.org/namespaces/inkscape"
   xmlns:sodipodi="http://sodipodi.sourceforge.net/DTD/sodipodi-0.dtd"
   xmlns="http://www.w3.org/2000/svg"
   xmlns:svg="http://www.w3.org/2000/svg">
  <defs
     id="defs3471" />
  <sodipodi:namedview
     id="namedview3469"
     pagecolor="#505050"
     bordercolor="#eeeeee"
     borderopacity="1"
     inkscape:showpageshadow="0"
     inkscape:pageopacity="0"
     inkscape:pagecheckerboard="0"
     inkscape:deskcolor="#505050"
     showgrid="false"
     inkscape:zoom="9.8333333"
     inkscape:cx="12"
     inkscape:cy="12.050847"
     inkscape:window-width="2560"
     inkscape:window-height="1377"
     inkscape:window-x="2560"
     inkscape:window-y="0"
     inkscape:window-maximized="1"
     inkscape:current-layer="svg3467" />
  <path
     style="color:#000000;fill:#000000;stroke-linecap:round;stroke-linejoin:round;-inkscape-stroke:none"
     d="M 5.3007812,5.9882812 A 0.80000001,0.80000001 0 0 0 4.5,6.7890625 0.80000001,0.80000001 0 0 0 5.3007812,7.5898437 H 18.699219 A 0.80000001,0.80000001 0 0 0 19.5,6.7890625 0.80000001,0.80000001 0 0 0 18.699219,5.9882812 Z m 0,5.2109378 A 0.80000001,0.80000001 0 0 0 4.5,12 0.80000001,0.80000001 0 0 0 5.3007812,12.800781 H 18.699219 A 0.80000001,0.80000001 0 0 0 19.5,12 0.80000001,0.80000001 0 0 0 18.699219,11.199219 Z m 0,5.210937 A 0.80000001,0.80000001 0 0 0 4.5,17.210937 0.80000001,0.80000001 0 0 0 5.3007812,18.011719 H 18.699219 A 0.80000001,0.80000001 0 0 0 19.5,17.210937 0.80000001,0.80000001 0 0 0 18.699219,16.410156 Z"
     id="path3465" />
</svg>
