<?xml version="1.0" encoding="UTF-8" standalone="no"?>
<svg
   width="24"
   height="24"
   viewBox="0 0 24 24"
   fill="none"
   stroke="currentColor"
   stroke-width="1.5"
   stroke-linecap="round"
   stroke-linejoin="round"
   class="icon icon-tabler icons-tabler-outline icon-tabler-columns-3"
   version="1.1"
   id="svg2"
   sodipodi:docname="clip-launcher-24.svg"
   inkscape:version="1.3.2 (091e20ef0f, 2023-11-25, custom)"
   xmlns:inkscape="http://www.inkscape.org/namespaces/inkscape"
   xmlns:sodipodi="http://sodipodi.sourceforge.net/DTD/sodipodi-0.dtd"
   xmlns="http://www.w3.org/2000/svg"
   xmlns:svg="http://www.w3.org/2000/svg">
  <defs
     id="defs2" />
  <sodipodi:namedview
     id="namedview2"
     pagecolor="#505050"
     bordercolor="#eeeeee"
     borderopacity="1"
     inkscape:showpageshadow="0"
     inkscape:pageopacity="0"
     inkscape:pagecheckerboard="0"
     inkscape:deskcolor="#505050"
     inkscape:zoom="36.239223"
     inkscape:cx="9.8787991"
     inkscape:cy="12.527863"
     inkscape:window-width="2560"
     inkscape:window-height="1412"
     inkscape:window-x="0"
     inkscape:window-y="0"
     inkscape:window-maximized="1"
     inkscape:current-layer="svg2" />
  <path
     stroke="none"
     d="M0 0h24v24H0z"
     fill="none"
     id="path1" />
  <path
     id="path3"
     d="M 4,21 C 3.447715,21 3,20.552285 3,20 V 4 C 3,3.447715 3.447715,3 4,3 h 16 c 0.552285,0 1,0.447715 1,1 v 16 c 0,0.552285 -0.447715,1 -1,1 H 9.832772 Z M 3,15 H 21 M 3,9 H 21 M 3,4 C 3,3.4477153 3.4477153,3 4,3 h 16 c 0.552285,0 1,0.4477153 1,1 v 16 c 0,0.552285 -0.447715,1 -1,1 H 4 C 3.4477153,21 3,20.552285 3,20 V 9.8327725 Z M 9,3 V 21 M 15,3 v 18" />
</svg>
