<?xml version="1.0" encoding="UTF-8" standalone="no"?>
<svg
   width="24"
   height="24"
   viewBox="0 0 24 24"
   fill="none"
   stroke="currentColor"
   stroke-width="1.5"
   stroke-linecap="round"
   stroke-linejoin="round"
   class="icon icon-tabler icons-tabler-outline icon-tabler-zoom-in-area"
   version="1.1"
   id="svg10"
   sodipodi:docname="zoom-select-24.svg"
   inkscape:version="1.3.2 (091e20ef0f, 2023-11-25, custom)"
   xmlns:inkscape="http://www.inkscape.org/namespaces/inkscape"
   xmlns:sodipodi="http://sodipodi.sourceforge.net/DTD/sodipodi-0.dtd"
   xmlns="http://www.w3.org/2000/svg"
   xmlns:svg="http://www.w3.org/2000/svg">
  <defs
     id="defs10" />
  <sodipodi:namedview
     id="namedview10"
     pagecolor="#505050"
     bordercolor="#eeeeee"
     borderopacity="1"
     inkscape:showpageshadow="0"
     inkscape:pageopacity="0"
     inkscape:pagecheckerboard="0"
     inkscape:deskcolor="#505050"
     inkscape:zoom="51.25"
     inkscape:cx="12"
     inkscape:cy="12"
     inkscape:window-width="2560"
     inkscape:window-height="1412"
     inkscape:window-x="0"
     inkscape:window-y="0"
     inkscape:window-maximized="1"
     inkscape:current-layer="svg10" />
  <path
     stroke="none"
     d="M0 0h24v24H0z"
     fill="none"
     id="path1" />
  <path
     d="M15 15m-5 0a5 5 0 1 0 10 0a5 5 0 1 0 -10 0"
     id="path4" />
  <path
     d="M22 22l-3 -3"
     id="path5" />
  <path
     d="M6 18h-1a2 2 0 0 1 -2 -2v-1"
     id="path6" />
  <path
     d="M3 11v-1"
     id="path7" />
  <path
     d="M3 6v-1a2 2 0 0 1 2 -2h1"
     id="path8" />
  <path
     d="M10 3h1"
     id="path9" />
  <path
     d="M15 3h1a2 2 0 0 1 2 2v1"
     id="path10" />
</svg>
